<?xml version="1.0" encoding="UTF-8" standalone="no"?>
<!-- Created with Inkscape (http://www.inkscape.org/) -->

<svg
   xmlns:dc="http://purl.org/dc/elements/1.1/"
   xmlns:cc="http://creativecommons.org/ns#"
   xmlns:rdf="http://www.w3.org/1999/02/22-rdf-syntax-ns#"
   xmlns:svg="http://www.w3.org/2000/svg"
   xmlns="http://www.w3.org/2000/svg"
   xmlns:sodipodi="http://sodipodi.sourceforge.net/DTD/sodipodi-0.dtd"
   xmlns:inkscape="http://www.inkscape.org/namespaces/inkscape"
   width="7.3377776mm"
   height="6.208889mm"
   viewBox="0 0 26 22"
   id="svg2"
   version="1.1"
   inkscape:version="0.91 r13725"
   sodipodi:docname="check.svg">
  <defs
     id="defs4" />
  <sodipodi:namedview
     id="base"
     pagecolor="#ffffff"
     bordercolor="#666666"
     borderopacity="1.0"
     inkscape:pageopacity="0.0"
     inkscape:pageshadow="2"
     inkscape:zoom="1.4"
     inkscape:cx="33.074554"
     inkscape:cy="-60.955809"
     inkscape:document-units="px"
     inkscape:current-layer="layer1"
     showgrid="false"
     inkscape:window-width="1920"
     inkscape:window-height="1017"
     inkscape:window-x="-8"
     inkscape:window-y="-8"
     inkscape:window-maximized="1"
     fit-margin-top="0"
     fit-margin-left="0"
     fit-margin-right="0"
     fit-margin-bottom="0" />
  <metadata
     id="metadata7">
    <rdf:RDF>
      <cc:Work
         rdf:about="">
        <dc:format>image/svg+xml</dc:format>
        <dc:type
           rdf:resource="http://purl.org/dc/dcmitype/StillImage" />
        <dc:title></dc:title>
      </cc:Work>
    </rdf:RDF>
  </metadata>
  <g
     inkscape:label="Layer 1"
     inkscape:groupmode="layer"
     id="layer1"
     transform="translate(-357.20372,-730.46607)">
    <g
       id="g3337"
       transform="translate(1799.4894,536.82978)">
      <path
         id="path3339"
         d="M 17.836,3.516 9.352,12 7.758,13.594 c -0.211,0.211 -0.504,0.328 -0.797,0.328 -0.293,0 -0.586,-0.117 -0.797,-0.328 L 4.57,12 0.328,7.758 C 0.117,7.547 0,7.254 0,6.961 0,6.668 0.117,6.375 0.328,6.164 L 1.922,4.57 C 2.133,4.359 2.426,4.242 2.719,4.242 c 0.293,0 0.586,0.117 0.797,0.328 L 6.961,8.027 14.649,0.328 C 14.859,0.117 15.152,0 15.445,0 c 0.293,0 0.586,0.117 0.797,0.328 l 1.594,1.594 c 0.211,0.211 0.328,0.504 0.328,0.797 0,0.293 -0.117,0.586 -0.328,0.797 z"
         inkscape:connector-curvature="0"
         style="fill:#ffffff" />
    </g>
    <g
       id="g3350"
       transform="matrix(17.673483,0,0,19.983315,359.48943,736.82979)">
      <path
         id="path3352"
         d="M 17.836,3.516 9.352,12 7.758,13.594 c -0.211,0.211 -0.504,0.328 -0.797,0.328 -0.293,0 -0.586,-0.117 -0.797,-0.328 L 4.57,12 0.328,7.758 C 0.117,7.547 0,7.254 0,6.961 0,6.668 0.117,6.375 0.328,6.164 L 1.922,4.57 C 2.133,4.359 2.426,4.242 2.719,4.242 c 0.293,0 0.586,0.117 0.797,0.328 L 6.961,8.027 14.649,0.328 C 14.859,0.117 15.152,0 15.445,0 c 0.293,0 0.586,0.117 0.797,0.328 l 1.594,1.594 c 0.211,0.211 0.328,0.504 0.328,0.797 0,0.293 -0.117,0.586 -0.328,0.797 z"
         inkscape:connector-curvature="0"
         style="fill:#ffffff" />
    </g>
    <g
       id="g3363"
       transform="translate(677.918,856.18035)">
      <path
         id="path3365"
         d="M 25.047,17.422 C 22.984,21.594 17.313,22 13.25,22 9.125,22 3.109,21.641 0.969,17.422 0.172,15.844 0,13.984 0,12.25 0,9.969 0.625,7.812 2.125,6.062 1.844,5.203 1.703,4.297 1.703,3.406 1.703,2.234 1.969,1.063 2.5,0 4.969,0 6.547,1.078 8.422,2.547 10,2.172 11.625,2 13.25,2 14.719,2 16.203,2.156 17.625,2.5 19.484,1.047 21.063,0 23.5,0 c 0.531,1.063 0.797,2.234 0.797,3.406 0,0.891 -0.141,1.781 -0.422,2.625 1.5,1.766 2.125,3.938 2.125,6.219 0,1.734 -0.172,3.578 -0.953,5.172 z M 18.5,10.5 c -1.031,0 -2.016,0.188 -3.047,0.328 C 14.641,10.953 13.828,11 13,11 12.172,11 11.359,10.953 10.547,10.828 9.531,10.688 8.531,10.5 7.5,10.5 c -2.547,0 -4,2.109 -4,4.5 0,4.781 4.375,5.516 8.188,5.516 l 2.625,0 c 3.813,0 8.188,-0.734 8.188,-5.516 C 22.5,12.609 21.047,10.5 18.5,10.5 Z M 8,18 c -1.406,0 -2,-1.859 -2,-3 0,-1.141 0.594,-3 2,-3 1.406,0 2,1.859 2,3 0,1.141 -0.594,3 -2,3 z m 10,0 c -1.406,0 -2,-1.859 -2,-3 0,-1.141 0.594,-3 2,-3 1.406,0 2,1.859 2,3 0,1.141 -0.594,3 -2,3 z"
         inkscape:connector-curvature="0"
         style="fill:#ffffff" />
    </g>
    <g
       id="g3376"
       transform="translate(357.20372,730.46607)">
      <path
         id="path3378"
         d="M 25.047,17.422 C 22.984,21.594 17.313,22 13.25,22 9.125,22 3.109,21.641 0.969,17.422 0.172,15.844 0,13.984 0,12.25 0,9.969 0.625,7.812 2.125,6.062 1.844,5.203 1.703,4.297 1.703,3.406 1.703,2.234 1.969,1.063 2.5,0 4.969,0 6.547,1.078 8.422,2.547 10,2.172 11.625,2 13.25,2 14.719,2 16.203,2.156 17.625,2.5 19.484,1.047 21.063,0 23.5,0 c 0.531,1.063 0.797,2.234 0.797,3.406 0,0.891 -0.141,1.781 -0.422,2.625 1.5,1.766 2.125,3.938 2.125,6.219 0,1.734 -0.172,3.578 -0.953,5.172 z M 18.5,10.5 c -1.031,0 -2.016,0.188 -3.047,0.328 C 14.641,10.953 13.828,11 13,11 12.172,11 11.359,10.953 10.547,10.828 9.531,10.688 8.531,10.5 7.5,10.5 c -2.547,0 -4,2.109 -4,4.5 0,4.781 4.375,5.516 8.188,5.516 l 2.625,0 c 3.813,0 8.188,-0.734 8.188,-5.516 C 22.5,12.609 21.047,10.5 18.5,10.5 Z M 8,18 c -1.406,0 -2,-1.859 -2,-3 0,-1.141 0.594,-3 2,-3 1.406,0 2,1.859 2,3 0,1.141 -0.594,3 -2,3 z m 10,0 c -1.406,0 -2,-1.859 -2,-3 0,-1.141 0.594,-3 2,-3 1.406,0 2,1.859 2,3 0,1.141 -0.594,3 -2,3 z"
         inkscape:connector-curvature="0"
         style="fill:#ffffff" />
    </g>
  </g>
</svg>
