<?xml version="1.0" encoding="UTF-8" standalone="no"?>
<!-- Generator: Adobe Illustrator 16.0.0, SVG Export Plug-In . SVG Version: 6.00 Build 0)  -->

<svg
   xmlns:dc="http://purl.org/dc/elements/1.1/"
   xmlns:cc="http://creativecommons.org/ns#"
   xmlns:rdf="http://www.w3.org/1999/02/22-rdf-syntax-ns#"
   xmlns:svg="http://www.w3.org/2000/svg"
   xmlns="http://www.w3.org/2000/svg"
   xmlns:sodipodi="http://sodipodi.sourceforge.net/DTD/sodipodi-0.dtd"
   xmlns:inkscape="http://www.inkscape.org/namespaces/inkscape"
   version="1.1"
   id="Layer_1"
   x="0px"
   y="0px"
   width="26"
   height="22"
   viewBox="0 0 26 22"
   enable-background="new 0 0 26 22"
   xml:space="preserve"
   inkscape:version="0.91 r13725"
   sodipodi:docname="github.svg"><metadata
     id="metadata11"><rdf:RDF><cc:Work
         rdf:about=""><dc:format>image/svg+xml</dc:format><dc:type
           rdf:resource="http://purl.org/dc/dcmitype/StillImage" /><dc:title></dc:title></cc:Work></rdf:RDF></metadata><defs
     id="defs9" /><sodipodi:namedview
     pagecolor="#ffffff"
     bordercolor="#666666"
     borderopacity="1"
     objecttolerance="10"
     gridtolerance="10"
     guidetolerance="10"
     inkscape:pageopacity="0"
     inkscape:pageshadow="2"
     inkscape:window-width="640"
     inkscape:window-height="480"
     id="namedview7"
     showgrid="false"
     fit-margin-top="0"
     fit-margin-left="0"
     fit-margin-right="0"
     fit-margin-bottom="0"
     inkscape:zoom="10.727273"
     inkscape:cx="13"
     inkscape:cy="11"
     inkscape:window-x="0"
     inkscape:window-y="0"
     inkscape:window-maximized="0"
     inkscape:current-layer="Layer_1" /><g
     id="g3"><path
       d="M 25.047,17.422 C 22.984,21.594 17.313,22 13.25,22 9.125,22 3.109,21.641 0.969,17.422 0.172,15.844 0,13.984 0,12.25 0,9.969 0.625,7.812 2.125,6.062 1.844,5.203 1.703,4.297 1.703,3.406 1.703,2.234 1.969,1.063 2.5,0 4.969,0 6.547,1.078 8.422,2.547 10,2.172 11.625,2 13.25,2 14.719,2 16.203,2.156 17.625,2.5 19.484,1.047 21.063,0 23.5,0 c 0.531,1.063 0.797,2.234 0.797,3.406 0,0.891 -0.141,1.781 -0.422,2.625 1.5,1.766 2.125,3.938 2.125,6.219 0,1.734 -0.172,3.578 -0.953,5.172 z M 18.5,10.5 c -1.031,0 -2.016,0.188 -3.047,0.328 C 14.641,10.953 13.828,11 13,11 12.172,11 11.359,10.953 10.547,10.828 9.531,10.688 8.531,10.5 7.5,10.5 c -2.547,0 -4,2.109 -4,4.5 0,4.781 4.375,5.516 8.188,5.516 l 2.625,0 c 3.813,0 8.188,-0.734 8.188,-5.516 C 22.5,12.609 21.047,10.5 18.5,10.5 Z M 8,18 c -1.406,0 -2,-1.859 -2,-3 0,-1.141 0.594,-3 2,-3 1.406,0 2,1.859 2,3 0,1.141 -0.594,3 -2,3 z m 10,0 c -1.406,0 -2,-1.859 -2,-3 0,-1.141 0.594,-3 2,-3 1.406,0 2,1.859 2,3 0,1.141 -0.594,3 -2,3 z"
       id="path5"
       inkscape:connector-curvature="0"
       style="fill:#ffffff" /></g></svg>