<?xml version="1.0" encoding="UTF-8" standalone="no"?>
<!-- Generator: Adobe Illustrator 16.0.0, SVG Export Plug-In . SVG Version: 6.00 Build 0)  -->

<svg
   xmlns:dc="http://purl.org/dc/elements/1.1/"
   xmlns:cc="http://creativecommons.org/ns#"
   xmlns:rdf="http://www.w3.org/1999/02/22-rdf-syntax-ns#"
   xmlns:svg="http://www.w3.org/2000/svg"
   xmlns="http://www.w3.org/2000/svg"
   xmlns:sodipodi="http://sodipodi.sourceforge.net/DTD/sodipodi-0.dtd"
   xmlns:inkscape="http://www.inkscape.org/namespaces/inkscape"
   version="1.1"
   id="Layer_1"
   x="0px"
   y="0px"
   width="14.138"
   height="15.422"
   viewBox="0 0 14.137999 15.422"
   enable-background="new 0 0 14.137 15.422"
   xml:space="preserve"
   inkscape:version="0.91 r13725"
   sodipodi:docname="login.svg"><metadata
     id="metadata11"><rdf:RDF><cc:Work
         rdf:about=""><dc:format>image/svg+xml</dc:format><dc:type
           rdf:resource="http://purl.org/dc/dcmitype/StillImage" /><dc:title></dc:title></cc:Work></rdf:RDF></metadata><defs
     id="defs9" /><sodipodi:namedview
     pagecolor="#ffffff"
     bordercolor="#666666"
     borderopacity="1"
     objecttolerance="10"
     gridtolerance="10"
     guidetolerance="10"
     inkscape:pageopacity="0"
     inkscape:pageshadow="2"
     inkscape:window-width="640"
     inkscape:window-height="480"
     id="namedview7"
     showgrid="false"
     fit-margin-top="0"
     fit-margin-left="0"
     fit-margin-right="0"
     fit-margin-bottom="0"
     inkscape:zoom="15.302814"
     inkscape:cx="7.015127"
     inkscape:cy="7.711"
     inkscape:window-x="0"
     inkscape:window-y="0"
     inkscape:window-maximized="0"
     inkscape:current-layer="Layer_1" /><g
     id="g3"><path
       d="m 11.456,15.422 -8.775,0 C 1.084,15.422 0,14.448 0,12.821 0,10.552 0.532,7.068 3.474,7.068 c 0.312,0 1.627,1.396 3.595,1.396 1.968,0 3.283,-1.396 3.595,-1.396 2.941,0 3.474,3.484 3.474,5.753 -10e-4,1.627 -1.085,2.601 -2.682,2.601 z M 7.068,7.711 C 4.939,7.711 3.213,5.984 3.213,3.856 3.213,1.728 4.939,0 7.068,0 c 2.129,0 3.855,1.727 3.855,3.855 0,2.128 -1.726,3.856 -3.855,3.856 z"
       id="path5"
       inkscape:connector-curvature="0"
       style="fill:#c4cbcd" /></g></svg>