<?xml version="1.0" encoding="UTF-8" standalone="no"?>
<!-- Generator: Adobe Illustrator 16.0.0, SVG Export Plug-In . SVG Version: 6.00 Build 0)  -->

<svg
   xmlns:dc="http://purl.org/dc/elements/1.1/"
   xmlns:cc="http://creativecommons.org/ns#"
   xmlns:rdf="http://www.w3.org/1999/02/22-rdf-syntax-ns#"
   xmlns:svg="http://www.w3.org/2000/svg"
   xmlns="http://www.w3.org/2000/svg"
   xmlns:sodipodi="http://sodipodi.sourceforge.net/DTD/sodipodi-0.dtd"
   xmlns:inkscape="http://www.inkscape.org/namespaces/inkscape"
   version="1.1"
   id="Layer_1"
   x="0px"
   y="0px"
   width="15.151"
   height="21.653999"
   viewBox="0 0 15.151 21.654"
   enable-background="new 0 0 15.151 21.654"
   xml:space="preserve"
   inkscape:version="0.91 r13725"
   sodipodi:docname="map_marker.svg"><metadata
     id="metadata12"><rdf:RDF><cc:Work
         rdf:about=""><dc:format>image/svg+xml</dc:format><dc:type
           rdf:resource="http://purl.org/dc/dcmitype/StillImage" /><dc:title></dc:title></cc:Work></rdf:RDF></metadata><defs
     id="defs10" /><sodipodi:namedview
     pagecolor="#ffffff"
     bordercolor="#666666"
     borderopacity="1"
     objecttolerance="10"
     gridtolerance="10"
     guidetolerance="10"
     inkscape:pageopacity="0"
     inkscape:pageshadow="2"
     inkscape:window-width="640"
     inkscape:window-height="480"
     id="namedview8"
     showgrid="false"
     fit-margin-top="0"
     fit-margin-left="0"
     fit-margin-right="0"
     fit-margin-bottom="0"
     inkscape:zoom="10.89868"
     inkscape:cx="7.5755"
     inkscape:cy="10.827"
     inkscape:window-x="0"
     inkscape:window-y="0"
     inkscape:window-maximized="0"
     inkscape:current-layer="Layer_1" /><g
     id="Glyph_copy_2"><path
       d="m 11.004,7.835 c 0,-1.883 -1.538,-3.414 -3.43,-3.414 -1.889,0 -3.431,1.531 -3.431,3.414 0,1.884 1.542,3.419 3.431,3.419 1.892,0 3.43,-1.535 3.43,-3.419 z"
       id="path4"
       inkscape:connector-curvature="0"
       style="fill:#00bea4" /><path
       d="M 7.574,21.654 8.962,19.837 C 10.417,17.912 15.151,11.368 15.151,7.788 15.151,3.132 12.106,0 7.574,0 3.045,0 0,3.132 0,7.788 0,11.642 5.56,19.011 6.192,19.837 l 1.382,1.817 z M 2.792,7.835 c 0,-2.628 2.146,-4.77 4.782,-4.77 2.64,0 4.785,2.142 4.785,4.77 0,2.63 -2.146,4.771 -4.785,4.771 C 4.938,12.605 2.792,10.465 2.792,7.835 Z"
       id="path6"
       inkscape:connector-curvature="0"
       style="fill:#00bea4" /></g></svg>