<?xml version="1.0" encoding="UTF-8" standalone="no"?>
<!-- Generator: Adobe Illustrator 16.0.0, SVG Export Plug-In . SVG Version: 6.00 Build 0)  -->

<svg
   xmlns:dc="http://purl.org/dc/elements/1.1/"
   xmlns:cc="http://creativecommons.org/ns#"
   xmlns:rdf="http://www.w3.org/1999/02/22-rdf-syntax-ns#"
   xmlns:svg="http://www.w3.org/2000/svg"
   xmlns="http://www.w3.org/2000/svg"
   xmlns:sodipodi="http://sodipodi.sourceforge.net/DTD/sodipodi-0.dtd"
   xmlns:inkscape="http://www.inkscape.org/namespaces/inkscape"
   version="1.1"
   id="Layer_1"
   x="0px"
   y="0px"
   width="16.896999"
   height="15.985"
   viewBox="0 0 16.897 15.984999"
   enable-background="new 0 0 16.897 15.984"
   xml:space="preserve"
   inkscape:version="0.91 r13725"
   sodipodi:docname="password.svg"><metadata
     id="metadata11"><rdf:RDF><cc:Work
         rdf:about=""><dc:format>image/svg+xml</dc:format><dc:type
           rdf:resource="http://purl.org/dc/dcmitype/StillImage" /><dc:title></dc:title></cc:Work></rdf:RDF></metadata><defs
     id="defs9" /><sodipodi:namedview
     pagecolor="#ffffff"
     bordercolor="#666666"
     borderopacity="1"
     objecttolerance="10"
     gridtolerance="10"
     guidetolerance="10"
     inkscape:pageopacity="0"
     inkscape:pageshadow="2"
     inkscape:window-width="640"
     inkscape:window-height="480"
     id="namedview7"
     showgrid="false"
     fit-margin-top="0"
     fit-margin-left="0"
     fit-margin-right="0"
     fit-margin-bottom="0"
     inkscape:zoom="14.764765"
     inkscape:cx="8.4484997"
     inkscape:cy="7.9929999"
     inkscape:window-x="0"
     inkscape:window-y="0"
     inkscape:window-maximized="0"
     inkscape:current-layer="Layer_1" /><g
     id="g3"><path
       d="m 15.743,12.078 c -0.261,0 -1.074,-0.943 -1.285,-1.154 l -0.964,0.964 2.209,2.209 c 0.181,0.181 0.281,0.432 0.281,0.683 0,0.563 -0.643,1.205 -1.205,1.205 -0.251,0 -0.502,-0.101 -0.683,-0.281 L 7.359,8.966 C 6.305,9.749 5.02,10.281 3.695,10.281 1.506,10.281 0,8.765 0,6.586 0,3.293 3.293,0 6.586,0 c 2.18,0 3.695,1.506 3.695,3.695 0,1.325 -0.532,2.61 -1.315,3.665 L 12.53,10.924 13.494,9.96 C 13.283,9.749 12.34,8.936 12.34,8.675 c 0,-0.231 0.924,-1.155 1.154,-1.155 0.08,0 0.171,0.041 0.23,0.101 0.372,0.372 3.173,3.012 3.173,3.303 0,0.23 -0.923,1.154 -1.154,1.154 z M 6.426,1.928 c -1.064,0 -1.928,0.863 -1.928,1.928 0,0.291 0.07,0.572 0.19,0.833 C 4.428,4.568 4.146,4.498 3.855,4.498 c -1.064,0 -1.928,0.863 -1.928,1.928 0,1.065 0.863,1.928 1.928,1.928 1.065,0 1.928,-0.864 1.928,-1.928 0,-0.291 -0.07,-0.572 -0.19,-0.833 0.261,0.121 0.542,0.191 0.833,0.191 1.064,0 1.928,-0.863 1.928,-1.928 0,-1.065 -0.864,-1.928 -1.928,-1.928 z"
       id="path5"
       inkscape:connector-curvature="0"
       style="fill:#c4cbcd" /></g></svg>