<?xml version="1.0" encoding="UTF-8" standalone="no"?>
<!-- Generator: Adobe Illustrator 16.0.0, SVG Export Plug-In . SVG Version: 6.00 Build 0)  -->

<svg
   xmlns:dc="http://purl.org/dc/elements/1.1/"
   xmlns:cc="http://creativecommons.org/ns#"
   xmlns:rdf="http://www.w3.org/1999/02/22-rdf-syntax-ns#"
   xmlns:svg="http://www.w3.org/2000/svg"
   xmlns="http://www.w3.org/2000/svg"
   xmlns:sodipodi="http://sodipodi.sourceforge.net/DTD/sodipodi-0.dtd"
   xmlns:inkscape="http://www.inkscape.org/namespaces/inkscape"
   version="1.1"
   id="Layer_1"
   x="0px"
   y="0px"
   width="16.492296"
   height="20.946047"
   viewBox="0 0 16.492296 20.946046"
   enable-background="new 0 0 16.492 20.947"
   xml:space="preserve"
   inkscape:version="0.91 r13725"
   sodipodi:docname="phone2.svg"><metadata
     id="metadata15"><rdf:RDF><cc:Work
         rdf:about=""><dc:format>image/svg+xml</dc:format><dc:type
           rdf:resource="http://purl.org/dc/dcmitype/StillImage" /><dc:title></dc:title></cc:Work></rdf:RDF></metadata><defs
     id="defs13" /><sodipodi:namedview
     pagecolor="#ffffff"
     bordercolor="#666666"
     borderopacity="1"
     objecttolerance="10"
     gridtolerance="10"
     guidetolerance="10"
     inkscape:pageopacity="0"
     inkscape:pageshadow="2"
     inkscape:window-width="640"
     inkscape:window-height="480"
     id="namedview11"
     showgrid="false"
     fit-margin-top="0"
     fit-margin-left="0"
     fit-margin-right="0"
     fit-margin-bottom="0"
     inkscape:zoom="11.26653"
     inkscape:cx="8.2460544"
     inkscape:cy="10.47325"
     inkscape:window-x="0"
     inkscape:window-y="0"
     inkscape:window-maximized="0"
     inkscape:current-layer="Layer_1" /><g
     id="g3"
     transform="translate(5.4123968e-5,-7.0313921e-4)"><g
       id="g5"><path
         d="M 7.858,17.102 C 6.335,15.975 4.84,14.425 3.53,12.621 1.832,10.278 0.647,7.777 0.196,5.579 -0.002,4.606 -0.052,3.716 0.055,2.999 0.168,2.239 0.453,1.672 0.887,1.356 1.002,1.273 1.121,1.183 1.246,1.086 1.952,0.544 2.834,-0.131 3.807,0.023 4.524,0.137 5.151,0.673 5.712,1.658 6.434,2.928 6.661,3.819 6.436,4.552 6.226,5.243 5.657,5.645 5.056,6.075 4.988,6.125 4.919,6.174 4.847,6.225 4.638,6.377 4.703,6.891 5.019,7.599 5.334,8.311 5.9,9.228 6.695,10.326 c 1.841,2.538 2.724,3.013 3.086,3.069 0.125,0.021 0.188,-0.012 0.231,-0.042 0.072,-0.049 0.142,-0.102 0.21,-0.149 0.663,-0.489 1.289,-0.949 2.133,-0.814 0.678,0.107 1.398,0.605 2.27,1.563 0.736,0.813 1.051,1.548 0.97,2.244 -0.116,1.017 -1.058,1.662 -1.813,2.182 -0.131,0.092 -0.258,0.178 -0.372,0.261 -0.421,0.307 -1.034,0.406 -1.771,0.289 -1.096,-0.174 -2.441,-0.822 -3.781,-1.827 z"
         id="path7"
         inkscape:connector-curvature="0"
         style="fill:#00bea4" /></g><path
       d="m 15.712,20.623 c -0.261,-1.595 -1.768,-2.657 -1.781,-2.667 l 0,0 c -0.176,-0.126 -0.22,-0.37 -0.098,-0.546 0.122,-0.181 0.366,-0.224 0.546,-0.103 0.07,0.053 1.792,1.26 2.108,3.188 0.035,0.212 -0.109,0.415 -0.321,0.447 -0.043,0.006 -0.084,0.007 -0.125,-0.001 -0.161,-0.024 -0.295,-0.15 -0.329,-0.318 z"
       id="path9"
       inkscape:connector-curvature="0"
       style="fill:#00bea4" /></g></svg>