<?xml version="1.0" encoding="UTF-8" standalone="no"?>
<!-- Generator: Adobe Illustrator 16.0.0, SVG Export Plug-In . SVG Version: 6.00 Build 0)  -->

<svg
   xmlns:dc="http://purl.org/dc/elements/1.1/"
   xmlns:cc="http://creativecommons.org/ns#"
   xmlns:rdf="http://www.w3.org/1999/02/22-rdf-syntax-ns#"
   xmlns:svg="http://www.w3.org/2000/svg"
   xmlns="http://www.w3.org/2000/svg"
   xmlns:sodipodi="http://sodipodi.sourceforge.net/DTD/sodipodi-0.dtd"
   xmlns:inkscape="http://www.inkscape.org/namespaces/inkscape"
   version="1.1"
   id="Layer_1"
   x="0px"
   y="0px"
   width="1175.495"
   height="313.95941"
   viewBox="0 0 1175.495 313.95941"
   enable-background="new 0 0 1175.495 313.961"
   xml:space="preserve"
   inkscape:version="0.91 r13725"
   sodipodi:docname="portfolio_header.svg"><metadata
     id="metadata27"><rdf:RDF><cc:Work
         rdf:about=""><dc:format>image/svg+xml</dc:format><dc:type
           rdf:resource="http://purl.org/dc/dcmitype/StillImage" /><dc:title></dc:title></cc:Work></rdf:RDF></metadata><defs
     id="defs25" /><sodipodi:namedview
     pagecolor="#ffffff"
     bordercolor="#666666"
     borderopacity="1"
     objecttolerance="10"
     gridtolerance="10"
     guidetolerance="10"
     inkscape:pageopacity="0"
     inkscape:pageshadow="2"
     inkscape:window-width="640"
     inkscape:window-height="480"
     id="namedview23"
     showgrid="false"
     fit-margin-top="0"
     fit-margin-left="0"
     fit-margin-right="0"
     fit-margin-bottom="0"
     inkscape:zoom="0.32326807"
     inkscape:cx="587.7475"
     inkscape:cy="156.9795"
     inkscape:window-x="0"
     inkscape:window-y="0"
     inkscape:window-maximized="0"
     inkscape:current-layer="Layer_1" /><g
     id="g3"
     transform="translate(0,-5.9459459e-4)"><path
       d="m 188.27,83.146 c 0,-1.56 -1.9,6.59 -5.695,24.455 -0.225,0.225 -0.785,0.895 -1.675,2.01 l 0.335,0.67 c -0.45,0.45 -0.895,1.565 -1.34,3.35 -0.45,0.895 -1.34,1.79 -2.68,2.68 l -9.38,14.07 c -2.46,3.575 -3.685,6.03 -3.685,7.37 -2.46,2.01 -6.145,4.915 -11.055,8.71 -13.4,8.04 -26.02,15.19 -37.855,21.44 -6.7,3.35 -12.285,4.69 -16.75,4.02 -0.45,0 -0.728,-0.167 -0.837,-0.502 -0.115,-0.335 -0.393,-0.502 -0.837,-0.502 -0.895,-0.22 -2.57,0 -5.025,0.67 -2.46,0.67 -4.245,1.005 -5.36,1.005 0.22,-0.89 0.335,-0.78 0.335,0.335 L 85.76,183.98 c -0.895,7.37 -2.125,12.563 -3.685,15.578 -1.565,3.015 -4.245,10.667 -8.04,22.948 0.22,0.895 0.22,2.01 0,3.35 -5.36,12.51 -7.93,18.315 -7.705,17.42 -0.45,4.245 -0.225,7.37 0.67,9.38 0,0.895 0.22,1.455 0.67,1.675 -0.45,0.225 -0.67,0.56 -0.67,1.005 -0.67,1.12 -0.56,2.68 0.335,4.69 -0.225,0.225 -0.335,0.67 -0.335,1.34 0.445,0.895 1.005,2.125 1.675,3.686 0.22,0.449 0.11,1.229 -0.335,2.344 0.67,0.67 1.56,1.225 2.68,1.676 0.67,-0.225 1.005,-0.67 1.005,-1.34 0,-1.561 -0.67,-5.58 -2.01,-12.061 -0.225,-0.22 -0.67,-0.89 -1.34,-2.01 0,-0.445 0.555,-0.89 1.675,-1.34 l -0.335,-0.67 -1.005,-1.005 c -0.225,0.225 -0.335,0.45 -0.335,0.67 0.445,-4.69 2.345,-10.83 5.695,-18.425 0,-1.56 -0.67,3.35 -2.01,14.74 -0.67,8.265 0,15.19 2.01,20.77 0.445,-0.451 1.56,-1.791 3.35,-4.02 0.445,2.68 0.67,4.354 0.67,5.023 l -1.005,10.387 c -2.01,0.67 -3.575,0.889 -4.69,0.67 -0.67,0 -1.23,-0.115 -1.675,-0.336 -1.565,-2.01 -2.46,-3.686 -2.68,-5.025 l 1.005,-5.025 -1.675,-3.35 c -0.225,0.445 -0.45,1.115 -0.67,2.01 l -1.005,0.336 c -1.121,0.445 -1.121,0.779 0,1.004 -0.45,0 -0.785,-0.334 -1.005,-1.004 -1.12,0.891 -1.675,1.676 -1.675,2.346 -0.225,1.113 0.052,3.459 0.837,7.033 0.78,3.57 1.393,5.361 1.843,5.361 0.445,0 0.67,-0.115 0.67,-0.336 0,-0.225 0.22,-0.225 0.67,0 1.56,0 2.12,1.895 1.675,5.695 0,1.115 0.167,2.957 0.502,5.527 0.335,2.564 0.388,4.408 0.167,5.527 -0.225,1.34 -1.79,2.23 -4.69,2.68 -1.79,-0.225 -2.68,-1.34 -2.68,-3.35 0.22,-8.264 0.11,-14.186 -0.335,-17.754 -0.225,0 -0.67,-0.451 -1.34,-1.34 -0.67,1.113 -1.79,2.789 -3.35,5.023 0.445,-0.225 0.67,-0.895 0.67,-2.01 l -1.34,-1.34 c -0.67,-0.67 -1.565,-1.789 -2.68,-3.35 -0.225,0.221 -0.45,0.555 -0.67,1.006 0.22,0.219 0.11,1.113 -0.335,2.68 0,-0.227 0,-0.561 0,-1.006 -0.45,2.01 -2.01,4.801 -4.69,8.375 l -2.345,-0.334 c -0.45,0 -0.67,-0.451 -0.67,-1.34 0.22,-0.451 0.78,-1.342 1.675,-2.682 0.89,-1.34 1.34,-2.234 1.34,-2.68 0.22,-1.789 0.11,-3.465 -0.335,-5.025 -1.34,0.891 -1.9,1.342 -1.675,1.342 -0.45,0 -0.67,-0.115 -0.67,-0.336 l -0.335,0 c -0.225,0.221 -0.56,0.891 -1.005,2.01 l -2.01,0 c -0.67,-0.225 -2.345,-1.9 -5.025,-5.025 -0.45,0 -0.728,0.168 -0.838,0.504 -0.115,0.334 -0.393,0.387 -0.837,0.166 -2.68,-0.225 -4.245,-1.455 -4.69,-3.684 -0.225,-0.896 -0.335,-3.801 -0.335,-8.711 -0.225,-3.57 -1.12,-5.915 -2.68,-7.035 l 5.36,-43.215 c 0.445,0.225 1.005,0.56 1.675,1.005 l 0.335,-0.335 0.335,-1.34 -2.68,-4.02 1.34,0 c 0,-1.115 0.22,-2.68 0.67,-4.69 0,0.895 0.11,1.565 0.335,2.01 1.115,-0.89 2.12,-4.465 3.015,-10.72 -0.225,0.225 -0.785,0.225 -1.675,0 l 0.335,-3.685 2.01,0 c 1.34,0.225 2.23,-1.45 2.68,-5.025 l 0.335,-2.68 c -0.225,0 -0.56,-0.22 -1.005,-0.67 -0.225,0 -0.335,0.115 -0.335,0.335 0,0.225 0,0.56 0,1.005 l 0,-0.67 -1.004,0 c -0.45,0 -0.67,0.167 -0.67,0.503 0,0.335 -0.225,0.502 -0.67,0.502 -0.225,0 -0.283,-0.11 -0.167,-0.335 0.11,-0.22 -0.058,-0.335 -0.502,-0.335 l -1.34,-0.335 c -0.67,-0.22 -1.23,-0.335 -1.675,-0.335 -1.565,-0.22 -3.015,-0.11 -4.355,0.335 -9.16,-0.445 -14.295,-1.115 -15.41,-2.01 1.34,-0.67 5.47,-1.115 12.395,-1.34 0.22,-0.89 0.67,-2.12 1.34,-3.685 0,-0.22 0.837,-0.723 2.512,-1.508 1.675,-0.78 2.513,-1.617 2.513,-2.512 1.34,0.895 2.455,1.12 3.35,0.67 -0.45,-0.89 -1.791,-1.45 -4.02,-1.675 -1.12,-0.22 -1.675,0.225 -1.675,1.34 0.22,0.45 0.22,0.785 0,1.005 l -3.015,-0.335 c 0,-0.22 0.11,-0.555 0.335,-1.005 l 0,-1.005 c -0.45,-0.67 -1.005,-1.005 -1.675,-1.005 -0.45,0 -0.785,0.335 -1.005,1.005 -0.45,-1.56 -1.12,-3.57 -2.01,-6.03 0.89,-0.67 2.345,-1.895 4.355,-3.685 -0.225,-0.22 -0.67,-0.335 -1.34,-0.335 -0.45,0 -0.895,0.115 -1.34,0.335 -0.45,0.225 -0.895,0.335 -1.34,0.335 -4.02,0.45 -10.05,1.12 -18.09,2.01 l -1.005,0.67 c -0.67,0.45 -1.225,0.67 -1.675,0.67 L 0.671,165.888 0,165.221 l 0.335,-2.01 c 6.7,-2.9 15.52,-4.575 26.465,-5.025 l 0.335,-0.67 0,-1.005 c -0.225,-0.22 -1.23,-0.445 -3.015,-0.67 -0.225,0 -0.728,0.167 -1.508,0.502 -0.785,0.335 -1.288,0.393 -1.507,0.167 -1.12,0 -2.795,0 -5.025,0 l -2.68,0 -1.005,-1.675 c 0.895,-1.785 4.072,-3.235 9.547,-4.355 5.47,-1.115 8.652,-2.12 9.547,-3.015 4.69,-0.67 9.6,-1.34 14.74,-2.01 0.67,-0.67 1.005,-1.115 1.005,-1.34 0,-0.445 -0.335,-0.67 -1.005,-0.67 0.67,-0.445 1.56,-2.01 2.68,-4.69 -0.225,0.895 -0.225,2.235 0,4.02 0.445,0.225 0.89,0 1.34,-0.67 1.115,-2.68 1.785,-5.135 2.01,-7.37 0.22,-1.56 0.22,-2.565 0,-3.015 -1.34,0.895 -2.125,2.125 -2.345,3.685 -0.225,0 -0.67,-0.335 -1.34,-1.005 1.56,-2.229 2.68,-6.25 3.35,-12.06 0,-1.115 0.387,-2.565 1.172,-4.355 0.78,-1.785 1.283,-2.9 1.508,-3.35 -0.225,-0.445 -0.895,-1.34 -2.01,-2.68 1.115,-0.67 1.785,-1.56 2.01,-2.68 1.785,-5.36 3.35,-10.27 4.69,-14.74 l 1.34,-3.015 0.335,-2.345 c -0.45,0 -1.172,0.115 -2.177,0.335 -1.005,0.225 -1.732,0.335 -2.178,0.335 l -7.37,-0.67 c -1.121,-0.67 -1.34,-1.895 -0.67,-3.685 0.22,-0.67 0.555,-1.675 1.005,-3.015 -0.45,-0.89 -0.785,-1.34 -1.005,-1.34 -0.895,0 -2.067,0.225 -3.517,0.67 -1.456,0.45 -2.403,0.56 -2.848,0.335 -2.235,-0.22 -4.58,-1.005 -7.035,-2.345 -2.905,-1.56 -4.245,-3.35 -4.02,-5.36 -0.225,0.895 1.34,-1.34 4.69,-6.7 0.67,0 1.56,-0.11 2.68,-0.335 0.22,-0.445 -0.225,-1.115 -1.34,-2.01 l -2.01,1.675 c 0,-0.22 0,-0.67 0,-1.34 l 0.67,0 c 0.445,0 0.67,-0.22 0.67,-0.67 l -1.34,-1.675 c -0.67,-1.115 -0.895,-2.455 -0.67,-4.02 1.56,0 2.345,0.115 2.345,0.335 -0.225,-0.445 0.11,-0.67 1.005,-0.67 0.89,0 1.45,-0.335 1.675,-1.005 -0.67,0.225 -2.235,-0.22 -4.69,-1.34 -0.895,0.895 -2.57,1.9 -5.025,3.015 -1.79,-1.34 -2.235,-1.895 -1.34,-1.675 1.115,0 -1.005,0.335 -6.365,1.005 -0.895,-1.34 -1.34,-1.895 -1.34,-1.675 3.125,-3.125 5.805,-4.575 8.04,-4.355 -0.67,-0.22 0.78,0.115 4.355,1.005 l 2.01,2.345 c 0.445,-0.445 1.005,-0.89 1.675,-1.34 l 0.67,-5.695 c -0.225,-0.22 -0.785,-0.445 -1.675,-0.67 l 2.01,0 c 0.22,-0.22 0.22,-0.67 0,-1.34 0.67,-0.445 1.005,-0.89 1.005,-1.34 0,-0.445 -0.335,-0.89 -1.005,-1.34 0.67,-0.22 1.225,-0.335 1.675,-0.335 -0.67,0 0.445,0.785 3.35,2.345 0,0.225 -0.45,0.67 -1.34,1.34 0.67,1.12 1.45,1.675 2.345,1.675 -0.225,0.45 -0.115,1.12 0.335,2.01 0.67,-0.22 1.56,-1.005 2.68,-2.345 l 0.67,-6.03 4.02,0.67 c 0.445,0 1.005,0.115 1.675,0.335 l 0.67,0.335 c 0.67,-0.22 0.89,-0.78 0.67,-1.675 l 2.345,-2.68 c 0.22,-0.67 0.11,-1.005 -0.335,-1.005 0.67,-1.56 1.005,-2.9 1.005,-4.02 2.455,-0.445 5.58,-1.675 9.38,-3.685 2.9,-2.23 7.37,-4.13 13.4,-5.695 0,-0.67 -1.23,-1.45 -3.685,-2.345 0.67,0.225 1.785,0.225 3.35,0 0.67,-0.22 1.225,-0.555 1.675,-1.005 0.89,0 2.12,0.335 3.685,1.005 -1.12,-0.445 -2.795,0.115 -5.025,1.675 l 0.67,0.67 1.005,0 c 1.56,0.225 3.125,-0.335 4.69,-1.675 l 0.335,-1.34 c 1.115,1.565 1.785,2.345 2.01,2.345 0.89,0.225 2.23,0.225 4.02,0 1.785,-0.22 3.183,-0.277 4.188,-0.167 1.005,0.115 2.455,0 4.355,-0.335 1.895,-0.335 3.292,-0.502 4.188,-0.502 0.445,0 1.005,0.225 1.675,0.67 0.67,0.45 1.225,0.67 1.675,0.67 0.67,0.225 1.785,0.225 3.35,0 l 3.685,0.67 c 1.115,0 2.847,0 5.192,0 2.345,0 4.072,0.115 5.192,0.335 2.9,0.225 8.04,1.397 15.41,3.518 7.37,2.125 11.61,3.852 12.73,5.192 -1.12,-0.67 -2.57,-1.45 -4.355,-2.345 -0.895,0.67 -1.34,1.23 -1.34,1.675 4.69,1.565 7.37,2.68 8.04,3.35 2.9,1.565 5.805,4.245 8.71,8.04 l 5.695,-2.345 c 1.34,0.225 3.235,1.565 5.695,4.02 5.58,5.81 8.82,13.515 9.715,23.115 0.891,7.595 1.341,11.725 1.341,12.395 z m -171.185,65.66 -0.335,-0.67 -1.005,1.34 0.67,0.335 0.67,-1.005 z m 4.69,-1.005 c -1.565,0.225 -2.46,0.335 -2.68,0.335 0.22,0.67 0.555,1.12 1.005,1.34 1.34,0 2.01,-0.22 2.01,-0.67 0.22,-0.22 0.11,-0.555 -0.335,-1.005 z m 6.03,-134.67 c -0.225,2.01 -1.34,2.905 -3.35,2.68 -1.565,-0.22 -2.795,-0.89 -3.685,-2.01 l 0,-2.345 4.355,-1.675 c 2.01,0.225 2.9,1.34 2.68,3.35 z m 1.675,33.5 c -2.46,3.575 -4.135,5.25 -5.025,5.025 -2.46,-0.22 -3.575,-1.34 -3.35,-3.35 0,-0.67 0.67,-1.45 2.01,-2.345 1.34,-0.89 2.345,-1.225 3.015,-1.005 0.445,0 1.005,0.283 1.675,0.837 0.67,0.56 1.225,0.838 1.675,0.838 z m 1.005,180.9 -1.005,0 -1.005,2.68 1.005,0 1.005,-2.68 z m 0.67,-82.745 -1.34,0 0,-0.67 1.34,0 0,0.67 z m 3.015,-0.67 c -0.225,0 -0.56,0.058 -1.005,0.167 -0.45,0.115 -0.785,0.167 -1.005,0.167 0.22,0.225 0.67,0.56 1.34,1.005 0.22,-0.219 0.445,-0.669 0.67,-1.339 z m -1.005,-81.741 -0.67,0 0,-1.675 0.67,0 0,1.675 z m 4.69,-19.429 -1.675,1.34 -3.015,-0.335 c 1.115,-0.89 2.229,-1.56 3.35,-2.01 -0.67,0.67 -0.225,1.005 1.34,1.005 z M 36.85,197.045 c -0.225,-0.89 -0.67,0.45 -1.34,4.02 -0.45,-1.56 -0.895,-2.12 -1.34,-1.675 0.67,-0.669 1.56,-1.449 2.68,-2.345 z m -2.01,21.776 -0.67,0 0,-2.01 0.67,0 0,2.01 z m 3.015,-74.37 -2.01,-0.335 0,-0.67 2.01,0.335 0,0.67 z m 13.4,39.529 c 0,0.895 -0.225,2.293 -0.67,4.188 -0.45,1.9 -0.785,3.298 -1.005,4.188 -0.45,-2.229 -0.335,-4.24 0.335,-6.03 0,-0.22 -0.225,-0.445 -0.67,-0.67 -1.565,8.265 -2.235,13.065 -2.01,14.405 0.445,-0.22 0.67,-0.555 0.67,-1.005 0,0.895 -0.56,2.125 -1.675,3.685 0,0.67 0.335,1.005 1.005,1.005 -0.895,4.47 -2.235,10.5 -4.02,18.09 -0.225,1.791 -0.67,4.69 -1.34,8.71 0,-0.22 -0.225,-0.78 -0.67,-1.675 0,1.12 0,2.345 0,3.685 0.22,1.79 -0.115,3.8 -1.005,6.03 l -1.675,0 c 0.445,-1.56 0.22,-2.79 -0.67,-3.685 0.445,0 0.78,0.225 1.005,0.67 0.22,-0.445 0.445,-1.56 0.67,-3.35 l -1.675,1.005 2.01,-4.02 c 0,-1.115 -0.335,-2.455 -1.005,-4.02 0,-0.445 0.22,-1.005 0.67,-1.675 0.22,-0.89 0.335,-2.345 0.335,-4.355 0.22,0 0.11,-0.22 -0.335,-0.67 -0.225,0.67 -0.67,1.455 -1.34,2.345 l 1.675,-15.41 c 0.22,0 0.445,-0.22 0.67,-0.67 0,-1.115 0.11,-3.015 0.335,-5.695 0.445,-0.445 1.005,-1.115 1.675,-2.01 0.22,-0.89 0,-1.34 -0.67,-1.34 l 1.005,-9.045 c 1.115,-0.22 2.01,-1.115 2.68,-2.68 3.35,0.45 5.245,0.45 5.695,-0.001 z m -11.725,58.625 0.335,-3.35 -1.005,0 -0.335,3.35 1.005,0 z m 0.335,2.011 -0.67,-0.335 -0.67,1.34 0.335,0.335 1.005,-1.34 z m 5.025,-176.88 0.335,-2.345 c -0.896,0.45 -2.235,0.895 -4.02,1.34 l 0,2.01 c 1.115,0.67 2.01,1.12 2.68,1.34 0.445,-0.445 0.78,-1.225 1.005,-2.345 z m -1.675,152.425 -1.005,0 -1.005,2.01 1.005,0.335 1.005,-2.345 z m 0,-181.57 -0.335,2.01 -1.005,-0.335 0.67,-1.675 0.67,0 z m 0,179.224 -1.005,0 0.335,-1.34 1.005,0 -0.335,1.34 z M 55.61,33.9 c -1.34,0.896 -3.575,2.345 -6.7,4.355 l 0,2.01 c 0.67,-0.22 1.225,-0.335 1.675,-0.335 0.445,0 0.67,0.225 0.67,0.67 -1.12,0 -2.125,-0.22 -3.015,-0.67 -0.45,0.45 -1.12,1.565 -2.01,3.35 -2.01,-0.89 -2.795,-2.12 -2.345,-3.685 L 44.22,35.24 c 0,0.45 0.335,0.785 1.005,1.005 0.67,0 2.229,-0.67 4.69,-2.01 -0.225,0 -0.45,0.225 -0.67,0.67 -0.225,0.45 0,0.67 0.67,0.67 0.67,-0.22 2.12,-1.115 4.355,-2.68 0.22,10e-4 0.67,0.335 1.34,1.005 z m -9.045,38.191 c 0.445,-0.67 0.67,-1.34 0.67,-2.01 0.22,-0.89 -0.115,-1.895 -1.005,-3.015 -0.895,0 -1.34,0.785 -1.34,2.345 -0.225,0.45 -0.115,1.005 0.335,1.675 0.445,0.67 0.67,1.12 0.67,1.34 0,-1.785 0.22,-3.125 0.67,-4.02 0.445,0.895 0.445,2.125 0,3.685 z m 0.335,-10.05 0.335,-4.355 c -1.34,0.895 -2.125,1.9 -2.345,3.015 l 0,1.675 c 0.22,0 0.555,-0.11 1.005,-0.335 0.445,-0.22 0.78,-0.22 1.005,0 z m -0.67,116.915 -0.67,-0.67 -0.335,0.335 0.335,0.67 0.67,-0.335 z M 62.645,10.451 c 0,1.565 -1.34,2.737 -4.02,3.518 -2.68,0.785 -4.915,1.063 -6.7,0.837 -4.47,-0.445 -6.48,-3.125 -6.03,-8.04 0.445,-3.57 1.895,-5.135 4.355,-4.69 0.445,0 0.67,0.115 0.67,0.335 l 1.005,0 c 0.22,0 0.837,-0.445 1.843,-1.34 1.005,-0.89 2.062,-1.225 3.182,-1.005 2.23,0.225 3.795,1.456 4.69,3.685 -0.225,0.45 -0.335,1.12 -0.335,2.01 0.89,3.8 1.34,5.36 1.34,4.69 z m -13.4,173.529 0,-1.005 -2.68,-0.335 0,1.005 2.68,0.335 z m -1.005,-48.909 0.335,-1.34 -1.005,0 -0.335,1.34 1.005,0 z m 1.34,2.679 -1.005,-0.335 0.335,-1.34 1.005,0.335 -0.335,1.34 z m -0.335,56.281 -0.67,0 0,-2.01 0.67,0 0,2.01 z m 4.02,-62.98 0,-3.015 c -1.565,2.01 -2.235,2.905 -2.01,2.68 l 2.01,0.335 z M 54.27,41.94 c -0.45,0.225 -0.67,0.785 -0.67,1.675 -1.34,-1.56 -2.125,-2.23 -2.345,-2.01 l 3.015,0.335 z m 8.375,79.73 c -0.225,0 -0.785,0.335 -1.675,1.005 l 0.67,-6.365 c -0.45,1.565 -1.23,3.35 -2.345,5.36 0,-0.22 0,-0.78 0,-1.675 -0.67,3.13 -2.01,8.825 -4.02,17.085 -0.45,1.12 -1.23,3.575 -2.345,7.37 0.22,-0.22 0.78,-0.445 1.675,-0.67 l 0,-1.005 C 54.38,142.33 54.27,141.995 54.27,141.77 l 2.68,0.335 1.34,-1.005 0.335,-3.015 c -0.225,0 -0.56,0.115 -1.005,0.335 l -0.67,0.67 c -0.67,-0.67 -0.895,-1.225 -0.67,-1.675 l -0.335,0.335 c 0,0.225 0.22,0.335 0.67,0.335 0.445,0 0.613,-0.167 0.502,-0.502 -0.115,-0.335 0.053,-0.502 0.503,-0.502 l 1.675,0.67 0.67,-8.375 c 0.22,-2.455 1.115,-5.025 2.68,-7.706 z m -7.37,0 0.335,-0.67 c -1.12,-0.445 -1.675,-0.555 -1.675,-0.335 0,0.67 0.445,1.005 1.34,1.005 z m 1.005,-4.02 -1.675,1.34 0,-0.67 1.34,-1.34 0.335,0.67 z M 56.95,9.781 57.285,8.776 54.94,7.771 l 0,1.005 2.01,1.005 z m 3.015,270.68 C 59.295,278.67 58.51,277.33 57.62,276.44 l 0.335,-3.014 c 0.445,0.67 1.225,1.004 2.345,1.004 -0.225,1.785 -0.335,3.234 -0.335,4.355 l 0,1.676 z m 0,-176.211 c 0,-1.115 -0.225,-1.675 -0.67,-1.675 -0.225,0 -0.67,0.225 -1.34,0.67 0.67,0.671 1.34,1.005 2.01,1.005 z m 1.34,34.17 -0.67,2.345 -0.67,0 0.335,-2.345 1.005,0 z m 5.36,126.295 c 0.445,0 0.67,0.226 0.67,0.67 -0.225,0.67 -0.56,1.34 -1.005,2.01 0.22,-0.895 0.22,-1.34 0,-1.34 -0.225,0 -0.56,0.115 -1.005,0.336 0.22,-1.115 0.67,-1.676 1.34,-1.676 z m 12.06,-67.67 c -0.45,-0.67 -1.005,-1.005 -1.675,-1.005 l 0.67,-6.7 c 0.22,-2.455 0.335,-4.355 0.335,-5.695 0.445,-1.115 0.555,-1.115 0.335,0 -0.896,0.895 -1.565,2.905 -2.01,6.03 l -3.35,16.415 c -1.12,2.68 -1.675,4.69 -1.675,6.03 0.22,0 0.445,0.115 0.67,0.335 -0.45,0.67 -2.01,6.145 -4.69,16.415 -0.225,0.45 -0.45,0.67 -0.67,0.67 0,0.45 0.22,1.34 0.67,2.68 0.67,-2.01 1.895,-5.025 3.685,-9.045 l -1.005,0.335 -0.67,-0.67 c 1.56,-0.445 2.455,-1.225 2.68,-2.345 0,-0.445 -0.225,-1.005 -0.67,-1.675 -0.45,0 0.335,-0.78 2.345,-2.345 -0.45,0 -1.005,-0.335 -1.675,-1.005 0.89,-0.67 1.34,-1.225 1.34,-1.675 -0.225,0 -0.56,-0.11 -1.005,-0.335 1.56,-0.22 2.345,-1.225 2.345,-3.015 -0.225,0.225 -0.56,0.225 -1.005,0 -0.225,0 -0.335,-0.11 -0.335,-0.335 0,-0.445 0.22,-1.115 0.67,-2.01 0.445,-0.89 0.67,-1.56 0.67,-2.01 l 2.345,0 1.005,-7.37 -2.01,1.34 c 0,-0.67 0.445,-1.225 1.34,-1.675 -1.12,0 -1.675,-0.335 -1.675,-1.005 0.67,-0.444 1.675,-0.554 3.015,-0.335 z M 75.71,22.176 l -2.01,0.335 0,-0.67 1.675,-0.335 0.335,0.67 z m 0,181.905 -0.67,-0.335 -0.67,1.005 0.67,0.67 0.67,-1.34 z m 1.675,-2.681 -1.005,1.34 -0.335,-0.335 0.67,-1.34 0.67,0.335 z m 1.675,-19.429 -0.67,-0.335 -0.67,1.675 0.335,0.335 1.005,-1.675 z m 5.025,1.675 1.005,-10.05 -2.345,-0.335 -1.34,1.005 -2.345,-0.335 0,2.345 c 1.115,-0.22 1.895,-0.78 2.345,-1.675 0.445,1.12 0.555,2.01 0.335,2.68 0,0.45 -0.225,0.785 -0.67,1.005 0,3.35 -0.785,6.815 -2.345,10.385 0,1.34 0.22,3.015 0.67,5.025 0.445,-2.455 2.01,-5.805 4.69,-10.05 z m 55.945,-37.855 c -0.895,1.34 -3.743,3.465 -8.542,6.365 -4.805,2.905 -7.652,5.475 -8.542,7.705 -0.895,-0.22 -1.565,-0.22 -2.01,0 -0.225,1.12 -1.34,2.01 -3.35,2.68 l -5.025,1.675 -18.76,5.025 c 0,-0.67 -0.45,-1.45 -1.34,-2.345 -1.565,1.565 -2.905,2.345 -4.02,2.345 -2.235,0 -3.575,0.115 -4.02,0.335 0.67,1.12 1.115,1.565 1.34,1.34 l -1.675,0.335 -2.01,-0.335 0,-3.685 c 0.445,-0.22 8.26,-2.229 23.45,-6.03 0.445,-0.22 0.445,-0.67 0,-1.34 8.485,-1.34 17.53,-5.025 27.135,-11.055 -0.225,-0.445 -0.115,-0.89 0.335,-1.34 0.22,0 0.67,-0.22 1.34,-0.67 -0.895,-0.445 -2.01,-0.78 -3.35,-1.005 -0.45,0.225 -1.455,0.56 -3.015,1.005 0.22,0.225 0.89,0.45 2.01,0.67 -0.225,1.34 -0.895,1.9 -2.01,1.675 -0.45,0 -0.618,-0.11 -0.502,-0.335 0.11,-0.22 -0.058,-0.335 -0.502,-0.335 -0.895,0 -4.355,0.953 -10.385,2.848 -6.03,1.9 -9.94,2.737 -11.725,2.512 2.01,-0.445 3.905,-0.89 5.695,-1.34 1.56,-1.34 3.46,-2.345 5.695,-3.015 1.115,-0.22 2.455,-0.445 4.02,-0.67 2.899,-1.56 7.705,-4.02 14.405,-7.37 0.67,0 1.115,0.67 1.34,2.01 1.115,-0.67 2.23,-0.67 3.35,0 l -2.01,1.34 -4.02,-0.335 -1.005,1.005 c 0.67,0 1.56,-0.11 2.68,-0.335 l 5.023,0.67 z m -51.925,13.064 -0.335,-0.67 -2.01,1.005 0.335,0.67 2.01,-1.005 z m 62.31,-72.359 c -0.45,-1.115 -0.895,-3.235 -1.34,-6.365 -0.45,-1.785 -3.13,-5.695 -8.04,-11.725 -1.12,0 -3.13,-0.89 -6.03,-2.68 0.22,0.45 -0.45,0.895 -2.01,1.34 0.22,-0.22 -0.335,-0.445 -1.675,-0.67 -0.225,-0.22 -0.45,0.335 -0.67,1.675 0.22,0.45 0.555,0.67 1.005,0.67 1.34,-0.22 3.235,1.005 5.695,3.685 -1.12,-0.22 -3.24,-0.78 -6.365,-1.675 -1.34,-1.56 -2.345,-2.345 -3.015,-2.345 -0.225,0 -0.45,0.115 -0.67,0.335 0.89,0.45 1.675,1.23 2.345,2.345 -1.34,0 -2.795,-0.445 -4.355,-1.34 -1.565,-0.89 -2.57,-1.34 -3.015,-1.34 -0.45,0 -1.34,0.115 -2.68,0.335 l -2.68,1.005 c -0.67,0.225 -1.455,0.67 -2.345,1.34 -1.565,-0.22 -3.685,-0.335 -6.365,-0.335 -0.45,0.895 -2.235,2.235 -5.36,4.02 l -1.005,7.37 c -0.67,3.13 -2.01,7.595 -4.02,13.4 0.22,0.225 0.555,0.225 1.005,0 0.67,-0.22 1.115,-0.22 1.34,0 -0.225,0.67 -0.785,2.01 -1.675,4.02 -0.225,-0.445 -0.335,-0.89 -0.335,-1.34 0,0.225 -0.283,0.67 -0.837,1.34 -0.56,0.67 -0.837,1.23 -0.837,1.675 l -0.335,1.005 0.335,0.67 0.335,0 c 0.22,-0.22 0.555,-0.335 1.005,-0.335 0.22,0 0.335,0.335 0.335,1.005 -1.79,0.45 -2.795,2.01 -3.015,4.69 0,-0.22 0.11,-0.335 0.335,-0.335 l 0,0.335 c -0.896,3.13 -1.34,4.135 -1.34,3.015 0.22,0 0.555,0.115 1.005,0.335 l -1.34,0.67 c -2.235,10.72 -3.575,18.54 -4.02,23.45 0.22,0 0.335,0.115 0.335,0.335 -0.45,0.225 -0.45,0.45 0,0.67 0.67,0.45 1.005,0.785 1.005,1.005 l -1.34,1.005 3.35,0.335 c 8.26,-3.795 20.435,-9.825 36.515,-18.09 0.445,-0.445 1.34,-1.45 2.68,-3.015 -0.895,0.225 -2.125,0.67 -3.685,1.34 l -10.385,5.025 c -0.67,-0.22 -0.895,-0.335 -0.67,-0.335 l 1.34,-1.005 c 0.22,0.225 0.78,0.45 1.675,0.67 0,-0.22 -0.335,-0.78 -1.005,-1.675 0.445,-0.22 1.005,-0.22 1.675,0 -0.895,-1.34 -1.34,-1.895 -1.34,-1.675 3.795,-1.56 9.715,-5.58 17.755,-12.06 3.125,-3.125 6.365,-8.04 9.715,-14.74 0.444,-1.785 1.449,-4.13 3.014,-7.035 z m -36.85,75.375 -0.335,-0.335 c -0.45,-0.22 -0.895,-0.445 -1.34,-0.67 2.899,0.45 -2.68,2.01 -16.75,4.69 -1.121,0.67 -1.675,1.23 -1.675,1.675 1.115,-0.22 2.455,-0.555 4.02,-1.005 -0.67,0.225 -0.225,0.335 1.34,0.335 -0.67,0 -0.225,-0.335 1.34,-1.005 2.68,-0.445 7.145,-1.675 13.4,-3.685 z m -18.425,-4.02 -0.67,0.335 -0.67,-0.67 0.335,-0.67 1.005,1.005 z m 9.715,-3.351 c -4.245,2.01 -7.595,2.795 -10.05,2.345 4.69,-1.785 7.37,-2.68 8.04,-2.68 l 2.01,0.335 z m -5.695,-54.27 -1.005,-0.335 -0.335,1.34 0.335,0.335 1.005,-1.34 z m 17.755,25.46 -3.685,-0.335 c -0.895,1.12 -3.465,2.68 -7.705,4.69 -1.79,2.235 -3.8,3.24 -6.03,3.015 l 2.01,0.335 1.005,-1.005 c 4.91,-2.009 9.715,-4.239 14.405,-6.7 z m -14.07,-37.184 c -0.45,2.01 -1.34,3.91 -2.68,5.695 0,-0.67 0.22,-1.728 0.67,-3.183 0.445,-1.45 0.78,-2.512 1.005,-3.183 l 1.005,0.671 z m 18.76,69.345 -2.345,1.005 0,-0.67 2.345,-1.34 0,1.005 z m 9.045,-92.46 c -1.79,-0.22 -3.24,-0.555 -4.355,-1.005 l 3.35,2.01 c 0.67,0.225 1.005,-0.11 1.005,-1.005 z m 12.06,76.714 c 0.445,0.225 -0.56,0.225 -3.015,0 -0.45,0 -0.895,-0.445 -1.34,-1.34 l -1.005,1.005 c -0.45,0 -1.12,-0.555 -2.01,-1.675 l 3.35,-1.34 c 0.445,0.225 1.115,0.45 2.01,0.67 0.89,0.225 1.56,0.45 2.01,0.67 l 0,2.01 z m -1.005,-68.674 -1.675,-0.67 0,0.67 1.34,0.67 0.335,-0.67 z m 33.5,24.12 c -1.12,3.35 -2.795,7.93 -5.025,13.735 0,0.895 -0.785,2.235 -2.345,4.02 l -2.345,2.68 c -0.225,0.67 -0.895,1.79 -2.01,3.35 l 0.335,1.675 c -0.225,1.79 -1.34,3.575 -3.35,5.36 -0.225,0 -0.67,-0.335 -1.34,-1.005 l -1.34,-0.335 c -0.225,0.45 -0.67,1.005 -1.34,1.675 0,0.225 0.22,0.67 0.67,1.34 -0.225,0.45 -1.12,1.456 -2.68,3.015 l 0,-0.67 c -0.225,-0.22 -0.56,-0.335 -1.005,-0.335 -1.12,-0.22 -2.235,0.115 -3.35,1.005 0.67,0.67 1.675,1.12 3.015,1.34 -2.46,2.905 -5.695,5.476 -9.715,7.705 l 0,-2.01 c 0.67,-0.22 1.56,-0.555 2.68,-1.005 l -3.015,-0.335 c 5.36,-4.69 10.605,-10.16 15.745,-16.415 0.22,-0.67 0.89,-1.895 2.01,-3.685 l 3.35,-3.685 0.335,-2.345 c 1.785,-2.68 4.355,-6.81 7.705,-12.395 0,-1.34 0.11,-2.79 0.335,-4.355 0.445,-1.115 1.225,-1.56 2.345,-1.34 l 0.335,3.015 z"
       id="path5"
       inkscape:connector-curvature="0"
       style="fill:#fefefe" /><path
       d="m 323.606,164.216 c 0,4.02 -1.675,9.94 -5.025,17.755 -1.34,3.8 -3.24,9.83 -5.695,18.09 -2.68,2.905 -6.48,7.82 -11.39,14.74 l 1.675,-3.35 c 1.34,-2.455 1.785,-3.905 1.34,-4.355 -1.791,2.46 -4.245,6.48 -7.37,12.06 -1.34,1.12 -3.35,3.24 -6.03,6.365 -1.34,2.46 -3.24,6.03 -5.695,10.72 -5.81,8.265 -12.285,14.965 -19.43,20.1 -12.285,9.16 -20.435,13.734 -24.455,13.734 -0.67,0 -1.675,-0.225 -3.015,-0.67 -1.34,-0.449 -2.235,-0.67 -2.68,-0.67 -1.79,0 -4.303,0.389 -7.538,1.174 -3.24,0.779 -5.752,1.172 -7.537,1.172 -6.7,0 -13.851,-3.574 -21.44,-10.72 l -6.7,-1.34 c -0.225,0.67 -0.335,1.566 -0.335,2.68 0,1.12 0.11,2.46 0.335,4.021 -2.235,-2.9 -5.25,-6.701 -9.045,-11.391 -0.225,-1.115 -0.785,-3.125 -1.675,-6.03 -0.67,-0.445 -1.34,-0.89 -2.01,-1.34 -0.45,-2.9 -1.12,-7.37 -2.01,-13.4 1.115,-1.34 1.675,-2.345 1.675,-3.015 -2.235,-5.135 -3.685,-9.49 -4.355,-13.065 0.67,-0.67 0.67,-6.7 0,-18.09 2.01,-16.3 6.14,-32.38 12.395,-48.24 2.455,-6.919 7.255,-14.18 14.405,-21.775 7.59,-8.93 14.405,-14.07 20.435,-15.41 0.89,0 5.135,-1.785 12.73,-5.36 -15.41,6.255 -27.695,15.97 -36.85,29.145 -0.225,0.225 0,0.67 0.67,1.34 l 1.675,-1.34 c -2.905,3.13 -5.25,6.925 -7.035,11.39 l 1.34,0.67 c 6.92,-9.6 18.2,-19.765 33.835,-30.485 -0.67,0 -2.57,0.56 -5.695,1.675 14.29,-8.485 25.345,-12.615 33.165,-12.395 -0.225,0 -0.67,0.335 -1.34,1.005 0.67,0.45 1.45,0.67 2.345,0.67 1.115,0 2.79,-0.22 5.025,-0.67 2.229,-0.445 3.905,-0.67 5.025,-0.67 0.67,0 2.177,0.785 4.522,2.345 2.345,1.565 3.737,2.345 4.188,2.345 0.89,0 1.282,-0.168 1.172,-0.503 -0.115,-0.335 0.052,-0.502 0.502,-0.502 0.67,0.225 1.618,0.953 2.848,2.178 1.225,1.23 4.522,4.857 9.882,10.887 0.89,2.01 3.125,4.69 6.7,8.04 l 1.34,-1.34 c -1.565,-0.67 -2.177,-1.56 -1.842,-2.68 0.335,-1.115 0.052,-2.01 -0.837,-2.68 3.57,0 6.25,0.785 8.04,2.345 1.34,-1.56 2.01,-2.565 2.01,-3.015 0.89,2.46 2.68,5.025 5.36,7.705 1.56,1.791 3.905,7.485 7.035,17.085 0,0.896 0.11,2.345 0.335,4.355 0.445,0.895 1.45,1.79 3.015,2.68 1.341,2.01 2.01,4.02 2.01,6.03 z m -113.899,-35.51 -4.355,4.69 -0.335,-1.005 4.02,-4.02 0.67,0.335 z m 5.359,-3.351 -4.355,3.35 -0.335,-1.34 4.02,-3.015 0.67,1.005 z m 53.266,32.161 c -2.235,-3.35 -3.575,-5.915 -4.02,-7.705 -2.905,2.01 -7.595,5.81 -14.07,11.39 0.22,-1.34 1.115,-3.015 2.68,-5.025 -10.275,12.73 -17.755,26.915 -22.445,42.545 -0.895,-1.34 -1.455,-2.01 -1.675,-2.01 -1.565,0 -3.073,2.68 -4.523,8.04 -1.455,5.36 -2.177,9.16 -2.177,11.39 0,4.47 1.005,10.275 3.015,17.42 8.93,-2.455 17.53,-9.045 25.795,-19.765 8.26,-10.72 12.28,-20.435 12.06,-29.145 0.89,0.45 1.56,-0.22 2.01,-2.01 l 1.005,-2.345 c -1.79,-0.67 -3.685,-1.45 -5.695,-2.345 0.22,-1.115 0.335,-2.01 0.335,-2.68 0,-2.229 -3.575,-4.24 -10.72,-6.03 l 8.375,-0.335 c 1.115,0.45 2.68,1.455 4.69,3.015 0.22,-0.67 0.555,-1.45 1.005,-2.345 -1.34,0 -2.125,-0.11 -2.345,-0.335 1.115,-1.115 1.56,-2.01 1.34,-2.68 -0.895,-0.67 -2.125,-1.56 -3.685,-2.68 3.35,-1.115 5.58,-2.565 6.7,-4.355 -0.67,-0.89 -1.565,-1.895 -2.68,-3.015 0.67,0 1.56,0.167 2.68,0.502 1.115,0.335 1.894,0.503 2.345,0.503 z m -29.815,-48.911 -2.01,0 0,-1.34 2.01,0 0,1.34 z m 14.404,0.335 c -2.46,0.67 -7.485,2.345 -15.075,5.025 l 3.015,0 c 1.341,0.226 5.361,-1.449 12.06,-5.025 z m -10.049,-2.009 -2.01,0 0,-1.34 2.01,0 0,1.34 z m 14.739,72.025 -1.675,0 0,-1.34 1.675,0 0,1.34 z m 59.631,-54.94 -1.34,0 0,-3.016 1.34,0 0,3.016 z"
       id="path7"
       inkscape:connector-curvature="0"
       style="fill:#fefefe" /><path
       d="m 317.574,86.831 c 3.125,-1.34 5.58,-2.345 7.37,-3.015 0.22,2.68 0.335,4.47 0.335,5.36 -4.47,1.79 -6.365,2.68 -5.695,2.68 -0.225,0 -0.785,-0.335 -1.675,-1.005 l -0.335,-4.02 z m 8.71,81.74 0.335,-1.34 -0.335,-3.35 c 2.455,-5.805 4.69,-8.82 6.7,-9.045 1.56,0 3.015,1.005 4.355,3.015 0.445,1.34 1.115,2.57 2.01,3.685 0.445,-0.22 1.115,-0.335 2.01,-0.335 2.229,0 3.46,1.675 3.685,5.025 0.22,6.48 -1.565,9.715 -5.36,9.715 -0.225,0 -0.335,-0.11 -0.335,-0.335 l -0.67,0.335 c -1.12,0 -2.57,0.67 -4.355,2.01 -5.81,-4.24 -8.71,-6.81 -8.71,-7.705 0,-0.445 0.219,-1.005 0.67,-1.675 z m 7.035,72.025 -3.685,12.395 0.67,0.335 4.02,-12.73 -1.005,0 z m 127.97,-108.205 c -0.67,-2.68 -0.67,-4.24 0,-4.69 -1.79,-6.475 -3.13,-11.39 -4.02,-14.74 -3.13,-2.455 -5.14,-3.795 -6.03,-4.02 -0.67,1.565 -1.005,2.795 -1.005,3.685 l -0.67,0 c -1.79,-2.9 -3.24,-4.24 -4.355,-4.02 l -4.02,2.345 c -0.45,-0.67 -0.785,-1.115 -1.005,-1.34 -4.47,-2.68 -7.37,-3.905 -8.71,-3.685 -1.34,0 -5.36,3.24 -12.06,9.715 -1.12,0 -2.01,-0.445 -2.68,-1.34 0,1.12 -0.225,1.9 -0.67,2.345 l -2.01,0.335 c -0.45,0 -0.618,-0.167 -0.502,-0.502 0.11,-0.335 -0.058,-0.502 -0.502,-0.502 -1.12,0 -2.235,1.23 -3.35,3.685 l 0,3.015 c 0,1.12 -0.225,2.01 -0.67,2.68 2.01,-2.9 3.46,-5.025 4.355,-6.365 l 0.335,0.67 c -8.265,14.52 -14.965,25.575 -20.1,33.165 -0.225,-2.9 -0.225,-6.92 0,-12.06 -0.225,-0.22 -0.335,-0.445 -0.335,-0.67 0.67,-6.03 0.67,-11.055 0,-15.075 -0.225,0 -0.393,0.115 -0.502,0.335 -0.115,0.225 -0.393,0.335 -0.837,0.335 -0.895,0 -1.23,-1.34 -1.005,-4.02 l 0.67,-4.02 c -4.915,-5.36 -8.6,-7.37 -11.055,-6.03 4.465,2.235 6.585,4.02 6.365,5.36 1.785,0.45 2.79,1.9 3.015,4.355 0,0.895 -0.115,1.565 -0.335,2.01 -2.235,-4.465 -4.58,-7.035 -7.035,-7.705 0,0.225 0.11,0.56 0.335,1.005 0.22,0.45 0.335,0.785 0.335,1.005 l 1.005,-0.335 c 1.115,0 2.345,1.12 3.685,3.35 l -2.68,1.34 c -4.69,-5.135 -7.485,-7.815 -8.375,-8.04 0.445,-0.67 0.67,-1.45 0.67,-2.345 -3.8,2.46 -7.37,4.02 -10.72,4.69 -2.46,1.12 -4.245,1.9 -5.36,2.345 -0.225,0.895 -0.335,1.675 -0.335,2.345 -0.895,1.791 -2.125,3.13 -3.685,4.02 -2.01,-0.67 -3.575,-1.115 -4.69,-1.34 0,-0.22 -0.335,-0.11 -1.005,0.335 0.445,0 0.67,0.225 0.67,0.67 -1.12,3.13 -1.79,4.915 -2.01,5.36 0.22,-0.22 0.722,-0.445 1.507,-0.67 0.78,-0.22 1.283,-0.445 1.507,-0.67 0.22,0.225 0.22,0.45 0,0.67 -2.46,3.13 -3.685,5.025 -3.685,5.695 -1.791,0.895 -3.13,1.79 -4.02,2.68 l 1.34,-1.005 c 0.67,0.67 1.115,1.23 1.34,1.675 -0.225,0.45 -0.225,1.005 0,1.675 0.89,-2.455 1.56,-3.905 2.01,-4.355 0.445,0.895 0.335,1.675 -0.335,2.345 1.115,-0.22 1.56,0.785 1.34,3.015 1.56,6.925 2.455,10.835 2.68,11.725 0.22,1.34 -0.225,4.47 -1.34,9.38 0.22,-0.22 0.67,0.225 1.34,1.34 -1.791,9.831 -3.015,16.415 -3.685,19.765 -2.905,15.635 -5.025,25.46 -6.365,29.48 -2.46,6.925 -3.685,12.395 -3.685,16.415 0,0.225 -0.167,0.785 -0.502,1.675 -0.335,0.895 -0.502,1.565 -0.502,2.01 0,0.895 0.22,1.34 0.67,1.34 l 9.38,-29.145 -9.045,34.84 c 1.56,-5.36 2.79,-9.155 3.685,-11.39 0,0.45 -1.23,5.25 -3.685,14.405 0,-0.445 0.445,-0.78 1.34,-1.005 l -4.02,10.05 c -0.225,-1.34 0.052,-3.125 0.837,-5.36 0.78,-2.229 1.057,-3.57 0.837,-4.02 -1.565,5.585 -2.46,8.825 -2.68,9.715 0,-0.22 0.11,-0.445 0.335,-0.67 0.22,1.34 -1.121,6.815 -4.02,16.415 l -0.67,-1.004 c 0.22,3.57 -0.115,5.914 -1.005,7.035 1.115,-1.791 2.01,-3.131 2.68,-4.021 0.22,0.672 0.335,1.115 0.335,1.342 -0.225,-1.791 0.445,-4.137 2.01,-7.035 l 0.67,1.004 c 0,-0.219 0.11,-0.555 0.335,-1.004 0.22,1.34 0.052,2.898 -0.502,4.689 -0.561,1.785 -0.838,3.016 -0.838,3.686 0.89,-2.461 1.56,-4.137 2.01,-5.025 0.67,0.67 1.005,1.115 1.005,1.34 -1.12,2.9 -1.675,5.025 -1.675,6.365 2.68,-5.361 4.13,-8.266 4.355,-8.711 13.62,-35.955 20.435,-54.044 20.435,-54.27 4.24,-13.62 7.815,-26.35 10.72,-38.19 1.56,1.565 2.345,2.125 2.345,1.675 -7.82,29.48 -11.84,44.555 -12.06,45.225 -5.36,20.1 -11.17,36.18 -17.42,48.239 0.67,-0.449 1.005,-0.334 1.005,0.336 l 0,2.01 c 0.89,-2.904 2.12,-5.359 3.685,-7.369 0.445,0.225 0.555,0.449 0.335,0.67 -1.565,4.689 -2.905,7.59 -4.02,8.709 -3.13,6.25 -5.14,11.166 -6.03,14.74 1.34,-2.68 2.345,-4.58 3.015,-5.695 0.22,0 0.22,0.221 0,0.67 0,0.221 0.22,0.336 0.67,0.336 0.445,-0.225 2.455,-4.246 6.03,-12.061 5.58,-12.06 8.485,-18.31 8.71,-18.76 0.22,0.225 0.335,0.67 0.335,1.34 0.22,1.565 -2.345,8.155 -7.705,19.766 1.34,-1.791 2.565,-3.35 3.685,-4.691 0.22,-0.67 0.445,-0.895 0.67,-0.67 0.67,-0.449 1.225,-0.449 1.675,0 -2.01,5.135 -3.35,9.156 -4.02,12.061 2.455,-4.244 5.135,-9.939 8.04,-17.085 l -1.005,1.005 c 0,-0.67 0.67,-2.455 2.01,-5.36 0.445,0.45 0.67,0.786 0.67,1.005 0.445,-3.57 1.005,-6.14 1.675,-7.705 0.67,0.67 0.78,1.23 0.335,1.675 5.135,-9.825 7.705,-17.195 7.705,-22.11 2.23,-3.57 3.35,-6.25 3.35,-8.04 0,-0.67 -0.335,-1.225 -1.005,-1.675 0.89,-0.67 1.45,-1.115 1.675,-1.34 0.22,-2.01 0.67,-3.235 1.34,-3.685 l -0.335,-2.345 c -0.45,-0.89 -0.335,-1.895 0.335,-3.015 l 1.005,0.67 c 0.89,-2.455 1.56,-4.24 2.01,-5.36 -0.895,1.12 -1.675,1.79 -2.345,2.01 0,-2.68 0.67,-4.355 2.01,-5.025 0.445,0.67 0.67,1.34 0.67,2.01 4.24,-15.41 7.48,-23.895 9.715,-25.46 l 1.005,1.005 c 0.445,-0.445 1.225,-0.67 2.345,-0.67 0.22,-1.785 0.78,-3.57 1.675,-5.36 0.445,0.225 0.555,0.45 0.335,0.67 -0.45,2.68 -1.12,5.025 -2.01,7.035 -0.45,-0.445 -0.56,-0.67 -0.335,-0.67 0.67,0.67 1.005,1.34 1.005,2.01 0,0.67 -0.393,1.958 -1.173,3.852 -0.785,1.9 -0.953,3.298 -0.502,4.188 2.23,-4.465 3.57,-6.919 4.02,-7.37 l 0.67,0.67 c -0.225,2.68 -0.335,4.69 -0.335,6.03 2.01,-4.24 3.57,-6.92 4.69,-8.04 l 0.67,0.67 c -0.45,1.34 -0.56,2.905 -0.335,4.69 1.56,-2.01 2.68,-3.685 3.35,-5.025 1.115,1.565 2.23,2.345 3.35,2.345 0.89,-1.56 1.45,-2.79 1.675,-3.685 0.445,0.45 0.555,1.9 0.335,4.355 3.35,-6.475 5.36,-10.27 6.03,-11.39 0.22,0.225 0.445,0.785 0.67,1.675 2.9,-5.135 4.575,-8.15 5.025,-9.045 0.22,0.45 0.335,1.675 0.335,3.685 l 1.005,-1.005 c 0.445,0.45 0.89,0.67 1.34,0.67 0.445,0 2.565,-3.125 6.365,-9.38 3.795,-6.25 5.915,-9.38 6.365,-9.38 l 1.34,0 0.67,0 0.67,-2.68 c 0,-1.785 0.555,-2.68 1.675,-2.68 0.67,0 2.01,0.393 4.02,1.172 2.01,0.785 3.35,1.172 4.02,1.172 0.445,0 1.005,-0.445 1.675,-1.34 -0.225,-1.34 -0.115,-2.12 0.335,-2.345 1.34,1.791 2.01,3.24 2.01,4.355 0.22,-2.68 0.555,-4.69 1.005,-6.03 0.67,1.565 1.115,2.795 1.34,3.685 l -1.005,1.34 2.68,0 c -0.225,-4.69 -0.115,-7.59 0.335,-8.71 1.34,-2.455 2.12,-3.905 2.345,-4.355 -0.671,-2.683 -1.006,-4.242 -1.006,-4.692 z m -128.976,146.059 -0.67,2.012 0.67,0.334 0.67,-2.346 -0.67,0 z m 3.351,-5.36 -0.67,1.676 0.67,0 0.67,-1.34 -0.67,-0.336 z m 3.685,-6.029 -0.67,-0.336 3.685,-12.395 0.67,0 -3.685,12.731 z m 1.339,24.119 -1.34,2.68 1.005,0.336 1.005,-2.68 -0.67,-0.336 z m 0.671,-174.2 c 2.455,-2.01 4.465,-3.015 6.03,-3.015 2.01,-0.22 3.125,1.12 3.35,4.02 0.22,4.02 -0.895,6.145 -3.35,6.365 0.89,0 -1.12,-1.225 -6.03,-3.685 l 0,-3.685 z m 2.345,171.856 -2.345,5.359 1.34,0 2.01,-5.359 -1.005,0 z m -0.335,-35.845 0,-1.34 1.005,0 0,1.34 -1.005,0 z m 1.674,-24.455 -1.005,0 0.67,-3.35 1.005,0 -0.67,3.35 z m 1.006,-3.35 -0.67,0 1.34,-8.375 1.005,0 -1.675,8.375 z m 1.34,56.279 -1.34,1.34 0.67,0.67 1.34,-1.34 -0.67,-0.67 z m 0.335,-149.744 -1.005,0 0,1.675 1.005,0 0,-1.675 z m 2.01,-8.04 c -0.896,0.895 -1.675,2.235 -2.345,4.02 0.445,-1.56 1.225,-2.565 2.345,-3.015 l 1.34,0.67 c -0.67,-0.89 -1.12,-1.45 -1.34,-1.675 z m 1.34,20.435 -1.34,2.01 1.005,0.67 1.005,-2.345 -0.67,-0.335 z m 0.335,26.465 -1.005,0 0,1.675 1.005,0 0,-1.675 z m -0.335,-34.17 0,-1.675 1.005,0 0,1.675 -1.005,0 z m 1.675,27.805 -1.005,0 0.335,1.675 1.005,0 -0.335,-1.675 z m 1.34,-32.16 -0.67,-0.335 0.67,-1.34 0.67,0.335 -0.67,1.34 z m -0.335,-3.35 c 0.67,-2.01 1.56,-3.235 2.68,-3.685 l 0.335,3.015 c -0.67,-0.445 -1.675,-0.22 -3.015,0.67 z m 0.67,6.7 -0.67,-0.335 0.67,-1.34 0.335,0 -0.335,1.675 z m 0.67,81.07 -0.67,-0.335 0.67,-1.675 1.005,0.335 -1.005,1.675 z m 6.03,16.415 -0.67,-0.335 0.67,-3.35 1.005,0 -1.005,3.685 z m 4.02,-109.545 c -0.225,-2.23 1.675,-3.46 5.695,-3.685 1.56,0 2.9,0.785 4.02,2.345 l -9.715,1.34 z m 1.005,126.965 0,-1.34 1.005,-0.335 0,1.34 -1.005,0.335 z m 1.675,-2.345 -0.67,-0.335 1.675,-5.025 0.67,0 -1.675,5.36 z m 2.68,-10.05 0,-1.34 1.005,0 0,1.34 -1.005,0 z m 0.67,-1.675 -0.335,-1.34 1.005,0 0.335,1.34 -1.005,0 z m 0.67,-2.68 0,-2.01 1.005,-0.335 0,2.01 -1.005,0.335 z m 1.005,-3.016 -0.335,-2.01 1.005,0 0.335,2.01 -1.005,0 z m 0.67,-118.924 c 0,-0.67 0.723,-1.45 2.178,-2.345 1.45,-0.89 2.512,-1.34 3.183,-1.34 0.445,0 0.837,0.167 1.172,0.502 0.335,0.335 0.612,0.502 0.837,0.502 0.89,-1.56 2.565,-2.345 5.025,-2.345 5.36,-0.22 8.15,1.79 8.375,6.03 0.22,0.895 0,3.13 -0.67,6.7 l -20.1,-7.704 z m 1.005,59.295 -1.005,0 0.335,-4.355 1.005,0 -0.335,4.355 z m -0.67,55.945 0,-1.675 0.67,0 0,1.675 -0.67,0 z m 1.675,-55.611 -1.005,0 0.67,-4.69 1.005,0 -0.67,4.69 z m 6.03,32.831 -0.67,-0.335 0.335,-1.34 1.005,0.335 -0.67,1.34 z m 0.67,-2.345 -0.67,0 0.67,-3.015 1.005,0 -1.005,3.015 z m 1.005,-6.03 -0.67,-0.335 1.005,-2.345 1.005,0 -1.34,2.68 z m 1.675,-3.016 -0.67,0.335 0,-3.015 1.005,-0.335 -0.335,3.015 z m 0.67,-47.569 -1.005,-0.335 0.67,-1.675 1.005,0 -0.67,2.01 z m 0,5.359 0,-2.01 1.005,0 0,2.01 -1.005,0 z m 1.339,-3.349 -0.67,0 0,-3.685 1.005,0 -0.335,3.685 z m 3.686,35.845 -0.67,3.015 0.67,0.335 1.005,-3.015 -1.005,-0.335 z m 5.025,-44.556 -1.005,0 0.335,1.34 1.005,0 -0.335,-1.34 z m 12.059,-11.724 -0.67,1.675 0.67,0.335 0.67,-2.01 -0.67,0 z m 17.421,45.895 -2.01,1.675 0.67,0.67 2.01,-2.01 -0.67,-0.335 z m 5.025,-6.7 -0.67,-0.335 0.67,-1.34 0.67,0 -0.67,1.675 z m 2.679,-64.32 c -0.67,0.895 -1.455,1.34 -2.345,1.34 2.9,-0.22 4.355,0.56 4.355,2.345 0.001,-2.01 -0.669,-3.235 -2.01,-3.685 z m 18.091,52.929 c 0,-0.67 -0.225,-1.115 -0.67,-1.34 0,1.79 -0.225,2.795 -0.67,3.015 l 1.005,0 c 0.22,-0.669 0.335,-1.224 0.335,-1.675 z m 2.01,-17.084 -0.67,-3.35 1.005,0 0.67,3.015 -1.005,0.335 z m 3.35,1.675 c 0.89,3.35 1.45,5.25 1.675,5.695 -2.01,-3.35 -3.13,-5.245 -3.35,-5.695 0,-0.445 0.11,-1.005 0.335,-1.675 0.22,-0.67 0.335,-1.115 0.335,-1.34 0.89,0.67 1.56,1.005 2.01,1.005 0,0.225 -0.335,0.895 -1.005,2.01 z m 5.694,7.704 -0.67,0 0,2.01 0.67,0 0,-2.01 z"
       id="path9"
       inkscape:connector-curvature="0"
       style="fill:#fefefe" /><path
       d="m 463.63,228.201 c -0.45,2.46 -1.455,3.575 -3.015,3.35 -0.45,0 -2.125,-1.56 -5.025,-4.69 0.22,-1.34 -0.67,-2.9 -2.68,-4.69 -0.225,-1.34 -0.335,-2.12 -0.335,-2.345 0.67,0 1.34,0.45 2.01,1.34 l 2.68,-2.01 c 1.115,-0.89 1.895,-1.34 2.345,-1.34 2.455,0.45 3.795,3.91 4.02,10.385 z m -4.355,-166.83 c 0,0.45 -0.167,1.005 -0.502,1.675 -0.335,0.67 -0.502,1.121 -0.502,1.34 -1.12,-0.22 -2.235,-0.22 -3.35,0 -0.895,-0.89 -1.23,-1.45 -1.005,-1.675 0,-0.445 0.335,-1.282 1.005,-2.512 0.67,-1.225 1.005,-2.063 1.005,-2.513 0.89,0 2.23,0.225 4.02,0.67 l -0.671,3.015 z M 629.79,117.986 623.425,121 c -0.225,0.895 0.555,1.9 2.346,3.015 0,0.45 -0.451,1.12 -1.34,2.01 -4.021,0.45 -9.83,0.785 -17.42,1.005 -1.34,0 -2.57,0.45 -3.686,1.34 1.785,0.45 3.686,0.895 5.695,1.34 2.01,0.225 4.02,0.335 6.029,0.335 -2.461,0.45 -6.145,1.005 -11.055,1.675 -2.234,0.895 -5.475,1.79 -9.715,2.68 0.22,0.45 0.555,0.561 1.005,0.335 3.795,-0.445 5.916,-0.67 6.365,-0.67 1.561,0 6.92,-0.22 16.08,-0.67 l 1.34,0.67 -2.344,1.675 -42.21,4.69 c -15.41,1.565 -29.37,2.57 -41.875,3.015 l -0.67,0.67 c -0.225,0.225 -2.57,6.815 -7.035,19.765 -2.905,8.49 -4.915,15.97 -6.03,22.445 -3.35,21.89 -1.9,39.42 4.355,52.595 11.61,-6.919 17.085,-10.385 16.415,-10.385 0.89,0 2.345,1.172 4.355,3.518 2.01,2.345 3.46,3.632 4.355,3.853 0.445,0 0.67,-0.11 0.67,-0.335 0,-0.22 0.22,-0.22 0.67,0 0.445,0.225 1.115,0.895 2.01,2.01 1.34,-1.115 8.485,-4.91 21.44,-11.39 -12.955,14.295 -28.14,24.68 -45.56,31.155 -0.896,0.45 -1.34,0.895 -1.34,1.34 l 0.67,1.005 c 4.465,-0.22 15.63,-5.58 33.5,-16.08 l -17.42,13.065 c -11.17,8.04 -18.54,11.725 -22.11,11.055 -0.67,0 -2.513,-1.34 -5.527,-4.021 -3.015,-2.68 -4.638,-4.355 -4.858,-5.025 -2.235,0.67 -3.465,1.901 -3.685,3.685 l -4.02,-0.67 c -2.235,-0.444 -7.37,-6.81 -15.41,-19.095 -3.13,-4.91 -4.69,-14.625 -4.69,-29.145 0.22,-10.495 1.115,-20.77 2.68,-30.82 0.445,-2.9 3.35,-15.185 8.71,-36.85 -5.585,0.895 -9.715,1.12 -12.395,0.67 -1.565,-0.22 -4.135,-1.115 -7.705,-2.68 -3.575,-1.56 -6.365,-2.455 -8.375,-2.68 l -9.045,-1.34 c -1.565,0 -2.01,0 -1.34,0 0,-0.67 0.335,-1.45 1.005,-2.345 2.01,-0.67 3.795,-0.89 5.36,-0.67 0.89,0.225 2.345,0.56 4.355,1.005 2.01,0.45 3.46,0.785 4.355,1.005 l 1.005,-0.67 c -0.45,-0.67 -1.9,-1.675 -4.355,-3.015 1.115,0 3.015,-0.11 5.695,-0.335 -6.48,-6.475 -10.275,-9.825 -11.39,-10.05 -0.67,0 -2.795,0.225 -6.365,0.67 0.22,-0.67 0.78,-0.89 1.675,-0.67 0.22,-0.22 0,-0.67 -0.67,-1.34 1.785,-1.785 3.57,-3.57 5.36,-5.36 4.69,0 7.145,-0.78 7.37,-2.345 0.445,-2.01 0.11,-3.015 -1.005,-3.015 -1.79,-0.22 -3.24,-1.005 -4.355,-2.345 2.01,-0.22 5.025,-0.78 9.045,-1.675 l -1.005,-1.34 c 1.34,-0.67 3.46,-1.785 6.365,-3.35 0.445,-0.67 0.335,-1.005 -0.335,-1.005 1.34,0.225 2.12,0.67 2.345,1.34 1.56,-0.445 2.565,-1.785 3.015,-4.02 1.56,-0.67 3.795,-1.225 6.7,-1.675 4.24,-0.445 10.605,-1.225 19.095,-2.345 0.89,-1.785 3.57,-9.6 8.04,-23.45 l 0.67,-4.69 c 0.22,-0.89 1.225,-3.125 3.015,-6.7 l 0.335,-3.35 c 0.67,-1.785 1.895,-4.575 3.685,-8.375 0.22,-0.89 0.67,-2.229 1.34,-4.02 1.785,-2.01 3.015,-3.905 3.685,-5.695 2.68,1.79 5.695,3.91 9.045,6.365 1.34,-1.115 3.235,-2.68 5.695,-4.69 0,0.895 0.89,3.465 2.68,7.705 0.89,-2.01 2.345,-5.36 4.355,-10.05 l 1.675,0.67 c 0,1.79 0.78,4.58 2.345,8.375 0.445,3.13 0.67,6.48 0.67,10.05 0,5.585 0.22,8.155 0.67,7.705 l -0.67,3.015 -1.005,0 c -1.34,5.585 -3.575,13.96 -6.7,25.125 0.22,0.45 0.555,1.005 1.005,1.675 0.445,0 1.005,-0.335 1.675,-1.005 -0.225,0.895 0.11,1.455 1.005,1.675 1.56,0.225 4.13,0 7.705,-0.67 3.125,0.225 8.15,0.335 15.075,0.335 8.71,0 13.735,-0.11 15.075,-0.335 -1.34,2.46 -3.015,3.575 -5.025,3.35 l -5.025,-0.67 -1.005,0.335 c 0.67,0.895 1.675,1.455 3.015,1.675 0.89,0 2.345,-0.22 4.355,-0.67 2.01,-0.445 3.46,-0.555 4.355,-0.335 0.445,0 0.555,0.225 0.335,0.67 -0.225,0.45 0,0.67 0.67,0.67 -1.565,-0.22 2.79,-0.89 13.064,-2.01 1.561,0 6.811,0 15.746,0 -0.67,0 -2.178,0.502 -4.523,1.507 -2.344,1.005 -3.852,1.398 -4.521,1.173 -4.916,-0.67 -9.27,-0.335 -13.065,1.005 0.67,0.895 1.34,1.34 2.01,1.34 10.495,1.79 14.741,2.235 12.729,1.34 0.67,0.895 2.455,3.24 5.361,7.035 0,0.67 0.109,1.34 0.334,2.01 1.785,0.895 2.346,1.23 1.676,1.005 1.561,0.225 4.689,0.225 9.379,0 l 0.67,0.67 -0.335,2.011 z m -169.51,16.414 -4.69,-0.67 c 0.67,-0.22 1.34,-0.555 2.01,-1.005 0.89,1.121 1.785,1.675 2.68,1.675 z m 61.975,-95.139 c -1.34,0.895 -2.125,1.34 -2.345,1.34 l -4.02,-0.67 c -0.225,-0.22 -0.502,-0.67 -0.837,-1.34 -0.335,-0.67 -0.618,-1.115 -0.838,-1.34 -1.34,0.225 -2.46,1.063 -3.35,2.513 -0.896,1.455 -1.121,2.627 -0.67,3.518 1.56,5.14 1.225,8.71 -1.005,10.72 -2.01,1.34 -4.915,3.24 -8.71,5.695 -6.925,0.45 -10.165,0.785 -9.715,1.005 -1.34,-0.22 -2.345,-1.058 -3.015,-2.513 -0.67,-1.45 -0.67,-2.847 0,-4.188 -0.67,-0.89 -1.565,-2.345 -2.68,-4.355 -0.225,-2.229 -0.56,-5.36 -1.005,-9.38 -1.565,1.34 -2.795,1.9 -3.685,1.675 -5.585,-0.89 -7.93,-3.795 -7.035,-8.71 0.445,-2.455 2.01,-4.8 4.69,-7.035 2.68,-2.23 5.245,-3.125 7.705,-2.68 0.445,0 1.005,0.225 1.675,0.67 0.67,0.45 1.225,0.785 1.675,1.005 0.445,0 1.895,-0.502 4.355,-1.507 2.455,-1.005 3.905,-1.392 4.355,-1.172 1.785,0.225 5.025,2.125 9.715,5.695 0.89,1.34 2.565,3.35 5.025,6.03 0.67,-1.34 1.785,-2.9 3.35,-4.69 1.34,-1.115 2.455,-1.56 3.35,-1.34 1.56,0.225 2.899,1.675 4.02,4.355 l -1.005,6.699 z m -31.49,30.485 -6.03,-2.345 0.335,-0.67 5.695,2.01 0,1.005 z m 5.025,15.075 c -0.45,2.235 -1.675,3.13 -3.685,2.68 -3.575,-0.445 -5.92,-2.229 -7.035,-5.36 1.115,-2.455 2.455,-3.57 4.02,-3.35 4.91,0.669 7.145,2.68 6.7,6.03 z m 13.735,-38.526 -0.67,-1.005 -0.67,0.335 0.67,1.005 0.67,-0.335 z m 11.055,7.036 -12.395,36.515 10.05,-40.2 c 0.445,0.225 1.225,1.455 2.345,3.685 z m 7.035,155.44 c -1.121,0 -1.9,-0.555 -2.345,-1.675 -0.67,-2.455 -0.785,-5.025 -0.335,-7.705 -0.225,1.79 1.785,-6.03 6.03,-23.45 -0.67,3.13 -1.172,8.433 -1.507,15.913 -0.335,7.484 -0.953,13.122 -1.843,16.917 z m 25.46,-121.605 -1.34,5.36 -1.34,0 1.675,-5.695 1.005,0.335 z m 3.685,-40.871 -1.005,0 0.335,-1.34 1.005,0 -0.335,1.34 z m 20.435,1.341 c -0.225,2.235 -2.01,4.135 -5.36,5.695 -0.67,-0.89 -1.005,-1.56 -1.005,-2.01 0.22,-0.89 1.057,-2.12 2.512,-3.685 1.45,-1.56 2.623,-2.455 3.518,-2.68 0.445,0.669 0.555,1.565 0.335,2.68 z m 41.874,0.335 c -2.01,1.34 -3.574,1.9 -4.689,1.675 l -0.67,-0.67 0.336,-2.01 c 0.443,-0.445 2.01,-1.225 4.689,-2.345 l 1.004,0.67 -0.67,2.68 z"
       id="path11"
       inkscape:connector-curvature="0"
       style="fill:#fefefe" /><path
       d="m 571.833,211.786 -2.345,0 0,-1.34 2.345,0 0,1.34 z m 7.37,-4.355 -3.015,1.005 c -1.34,2.68 -2.01,3.35 -2.01,2.01 0,-0.445 0.335,-1.115 1.005,-2.01 -1.115,0.45 -2.9,0 -5.36,-1.34 0,0.45 0.56,0.67 1.675,0.67 l 6.7,-2.01 c 0.67,0.895 1.005,1.455 1.005,1.675 z m -1.676,3.685 -3.35,2.01 -0.335,-1.005 2.68,-2.01 1.005,1.005 z m 2.346,-15.745 -3.685,3.685 -0.335,-1.005 3.35,-3.35 0.67,0.67 z m 215.405,-31.826 c -1.34,0 -2.57,0.785 -3.686,2.345 -0.895,1.34 -0.895,2.68 0,4.02 -1.34,0.225 -6.59,0.895 -15.746,2.01 0,0.896 0.221,1.34 0.67,1.34 l 9.717,0 c 0,0.45 0.219,1.005 0.67,1.675 -4.246,0.225 -8.375,0.335 -12.396,0.335 -5.809,0.67 -9.715,1.79 -11.725,3.35 0.67,0.225 3.35,0.335 8.041,0.335 -1.34,0.225 -3.352,0.785 -6.031,1.675 -0.449,0.225 -0.225,0.67 0.67,1.34 -1.119,-0.445 -2.125,-0.335 -3.014,0.335 2.68,0.225 6.584,0.56 11.725,1.005 -37.52,6.255 -68.23,12.175 -92.125,17.755 -1.791,1.34 -5.25,3.35 -10.385,6.03 -2.236,0.67 -9.83,2.68 -22.781,6.03 l 0,7.035 c 1.34,0 3.352,0.225 6.031,0.67 l 2.01,0 c -5.586,0 -8.375,1.34 -8.375,4.02 -3.131,27.92 -6.031,48.24 -8.711,60.97 0.67,-4.471 1.451,-11.391 2.346,-20.77 l -1.006,-1.006 c -0.225,0 -0.67,0.336 -1.34,1.006 0.67,3.568 -0.559,10.719 -3.684,21.439 0.889,-3.35 1.34,-7.369 1.34,-12.061 -0.227,0 -0.451,0.111 -0.67,0.336 -2.01,5.805 -7.035,14.74 -15.076,26.799 -0.449,0.221 -1.119,0.67 -2.01,1.34 -0.895,2.23 -2.125,5.916 -3.686,11.057 -2.234,-2.236 -3.129,-3.801 -2.68,-4.691 2.01,-6.924 0.221,-13.064 -5.359,-18.424 l 0,-1.676 -1.006,-1.34 c -1.789,0.891 -0.115,6.365 5.025,16.416 0,-0.672 -0.115,-1.844 -0.334,-3.518 -0.227,-1.676 -0.336,-2.848 -0.336,-3.518 0,1.113 -2.346,-2.682 -7.035,-11.391 l -1.004,-1.006 c -0.67,1.561 -1.791,3.57 -3.351,6.031 -1.12,-1.121 -1.675,-1.791 -1.675,-2.01 0,-1.34 0.388,-3.408 1.173,-6.199 0.779,-2.795 1.172,-4.857 1.172,-6.197 -0.67,1.34 -1.79,4.24 -3.35,8.711 -0.45,-0.225 -0.785,-0.67 -1.005,-1.34 3.35,-14.74 5.026,-23.45 5.026,-26.13 l 0,-1.675 c -0.671,-0.445 -1.676,-0.555 -3.016,-0.335 l 5.36,-38.19 c -0.67,-0.89 -1.23,-1.34 -1.674,-1.34 -0.896,0.225 -2.346,1.455 -4.356,3.685 l 0.67,-0.335 c 0.445,-0.22 0.67,-0.555 0.67,-1.005 0.67,-0.22 0.445,-0.335 -0.67,-0.335 -0.895,0 -3.465,1.23 -7.705,3.685 l -8.04,4.355 c -0.45,0.225 -0.785,0.335 -1.005,0.335 l -3.685,-0.335 c 4.465,0.225 8.71,-1.895 12.73,-6.365 0.22,0.225 -0.335,0.335 -1.675,0.335 -0.45,0 -0.56,-0.22 -0.335,-0.67 l 0,-1.34 c -2.68,2.68 -4.69,4.02 -6.03,4.02 -0.45,0 -0.895,-0.22 -1.34,-0.67 l -1.005,-0.67 1.005,-0.67 c 0.22,-0.445 0.555,-0.67 1.005,-0.67 0.89,0 1.34,0.115 1.34,0.335 0,0.225 0.11,0.335 0.335,0.335 1.115,-2.01 1.675,-3.235 1.675,-3.685 0,-0.89 -1.005,-2.565 -3.015,-5.025 0.445,-1.34 1.005,-3.235 1.675,-5.695 0.22,-0.445 0,-0.67 -0.67,-0.67 -0.895,0 -1.9,0.56 -3.015,1.675 0.445,-0.89 0.89,-2.565 1.34,-5.025 l -4.02,0 c 4.24,-3.125 9.825,-7.255 16.75,-12.395 2.899,-0.67 6.365,-2.68 10.384,-6.03 -0.225,-0.22 -0.785,-0.335 -1.674,-0.335 -2.906,0 -6.648,1.397 -11.223,4.188 -4.58,2.795 -7.763,5.527 -9.547,8.208 -0.225,-0.445 0,-1.005 0.67,-1.675 -0.895,-0.67 -1.455,-1.005 -1.675,-1.005 -0.67,0.225 -1.005,0.785 -1.005,1.675 0,-1.785 0.445,-3.46 1.34,-5.025 -0.45,0.67 -0.335,1.34 0.335,2.01 0.67,-0.22 1.785,-1.005 3.35,-2.345 -0.895,0.895 -1.005,1.565 -0.335,2.01 3.125,-5.135 10.385,-8.82 21.774,-11.055 0.67,-0.67 1.34,-1.56 2.01,-2.68 l 0,-1.34 c -0.225,-0.445 -0.785,-0.67 -1.674,-0.67 l -11.39,4.69 c -0.226,0.45 -0.226,0.785 0,1.005 -0.226,-0.22 -0.785,-0.335 -1.675,-0.335 -1.34,0 -4.806,1.675 -10.385,5.025 l 0,-2.01 c -0.45,0 -1.34,0.67 -2.68,2.01 1.785,-1.785 4.02,-4.13 6.7,-7.035 2.01,-0.89 2.9,-1.34 2.68,-1.34 l 1.005,0 c 0,0.45 0.22,0.67 0.669,0.67 0.891,0 6.365,-1.675 16.416,-5.025 0.445,-1.56 0.445,-3.015 0,-4.355 l -0.67,0 c 0,-0.22 0.168,-0.555 0.502,-1.005 0.336,-0.445 0.502,-0.78 0.502,-1.005 0.221,-0.67 0.221,-1.895 0,-3.685 0.221,-0.89 0.336,-2.68 0.336,-5.36 l 7.369,-60.3 c 0,-2.455 0.891,-6.585 2.682,-12.395 2.229,-7.145 3.459,-11.5 3.684,-13.065 2.68,-13.175 5.695,-23.785 9.045,-31.825 2.23,-0.89 3.906,-2.68 5.025,-5.36 l 2.68,-7.035 c -0.225,0.67 -0.334,1.34 -0.334,2.01 0,0.45 0.109,0.785 0.334,1.005 2.23,-4.465 6.92,-9.265 14.07,-14.405 l -3.016,3.015 c 0.672,0.45 1.561,0.115 2.682,-1.005 -4.246,5.14 -6.146,8.375 -5.695,9.715 0.219,-0.89 1.004,-2.12 2.344,-3.685 12.061,-6.7 18.646,-10.05 19.766,-10.05 l 1.34,1.34 c 1.34,-2.455 5.916,-3.685 13.736,-3.685 3.123,0 6.248,1.005 9.379,3.015 2.68,2.68 4.02,4.135 4.02,4.355 0.67,0 1.006,-0.167 1.006,-0.502 0,-0.335 0.219,-0.502 0.67,-0.502 0.445,0 0.891,0.45 1.34,1.34 0.445,0.895 0.891,1.34 1.34,1.34 6.92,0.45 12.506,2.345 16.75,5.695 1.785,1.34 3.686,3.13 5.695,5.36 3.795,2.68 6.92,4.02 9.379,4.02 -0.895,0 0,-0.67 2.682,-2.01 0.889,2.46 2.119,5.811 3.684,10.05 -0.895,0.225 -3.014,-0.11 -6.365,-1.005 -3.35,-0.89 -5.359,-1.34 -6.029,-1.34 -0.67,0 -1.674,1.005 -3.016,3.015 -1.34,2.01 -2.234,3.015 -2.68,3.015 -0.895,0 -4.521,-1.953 -10.887,-5.863 -6.365,-3.905 -10.107,-6.417 -11.223,-7.537 -0.895,0 -1.34,0.335 -1.34,1.005 0,0.225 0.219,0.56 0.67,1.005 -1.121,-1.115 -2.234,-1.675 -3.35,-1.675 l -2.01,1.005 c -2.012,0.45 -4.916,1.565 -8.711,3.35 -6.926,7.82 -12.73,22.67 -17.42,44.555 -0.895,3.35 -2.234,10.5 -4.02,21.44 -0.67,0.67 -1.34,1.791 -2.01,3.35 -0.67,4.02 -1.455,9.605 -2.346,16.75 -0.895,1.34 -1.9,3.35 -3.016,6.03 l -1.674,25.125 c 0.219,0 0.67,0.225 1.34,0.67 0.67,0.45 1.115,0.67 1.34,0.67 -1.121,0 -2.234,0.785 -3.35,2.345 1.115,0.67 3.014,0.785 5.695,0.335 1.34,-0.22 3.234,-0.445 5.693,-0.67 -2.68,0.67 -6.699,2.235 -12.059,4.69 0,0.45 0.219,0.67 0.67,0.67 l 44.555,-7.705 c 2.23,0.225 5.914,0.56 11.055,1.005 -7.369,0.895 -19.766,3.465 -37.186,7.705 2.9,1.12 4.691,1.675 5.361,1.675 l 66.33,-7.37 -45.227,7.37 -1.34,1.005 c 0.221,0.225 1.34,0.335 3.352,0.335 l 53.934,-8.71 c 20.548,0.001 33.724,1.121 39.534,3.35 z m -213.06,50.25 c -1.34,1.565 -2.01,2.46 -2.01,2.68 0,-0.22 -0.115,-0.67 -0.335,-1.34 l -0.335,-1.34 0.67,1.34 c 0.669,-0.889 1.339,-1.34 2.01,-1.34 z m 5.025,3.685 -0.67,-1.005 -1.34,1.005 0,0.67 2.01,-0.67 z m 13.399,11.391 c -1.12,-0.445 -2.569,0.167 -4.354,1.842 -1.79,1.675 -3.13,2.513 -4.021,2.513 2.455,-1.115 5.471,-2.565 9.046,-4.355 l -0.671,0 z m 8.041,33.5 0,-6.7 c -0.451,0 -1.006,-0.335 -1.676,-1.005 -0.225,0.67 -0.67,1.565 -1.34,2.68 -0.67,6.254 -1.455,14.514 -2.344,24.79 3.569,-12.286 5.36,-18.87 5.36,-19.765 z m -1.676,-79.06 0,-1.005 -2.01,0 0,1.005 2.01,0 z m 5.025,123.615 -1.34,0 0,-1.676 1.34,0 0,1.676 z m 1.006,-184.25 -1.006,0 0,-2.345 1.006,0 0,2.345 z M 638.163,54 l 0,-2.68 -0.67,0 0,2.68 0.67,0 z m 8.039,-34.169 -4.355,5.36 -0.67,-1.005 4.355,-4.69 0.67,0.335 z m -4.019,27.805 0,-2.68 -1.006,0 0,2.68 1.006,0 z m 2.009,-7.37 -0.67,0 -1.676,4.355 0.67,0.335 1.676,-4.69 z m 1.006,0 0,-1.675 -1.34,0 0,1.675 1.34,0 z m 3.35,-10.385 -0.67,0 -3.686,8.04 1.34,0.335 3.016,-8.375 z m 29.48,2.01 -0.67,0 -2.682,5.695 0.67,0.335 2.682,-6.03 z m 14.069,-15.076 c -0.67,0 -1.674,-0.22 -3.014,-0.67 -1.34,-0.445 -2.461,-0.67 -3.35,-0.67 -2.236,0 -4.246,0.67 -6.031,2.01 2.68,0.001 6.811,-0.219 12.395,-0.67 z m 24.121,141.371 -4.355,0 0,-1.005 4.355,0 0,1.005 z m 6.365,-0.67 -4.691,0 0,-1.34 4.691,0 0,1.34 z m 5.025,-1.005 -4.355,0 0,-1.005 4.355,0 0,1.005 z m 6.03,-0.335 -5.025,0 0,-1.005 5.025,0 0,1.005 z m 2.009,-123.615 -0.334,1.005 -2.012,-1.005 0,-0.67 2.346,0.67 z m 3.686,122.945 -3.686,0 0,-1.34 3.686,0 0,1.34 z m 24.455,58.96 -2.346,0 0,-1.005 2.346,0 0,1.005 z"
       id="path13"
       inkscape:connector-curvature="0"
       style="fill:#fefefe" /><path
       d="m 854.905,164.216 c 0,4.02 -1.674,9.94 -5.025,17.755 -1.34,3.8 -3.238,9.83 -5.693,18.09 -2.682,2.905 -6.48,7.82 -11.391,14.74 l 1.676,-3.35 c 1.34,-2.455 1.783,-3.905 1.34,-4.355 -1.791,2.46 -4.246,6.48 -7.371,12.06 -1.34,1.12 -3.35,3.24 -6.029,6.365 -1.34,2.46 -3.24,6.03 -5.695,10.72 -5.811,8.265 -12.285,14.965 -19.43,20.1 -12.285,9.16 -20.436,13.734 -24.455,13.734 -0.67,0 -1.676,-0.225 -3.016,-0.67 -1.34,-0.449 -2.234,-0.67 -2.68,-0.67 -1.791,0 -4.303,0.389 -7.537,1.174 -3.24,0.779 -5.752,1.172 -7.537,1.172 -6.701,0 -13.852,-3.574 -21.441,-10.72 l -6.699,-1.34 c -0.225,0.67 -0.336,1.566 -0.336,2.68 0,1.12 0.111,2.46 0.336,4.021 -2.234,-2.9 -5.25,-6.701 -9.045,-11.391 -0.225,-1.115 -0.785,-3.125 -1.676,-6.03 -0.67,-0.445 -1.34,-0.89 -2.01,-1.34 -0.449,-2.9 -1.119,-7.37 -2.01,-13.4 1.115,-1.34 1.676,-2.345 1.676,-3.015 -2.236,-5.135 -3.686,-9.49 -4.355,-13.065 0.67,-0.67 0.67,-6.7 0,-18.09 2.01,-16.3 6.141,-32.38 12.395,-48.24 2.455,-6.919 7.256,-14.18 14.406,-21.775 7.59,-8.93 14.404,-14.07 20.434,-15.41 0.891,0 5.135,-1.785 12.73,-5.36 -15.41,6.255 -27.695,15.97 -36.85,29.145 -0.225,0.225 0,0.67 0.67,1.34 l 1.674,-1.34 c -2.904,3.13 -5.25,6.925 -7.033,11.39 l 1.34,0.67 c 6.92,-9.6 18.199,-19.765 33.834,-30.485 -0.67,0 -2.57,0.56 -5.695,1.675 14.291,-8.485 25.346,-12.615 33.166,-12.395 -0.225,0 -0.67,0.335 -1.34,1.005 0.67,0.45 1.449,0.67 2.344,0.67 1.115,0 2.791,-0.22 5.025,-0.67 2.23,-0.445 3.904,-0.67 5.025,-0.67 0.67,0 2.178,0.785 4.521,2.345 2.346,1.565 3.738,2.345 4.188,2.345 0.891,0 1.283,-0.168 1.174,-0.503 -0.115,-0.335 0.053,-0.502 0.502,-0.502 0.67,0.225 1.617,0.953 2.848,2.178 1.225,1.23 4.521,4.857 9.883,10.887 0.889,2.01 3.125,4.69 6.699,8.04 l 1.34,-1.34 c -1.564,-0.67 -2.178,-1.56 -1.842,-2.68 0.334,-1.115 0.053,-2.01 -0.838,-2.68 3.57,0 6.25,0.785 8.041,2.345 1.34,-1.56 2.01,-2.565 2.01,-3.015 0.889,2.46 2.68,5.025 5.359,7.705 1.561,1.791 3.904,7.485 7.035,17.085 0,0.896 0.109,2.345 0.334,4.355 0.445,0.895 1.451,1.79 3.016,2.68 1.338,2.01 2.008,4.02 2.008,6.03 z m -113.9,-35.51 -4.354,4.69 -0.336,-1.005 4.02,-4.02 0.67,0.335 z m 5.361,-3.351 -4.355,3.35 -0.334,-1.34 4.02,-3.015 0.669,1.005 z m 53.264,32.161 c -2.234,-3.35 -3.574,-5.915 -4.02,-7.705 -2.904,2.01 -7.594,5.81 -14.07,11.39 0.221,-1.34 1.115,-3.015 2.682,-5.025 -10.275,12.73 -17.756,26.915 -22.445,42.545 -0.896,-1.34 -1.455,-2.01 -1.676,-2.01 -1.564,0 -3.072,2.68 -4.521,8.04 -1.455,5.36 -2.178,9.16 -2.178,11.39 0,4.47 1.004,10.275 3.014,17.42 8.93,-2.455 17.531,-9.045 25.795,-19.765 8.26,-10.72 12.281,-20.435 12.061,-29.145 0.891,0.45 1.561,-0.22 2.01,-2.01 l 1.006,-2.345 c -1.791,-0.67 -3.686,-1.45 -5.695,-2.345 0.221,-1.115 0.336,-2.01 0.336,-2.68 0,-2.229 -3.576,-4.24 -10.721,-6.03 l 8.375,-0.335 c 1.115,0.45 2.68,1.455 4.689,3.015 0.221,-0.67 0.555,-1.45 1.006,-2.345 -1.34,0 -2.125,-0.11 -2.346,-0.335 1.115,-1.115 1.561,-2.01 1.34,-2.68 -0.895,-0.67 -2.125,-1.56 -3.686,-2.68 3.352,-1.115 5.58,-2.565 6.701,-4.355 -0.67,-0.89 -1.564,-1.895 -2.68,-3.015 0.67,0 1.559,0.167 2.68,0.502 1.114,0.335 1.894,0.503 2.343,0.503 z m -29.815,-48.911 -2.01,0 0,-1.34 2.01,0 0,1.34 z m 14.407,0.335 c -2.461,0.67 -7.486,2.345 -15.076,5.025 l 3.016,0 c 1.339,0.226 5.359,-1.449 12.06,-5.025 z m -10.051,-2.009 -2.01,0 0,-1.34 2.01,0 0,1.34 z m 14.74,72.025 -1.676,0 0,-1.34 1.676,0 0,1.34 z m 59.629,-54.94 -1.34,0 0,-3.016 1.34,0 0,3.016 z"
       id="path15"
       inkscape:connector-curvature="0"
       style="fill:#fefefe" /><path
       d="m 927.933,225.855 c -1.121,0.895 -5.25,3.24 -12.395,7.035 0.445,0.895 0.779,1.34 1.004,1.34 0.891,0 1.676,-0.335 2.346,-1.005 -0.225,0.67 -0.336,1.12 -0.336,1.34 -0.449,0.225 -0.225,0.335 0.67,0.335 0.67,0 1.115,-0.335 1.342,-1.005 0.67,1.34 0.889,2.795 0.67,4.355 -0.227,1.565 -0.561,2.57 -1.006,3.015 -3.801,1.34 -8.154,4.135 -13.064,8.375 -0.227,0 -0.67,-0.22 -1.34,-0.67 -0.67,-0.445 -1.23,-0.67 -1.676,-0.67 -1.119,-0.22 -3.016,0.56 -5.695,2.345 l -0.334,2.01 c -1.566,0.67 -2.906,1.455 -4.021,2.345 -0.449,0.225 -0.225,0.335 0.67,0.335 0.891,0.225 2.346,-0.11 4.355,-1.005 -1.34,0.45 -3.129,1.005 -5.359,1.675 -0.67,0.895 -1.564,2.01 -2.68,3.35 -1.34,-0.22 -3.35,-0.22 -6.031,0 -2.459,1.34 -4.805,2.46 -7.035,3.35 -2.904,1.79 -4.805,3.686 -5.693,5.695 0.219,-1.121 -0.115,-2.346 -1.006,-3.686 -1.564,1.121 -2.346,2.346 -2.346,3.686 -0.225,1.115 -0.115,2.01 0.336,2.68 l -1.34,-1.676 c -1.121,1.115 -2.68,3.016 -4.689,5.695 -0.227,-0.449 -0.67,-1.119 -1.34,-2.01 -2.012,0 -3.131,1.006 -3.352,3.016 -0.225,2.01 -0.334,3.686 -0.334,5.025 l 0,1.004 -2.346,0 c 0,-0.67 0.221,-1.34 0.67,-2.01 l 0,-2.346 c 0.221,-0.67 0.109,-1.674 -0.334,-3.014 l -5.361,4.355 c -2.898,-0.227 -5.023,-1.791 -6.365,-4.691 l -2.01,1.676 c 0,-1.121 -0.334,-2.125 -1.004,-3.016 -0.221,0.221 -0.445,0.555 -0.67,1.006 -0.221,0.445 -0.445,0.779 -0.67,1.004 0,-0.895 0.559,-2.459 1.674,-4.689 l -1.004,-0.67 c -0.67,0.891 -1.451,1.895 -2.346,3.016 0,-0.67 0.336,-2.346 1.006,-5.025 0.225,-2.68 -0.445,-4.021 -2.01,-4.021 -0.67,-0.22 -1.896,0 -3.686,0.671 0,0.67 0.115,1.229 0.334,1.674 l 1.676,-1.004 c 0.67,0 0.115,0.785 -1.676,2.344 0,-1.34 -0.555,-2.564 -1.674,-3.685 0,-0.22 -0.221,-0.11 -0.67,0.335 0,1.121 0,2.791 0,5.025 -0.221,-1.34 -0.221,-2.9 0,-4.689 -0.221,-0.221 -0.781,-0.336 -1.676,-0.336 -0.445,0 -0.779,0.168 -1.004,0.503 -0.221,0.335 -0.445,0.503 -0.67,0.503 0.449,-0.221 0.727,-0.556 0.836,-1.006 0.115,-0.445 0.283,-0.779 0.504,-1.005 -0.891,-1.114 -1.896,-2.229 -3.016,-3.35 l 3.016,2.01 c 0.449,-0.444 0.225,-1.226 -0.67,-2.345 l 6.699,-8.71 c -0.221,-0.22 -0.779,-0.335 -1.676,-0.335 1.34,0 -1.113,0.67 -7.369,2.01 2.234,-1.115 5.475,-2.79 9.715,-5.025 0,-0.445 0,-1.115 0,-2.01 0.449,-0.445 1.9,-2.68 4.355,-6.7 0.449,-0.445 1.732,-1.45 3.852,-3.015 2.125,-1.56 3.184,-3.015 3.184,-4.355 1.34,-0.445 2.68,-1.34 4.02,-2.68 12.504,-26.575 22.221,-61.525 29.145,-104.855 l 1.006,-17.085 c -3.576,21.22 -5.586,33.5 -6.031,36.85 -3.129,14.07 -6.699,26.02 -10.719,35.845 6.475,-33.275 10.049,-54.155 10.719,-62.645 l 0.67,1.34 c 0.221,-0.445 0.336,-1.005 0.336,-1.675 0.219,-0.445 0.219,-0.89 0,-1.34 -1.34,1.12 -2.01,1.34 -2.01,0.67 0,-0.22 0.168,-0.722 0.502,-1.507 0.336,-0.78 0.502,-1.508 0.502,-2.178 l 2.01,-52.26 c 0.221,-7.145 1.561,-13.175 4.021,-18.09 l 0,-1.34 c 0.67,-0.445 1.674,-1.005 3.014,-1.675 0.221,-0.89 0.336,-1.45 0.336,-1.675 l 0.67,0 c 0.445,0 0.779,0 1.006,0 0,0.45 0.219,1.12 0.67,2.01 l -2.682,55.61 c 0.67,-2.455 1.785,-11.5 3.352,-27.135 l -0.336,-14.74 c 0.445,-3.57 1.34,-7.59 2.68,-12.06 0.221,0.895 0.555,2.01 1.006,3.35 1.34,-1.115 2.119,-3.46 2.344,-7.035 1.561,0.895 2.791,1.34 3.686,1.34 0.445,-0.445 1.225,-1.34 2.346,-2.68 l 0,2.68 c 0.67,0.225 2.229,0.45 4.689,0.67 1.561,0.225 2.346,0 2.346,-0.67 -0.227,1.12 -0.115,2.125 0.334,3.015 0,-1.115 0.555,-2.565 1.676,-4.355 1.115,-1.785 2.119,-2.565 3.016,-2.345 l 0,2.01 c -1.566,0.895 -2.57,1.79 -3.016,2.68 l 0.334,2.345 c 1.785,-0.67 3.795,-2.455 6.031,-5.36 l -0.67,5.36 c 0,2.235 1.449,3.465 4.354,3.685 -0.895,2.01 -1.455,3.8 -1.674,5.36 -0.225,2.68 -0.115,10.166 0.334,22.445 l -0.67,6.03 c -0.225,2.235 0.221,3.685 1.34,4.355 l -3.35,31.49 c -2.234,22.56 -9.379,54.385 -21.439,95.475 0,0.45 -0.451,1.675 -1.34,3.685 -0.451,0.67 -0.561,1.12 -0.336,1.34 0.67,-0.445 1.451,-0.555 2.346,-0.335 0.445,0.225 1.34,1.23 2.68,3.015 l 1.676,0 c 1.34,-1.34 2.119,-2.79 2.344,-4.355 0,0.225 0.221,0.785 0.67,1.675 0.891,0 1.451,-0.445 1.676,-1.34 -0.67,1.34 -2.57,3.015 -5.695,5.025 2.01,0.45 3.57,0.67 4.689,0.67 5.361,-2.01 8.486,-3.015 9.381,-3.015 0.67,0 1.449,0.502 2.346,1.508 0.889,1.005 1.449,1.507 1.674,1.507 0.445,0.225 0.891,0 1.34,-0.67 0.445,-0.67 0.891,-0.89 1.34,-0.67 2.455,0.225 5.695,1.455 9.715,3.685 l -0.339,3.686 z m -92.795,32.161 -0.67,-0.67 -1.006,2.01 0.67,0.335 1.006,-1.675 z m 2.679,4.69 c -0.67,-2.455 -0.891,-4.465 -0.67,-6.03 -0.445,0.45 -1.34,2.235 -2.68,5.36 1.79,0 2.905,0.224 3.35,0.67 z m -1.339,10.05 -1.006,-0.336 0.336,-3.016 1.006,0.336 -0.336,3.016 z m 8.375,-1.339 -1.34,-0.336 -0.67,3.016 1.004,0 1.006,-2.68 z m 1.005,-38.861 -1.006,1.34 -0.67,-0.335 1.006,-1.34 0.67,0.335 z m 15.075,-34.505 c -0.67,2.68 -2.795,7.37 -6.365,14.07 -1.564,2.01 -3.016,4.355 -4.355,7.035 1.785,-4.91 4.576,-12.06 8.375,-21.44 l 2.345,0.335 z m 3.685,-19.43 -1.006,2.345 -1.004,-0.335 0.67,-2.345 1.34,0.335 z m 5.695,-34.17 -0.672,0 0.336,-2.01 0.67,0.335 -0.334,1.675 z m 3.684,-17.755 -0.67,4.355 -1.004,-0.335 0.67,-4.02 1.004,0 z m 15.41,137.685 c -3.574,2.01 -7.26,4.574 -11.055,7.705 0.891,1.783 2.23,2.789 4.02,3.014 0.445,0.221 0.891,0.221 1.34,0 l 0,-0.67 c -0.225,2.01 -0.449,2.9 -0.67,2.68 -0.225,-0.225 -0.785,-0.225 -1.674,0 l -1.006,0.336 c -1.34,-1.34 -1.674,-2.01 -1.004,-2.01 -0.896,-0.67 -3.016,-1.23 -6.365,-1.676 5.36,-3.799 10.83,-6.924 16.414,-9.379 z m -14.74,-142.375 -1.004,-0.335 0.334,-5.025 1.34,0 -0.67,5.36 z m 4.021,-30.151 1.674,-32.16 c -0.449,-0.22 -1.23,3.465 -2.346,11.055 0.891,9.381 1.116,16.416 0.672,21.105 z m 10.385,166.496 0.334,-1.34 -2.344,0 -0.336,1.005 2.346,0.335 z m 3.35,-46.565 -0.67,0 -2.01,3.015 0.67,0.67 2.01,-3.685 z m 1.34,-6.03 -1.006,0 -1.674,4.69 0.67,0 2.01,-4.69 z m 2.009,12.059 -0.67,-1.34 -4.02,2.345 0,1.34 4.69,-2.345 z m 6.366,36.181 -1.676,0.335 0,-1.005 1.676,-0.67 0,1.34 z m 9.045,2.345 c -0.225,0 -0.617,0.167 -1.172,0.502 -0.561,0.335 -1.174,0.393 -1.844,0.167 l -4.02,-0.335 c 1.115,-0.89 2.455,-1.225 4.02,-1.005 l 3.016,0.671 z m 4.019,-41.205 -1.674,2.345 -0.67,-1.005 1.674,-2.01 0.67,0.67 z m 5.361,-97.15 -1.342,-0.335 0.336,-3.35 1.34,0.335 -0.334,3.35 z m 0,98.49 -1.342,0 0.336,-2.01 1.006,0.335 0,1.675 z m 1.34,-111.556 -1.34,0 0.334,-3.35 1.34,0 -0.334,3.35 z m 5.36,119.261 -1.006,0 -1.004,2.68 1.004,0 1.006,-2.68 z"
       id="path17"
       inkscape:connector-curvature="0"
       style="fill:#fefefe" /><path
       d="m 1027.763,233.226 c -3.576,2.46 -5.361,4.135 -5.361,5.025 -0.225,0.67 0.221,1.12 1.34,1.34 -0.895,0.895 -4.02,3.575 -9.379,8.04 -0.451,0.45 -0.67,1.12 -0.67,2.01 -1.791,2.01 -3.91,4.245 -6.365,6.7 -1.121,1.12 -3.131,3.015 -6.031,5.695 -2.459,1.564 -5.693,3.91 -9.715,7.035 l -0.334,0.67 1.674,-1.006 c -0.225,0.221 -0.449,0.555 -0.67,1.006 0,0.445 0.221,0.891 0.67,1.34 -1.34,0.67 -2.795,0.891 -4.354,0.67 -0.227,0.445 -0.451,0.891 -0.67,1.34 0,0.445 0.219,0.779 0.67,1.006 l -1.006,0 c -0.67,-0.451 -1.23,-0.67 -1.674,-0.67 -1.121,0 -1.676,0.443 -1.676,1.34 -0.225,0.67 -0.225,1.559 0,2.68 -1.121,-0.67 -2.57,-1.006 -4.355,-1.006 -0.895,0.67 -1.455,1.006 -1.674,1.006 -0.67,-0.225 -1.676,-0.617 -3.016,-1.172 -1.34,-0.561 -2.346,-0.838 -3.016,-0.838 -1.119,-1.121 -2.459,-2.906 -4.02,-5.361 -0.225,-0.67 -0.67,-1.004 -1.34,-1.004 -0.67,0 -1.006,0.445 -1.006,1.34 -0.225,-0.449 -0.785,-1.23 -1.674,-2.346 -0.67,0.891 -1.455,1.225 -2.346,1.006 -2.459,0.219 -4.02,0.334 -4.689,0.334 -0.451,0 -0.561,-0.115 -0.336,-0.334 0.445,-0.451 0.445,-0.67 0,-0.67 -2.459,-0.225 -4.469,-2.346 -6.029,-6.365 -4.916,-12.73 -6.699,-25.795 -5.359,-39.195 1.34,-11.39 4.354,-26.465 9.045,-45.225 3.795,-16.525 7.705,-29.925 11.725,-40.2 1.34,-3.35 3.57,-6.7 6.699,-10.05 0.891,-0.22 2.23,-0.78 4.021,-1.675 0.443,-0.22 1.559,-1.005 3.35,-2.345 0.889,1.34 2.344,3.575 4.354,6.7 3.57,-2.229 6.25,-3.235 8.041,-3.015 l 2.01,0 c 0,0.225 -0.115,0.56 -0.334,1.005 l -0.336,0.67 c 0.445,0.45 0.779,0.67 1.006,0.67 0.67,0 1.783,-0.89 3.35,-2.68 0.67,-0.22 1.559,-0.67 2.68,-1.34 -2.234,2.905 -3.465,5.14 -3.686,6.7 l 0,2.01 1.006,1.005 c 0.67,0 1.449,-0.335 2.344,-1.005 0.221,1.565 0.336,2.795 0.336,3.685 -0.225,0.895 -0.67,1.34 -1.34,1.34 l -1.34,0 0.334,2.68 c 0.67,-0.67 1.34,-1.005 2.01,-1.005 0,0.225 0.111,0.67 0.336,1.34 -1.564,0.895 -2.461,1.9 -2.68,3.015 0.219,-0.445 0.219,-0.78 0,-1.005 l -4.02,20.435 c -6.256,21.44 -10.166,39.865 -11.727,55.275 -0.67,7.15 -0.895,14.07 -0.67,20.77 0.221,0.225 0.555,0.45 1.006,0.67 l 27.471,-17.755 c -2.012,4.02 -5.586,8.04 -10.721,12.06 -2.461,1.79 -6.926,5.025 -13.4,9.715 0.891,-0.67 6.25,-4.24 16.08,-10.72 l -17.756,14.07 c 0.221,0.225 0.781,0.115 1.676,-0.335 l -2.346,1.675 c 0,0.225 0.336,0.335 1.006,0.335 0.891,0.225 12.061,-7.255 33.5,-22.445 0.221,0.45 0.779,0.785 1.676,1.005 0.67,-0.22 2.01,-0.67 4.02,-1.34 -2.236,1.565 -3.35,2.795 -3.35,3.685 -0.227,1.565 0.555,2.46 2.344,2.68 0.89,-0.001 2.454,-0.221 4.691,-0.671 z m -70.352,33.835 0,-0.67 -2.344,-0.336 0,0.67 2.344,0.336 z m 5.026,-8.04 0.336,-1.005 -3.686,-0.335 -0.336,1.005 3.686,0.335 z m -0.67,9.38 0.336,-1.34 -1.006,0 -0.334,1.34 1.004,0 z m 2.679,-12.731 -3.014,-0.335 -0.336,1.34 c 0.891,-0.219 2.01,-0.554 3.35,-1.005 z m 3.686,27.471 -6.365,-1.34 0.336,-1.006 6.029,1.34 0,1.006 z m 66.664,-202.675 c -0.449,-0.445 -1.119,-1.225 -2.01,-2.345 -0.225,0 -0.449,0.115 -0.67,0.335 0.221,0.67 0.336,1.565 0.336,2.68 -0.225,1.79 -0.895,3.8 -2.01,6.03 0.219,-1.56 0.109,-4.24 -0.336,-8.04 -0.449,-0.22 -0.785,-0.22 -1.004,0 0,0.45 0,1.23 0,2.345 -1.791,1.565 -2.57,3.35 -2.346,5.36 0.445,0.45 1.225,1.23 2.346,2.345 0.443,-0.445 0.67,-0.78 0.67,-1.005 l -3.016,7.705 c -2.68,2.46 -7.26,6.03 -13.734,10.72 0,0.45 0.277,0.895 0.836,1.34 0.557,0.45 0.838,0.895 0.838,1.34 0,0.225 -0.225,0.561 -0.67,1.005 -2.01,-1.785 -3.465,-2.68 -4.355,-2.68 l -5.693,2.68 c 1.34,-1.785 2.119,-3.015 2.344,-3.685 l -2.344,-0.335 -0.336,3.35 c 0,-0.445 -0.334,-0.67 -1.004,-0.67 -0.451,0 -0.67,0.115 -0.67,0.335 0,0.67 0.219,1.34 0.67,2.01 -0.451,-0.445 -1.121,-1.507 -2.012,-3.183 -0.895,-1.675 -1.564,-2.512 -2.01,-2.512 -2.01,-0.22 -3.465,-0.11 -4.354,0.335 -0.67,-3.35 -2.012,-4.69 -4.021,-4.02 1.34,-1.34 2.121,-2.345 2.346,-3.015 -0.67,-0.67 -1.121,-1.005 -1.34,-1.005 l -1.676,1.34 c -1.564,1.34 -3.014,1.9 -4.354,1.675 -0.227,0 -0.336,-0.11 -0.336,-0.335 0,-0.22 -0.225,-0.335 -0.67,-0.335 -0.225,0 -0.729,0.225 -1.508,0.67 -0.785,0.45 -1.287,0.67 -1.508,0.67 -2.459,-0.22 -3.35,-4.13 -2.68,-11.725 l 1.34,-1.005 c 0.891,-2.01 1.225,-4.02 1.006,-6.03 1.34,-4.465 5.135,-12.06 11.389,-22.78 4.91,-2.01 9.381,-3.685 13.4,-5.025 -0.67,-0.89 -1.564,-1.34 -2.68,-1.34 -0.449,0 -1.004,0.225 -1.676,0.67 -4.689,0.67 -8.877,3.24 -12.563,7.705 -3.684,4.47 -5.861,9.16 -6.531,14.07 0.889,-2.68 1.785,-6.365 2.68,-11.055 -6.699,5.14 -10.051,11.17 -10.051,18.09 0.445,0.895 0.781,2.01 1.006,3.35 0,-0.445 -0.225,-0.67 -0.67,-0.67 -0.451,0 -1.121,0.115 -2.01,0.335 l -0.336,-2.68 c 0.891,-8.485 5.805,-15.965 14.74,-22.445 l 4.355,-3.35 c 0,-1.34 -0.451,-3.35 -1.34,-6.03 2.01,-1.34 3.57,-2.01 4.689,-2.01 1.785,0.225 4.689,1.005 8.711,2.345 l 9.045,3.015 c 0,0.45 0.67,1.79 2.01,4.02 1.115,-0.22 2.01,-0.22 2.68,0 0.221,0.67 0.445,1.005 0.67,1.005 0.445,0 0.779,-0.11 1.006,-0.335 0.219,-0.22 0.443,-0.335 0.67,-0.335 0.443,0 0.836,0.335 1.172,1.005 0.334,0.67 0.723,1.005 1.172,1.005 0.445,0 1.006,-0.11 1.676,-0.335 0.67,-0.22 1.225,-0.335 1.674,-0.335 0,0.895 0.389,1.455 1.174,1.675 0.779,0.225 1.057,0.502 0.838,0.837 -0.227,0.335 -0.115,0.503 0.334,0.503 2.455,0.225 4.131,0.225 5.025,0 l 0.67,1.005 c -0.225,0.225 -0.451,0.45 -0.67,0.67 0,0.45 0.334,1.23 1.004,2.345 l -4.354,2.01 c 0,0.45 0.443,0.785 1.34,1.005 -0.451,1.12 -0.67,2.905 -0.67,5.36 1.34,0 2.898,0.895 4.689,2.68 l -0.333,1.675 z m -56.613,6.7 -0.67,-0.335 -0.336,-1.34 0.67,0 0.336,1.675 z m 7.705,158.455 -0.67,-1.005 -1.676,1.005 0.334,0.67 2.012,-0.67 z m 1.004,-181.57 -0.67,0 -1.004,1.005 0.67,0.335 1.004,-1.34 z m 28.14,173.195 0,-0.335 -1.34,0.335 0,0.67 1.34,-0.67 z m 14.405,-150.75 -0.67,1.005 -0.67,-0.335 0.336,-1.34 1.004,0.67 z"
       id="path19"
       inkscape:connector-curvature="0"
       style="fill:#fefefe" /><path
       d="m 1175.495,164.216 c 0,4.02 -1.674,9.94 -5.025,17.755 -1.34,3.8 -3.238,9.83 -5.693,18.09 -2.682,2.905 -6.48,7.82 -11.391,14.74 l 1.676,-3.35 c 1.34,-2.455 1.783,-3.905 1.34,-4.355 -1.791,2.46 -4.246,6.48 -7.371,12.06 -1.34,1.12 -3.35,3.24 -6.029,6.365 -1.34,2.46 -3.24,6.03 -5.695,10.72 -5.811,8.265 -12.285,14.965 -19.43,20.1 -12.285,9.16 -20.436,13.734 -24.455,13.734 -0.67,0 -1.676,-0.225 -3.016,-0.67 -1.34,-0.449 -2.234,-0.67 -2.68,-0.67 -1.791,0 -4.303,0.389 -7.537,1.174 -3.24,0.779 -5.752,1.172 -7.537,1.172 -6.701,0 -13.852,-3.574 -21.441,-10.72 l -6.699,-1.34 c -0.225,0.67 -0.336,1.566 -0.336,2.68 0,1.12 0.111,2.46 0.336,4.021 -2.234,-2.9 -5.25,-6.701 -9.045,-11.391 -0.225,-1.115 -0.785,-3.125 -1.676,-6.03 -0.67,-0.445 -1.34,-0.89 -2.01,-1.34 -0.449,-2.9 -1.119,-7.37 -2.01,-13.4 1.115,-1.34 1.676,-2.345 1.676,-3.015 -2.236,-5.135 -3.686,-9.49 -4.355,-13.065 0.67,-0.67 0.67,-6.7 0,-18.09 2.01,-16.3 6.141,-32.38 12.395,-48.24 2.455,-6.919 7.256,-14.18 14.406,-21.775 7.59,-8.93 14.404,-14.07 20.434,-15.41 0.891,0 5.135,-1.785 12.73,-5.36 -15.41,6.255 -27.695,15.97 -36.85,29.145 -0.225,0.225 0,0.67 0.67,1.34 l 1.674,-1.34 c -2.904,3.13 -5.25,6.925 -7.033,11.39 l 1.34,0.67 c 6.92,-9.6 18.199,-19.765 33.834,-30.485 -0.67,0 -2.57,0.56 -5.695,1.675 14.291,-8.485 25.346,-12.615 33.166,-12.395 -0.225,0 -0.67,0.335 -1.34,1.005 0.67,0.45 1.449,0.67 2.344,0.67 1.115,0 2.791,-0.22 5.025,-0.67 2.23,-0.445 3.904,-0.67 5.025,-0.67 0.67,0 2.178,0.785 4.521,2.345 2.346,1.565 3.738,2.345 4.188,2.345 0.891,0 1.283,-0.168 1.174,-0.503 -0.115,-0.335 0.053,-0.502 0.502,-0.502 0.67,0.225 1.617,0.953 2.848,2.178 1.225,1.23 4.521,4.857 9.883,10.887 0.889,2.01 3.125,4.69 6.699,8.04 l 1.34,-1.34 c -1.564,-0.67 -2.178,-1.56 -1.842,-2.68 0.334,-1.115 0.053,-2.01 -0.838,-2.68 3.57,0 6.25,0.785 8.041,2.345 1.34,-1.56 2.01,-2.565 2.01,-3.015 0.889,2.46 2.68,5.025 5.359,7.705 1.561,1.791 3.904,7.485 7.035,17.085 0,0.896 0.109,2.345 0.334,4.355 0.445,0.895 1.451,1.79 3.016,2.68 1.338,2.01 2.008,4.02 2.008,6.03 z m -113.9,-35.51 -4.354,4.69 -0.336,-1.005 4.02,-4.02 0.67,0.335 z m 5.361,-3.351 -4.355,3.35 -0.334,-1.34 4.02,-3.015 0.669,1.005 z m 53.264,32.161 c -2.234,-3.35 -3.574,-5.915 -4.02,-7.705 -2.904,2.01 -7.594,5.81 -14.07,11.39 0.221,-1.34 1.115,-3.015 2.682,-5.025 -10.275,12.73 -17.756,26.915 -22.445,42.545 -0.896,-1.34 -1.455,-2.01 -1.676,-2.01 -1.564,0 -3.072,2.68 -4.521,8.04 -1.455,5.36 -2.178,9.16 -2.178,11.39 0,4.47 1.004,10.275 3.014,17.42 8.93,-2.455 17.531,-9.045 25.795,-19.765 8.26,-10.72 12.281,-20.435 12.061,-29.145 0.891,0.45 1.561,-0.22 2.01,-2.01 l 1.006,-2.345 c -1.791,-0.67 -3.686,-1.45 -5.695,-2.345 0.221,-1.115 0.336,-2.01 0.336,-2.68 0,-2.229 -3.576,-4.24 -10.721,-6.03 l 8.375,-0.335 c 1.115,0.45 2.68,1.455 4.689,3.015 0.221,-0.67 0.555,-1.45 1.006,-2.345 -1.34,0 -2.125,-0.11 -2.346,-0.335 1.115,-1.115 1.561,-2.01 1.34,-2.68 -0.895,-0.67 -2.125,-1.56 -3.686,-2.68 3.352,-1.115 5.58,-2.565 6.701,-4.355 -0.67,-0.89 -1.564,-1.895 -2.68,-3.015 0.67,0 1.559,0.167 2.68,0.502 1.114,0.335 1.894,0.503 2.343,0.503 z m -29.815,-48.911 -2.01,0 0,-1.34 2.01,0 0,1.34 z m 14.407,0.335 c -2.461,0.67 -7.486,2.345 -15.076,5.025 l 3.016,0 c 1.339,0.226 5.358,-1.449 12.06,-5.025 z m -10.051,-2.009 -2.01,0 0,-1.34 2.01,0 0,1.34 z m 14.74,72.025 -1.676,0 0,-1.34 1.676,0 0,1.34 z m 59.629,-54.94 -1.34,0 0,-3.016 1.34,0 0,3.016 z"
       id="path21"
       inkscape:connector-curvature="0"
       style="fill:#fefefe" /></g></svg>