<?xml version="1.0" encoding="UTF-8" standalone="no"?>
<!-- Generator: Adobe Illustrator 16.0.0, SVG Export Plug-In . SVG Version: 6.00 Build 0)  -->

<svg
   xmlns:dc="http://purl.org/dc/elements/1.1/"
   xmlns:cc="http://creativecommons.org/ns#"
   xmlns:rdf="http://www.w3.org/1999/02/22-rdf-syntax-ns#"
   xmlns:svg="http://www.w3.org/2000/svg"
   xmlns="http://www.w3.org/2000/svg"
   xmlns:sodipodi="http://sodipodi.sourceforge.net/DTD/sodipodi-0.dtd"
   xmlns:inkscape="http://www.inkscape.org/namespaces/inkscape"
   version="1.1"
   id="Layer_1"
   x="0px"
   y="0px"
   width="24"
   height="24"
   viewBox="0 0 24 24"
   enable-background="new 0 0 24 24"
   xml:space="preserve"
   inkscape:version="0.91 r13725"
   sodipodi:docname="skype.svg"><metadata
     id="metadata11"><rdf:RDF><cc:Work
         rdf:about=""><dc:format>image/svg+xml</dc:format><dc:type
           rdf:resource="http://purl.org/dc/dcmitype/StillImage" /><dc:title></dc:title></cc:Work></rdf:RDF></metadata><defs
     id="defs9" /><sodipodi:namedview
     pagecolor="#ffffff"
     bordercolor="#666666"
     borderopacity="1"
     objecttolerance="10"
     gridtolerance="10"
     guidetolerance="10"
     inkscape:pageopacity="0"
     inkscape:pageshadow="2"
     inkscape:window-width="640"
     inkscape:window-height="480"
     id="namedview7"
     showgrid="false"
     fit-margin-top="0"
     fit-margin-left="0"
     fit-margin-right="0"
     fit-margin-bottom="0"
     inkscape:zoom="9.8333333"
     inkscape:cx="12"
     inkscape:cy="12"
     inkscape:window-x="0"
     inkscape:window-y="0"
     inkscape:window-maximized="0"
     inkscape:current-layer="Layer_1" /><g
     id="g3"><path
       d="M 18,24 C 16.625,24 15.359,23.531 14.344,22.75 13.594,22.906 12.797,23 12,23 5.922,23 1,18.078 1,12 1,11.203 1.094,10.406 1.25,9.656 0.469,8.641 0,7.375 0,6 0,2.687 2.688,0 6,0 7.375,0 8.641,0.469 9.656,1.25 10.406,1.094 11.203,1 12,1 c 6.078,0 11,4.922 11,11 0,0.797 -0.094,1.594 -0.25,2.344 0.781,1.015 1.25,2.281 1.25,3.656 0,3.313 -2.687,6 -6,6 z M 13.469,10.453 11.844,10.078 C 10.656,9.797 9.766,9.594 9.766,8.687 c 0,-0.828 0.875,-1.203 2.25,-1.203 2.453,0 2.5,1.797 4.016,1.797 1.016,0 1.625,-0.797 1.625,-1.703 0,-1.797 -2.984,-2.969 -5.938,-2.969 -2.703,0 -5.844,1.172 -5.844,4.344 0,2.625 1.75,3.563 4.031,4.109 l 2.281,0.563 c 1.391,0.344 2.25,0.5 2.25,1.5 0,0.797 -0.891,1.406 -2.266,1.406 -2.891,0 -3.047,-2.406 -4.719,-2.406 -1.094,0 -1.578,0.781 -1.578,1.641 0,1.922 2.938,3.484 6.453,3.484 2.938,0 6,-1.469 6,-4.641 10e-4,-2.718 -2.639,-3.656 -4.858,-4.156 z"
       id="path5"
       inkscape:connector-curvature="0"
       style="fill:#00bfa5" /></g></svg>