<?xml version="1.0" encoding="UTF-8" standalone="no"?>
<!-- Generator: Adobe Illustrator 16.0.0, SVG Export Plug-In . SVG Version: 6.00 Build 0)  -->

<svg
   xmlns:dc="http://purl.org/dc/elements/1.1/"
   xmlns:cc="http://creativecommons.org/ns#"
   xmlns:rdf="http://www.w3.org/1999/02/22-rdf-syntax-ns#"
   xmlns:svg="http://www.w3.org/2000/svg"
   xmlns="http://www.w3.org/2000/svg"
   xmlns:sodipodi="http://sodipodi.sourceforge.net/DTD/sodipodi-0.dtd"
   xmlns:inkscape="http://www.inkscape.org/namespaces/inkscape"
   version="1.1"
   id="Layer_1"
   x="0px"
   y="0px"
   width="505.10101"
   height="165.03799"
   viewBox="0 0 505.101 165.038"
   enable-background="new 0 0 505.101 165.036"
   xml:space="preserve"
   inkscape:version="0.91 r13725"
   sodipodi:docname="works_header.svg"><metadata
     id="metadata19"><rdf:RDF><cc:Work
         rdf:about=""><dc:format>image/svg+xml</dc:format><dc:type
           rdf:resource="http://purl.org/dc/dcmitype/StillImage" /><dc:title></dc:title></cc:Work></rdf:RDF></metadata><defs
     id="defs17" /><sodipodi:namedview
     pagecolor="#ffffff"
     bordercolor="#666666"
     borderopacity="1"
     objecttolerance="10"
     gridtolerance="10"
     guidetolerance="10"
     inkscape:pageopacity="0"
     inkscape:pageshadow="2"
     inkscape:window-width="640"
     inkscape:window-height="480"
     id="namedview15"
     showgrid="false"
     fit-margin-top="0"
     fit-margin-left="0"
     fit-margin-right="0"
     fit-margin-bottom="0"
     inkscape:zoom="0.75232476"
     inkscape:cx="252.55051"
     inkscape:cy="82.518002"
     inkscape:window-x="0"
     inkscape:window-y="0"
     inkscape:window-maximized="0"
     inkscape:current-layer="Layer_1" /><g
     id="g3"
     transform="translate(0,0.002)"><path
       d="m 12.852,32.64 c -0.137,1.09 -1.906,3.742 -5.304,7.956 -0.408,0.816 -1.02,1.157 -1.836,1.02 -1.09,0 -2.11,-0.408 -3.06,-1.224 C 2.244,39.984 1.428,38.693 0.204,36.516 0.067,34.342 0,32.981 0,32.436 c 0.408,-3.943 2.244,-5.712 5.508,-5.304 0.816,0.137 1.836,1.294 3.06,3.468 0.134,0.137 0.306,0.102 0.51,-0.102 0.204,-0.204 0.44,-0.306 0.714,-0.306 0.408,0 1.02,0.306 1.836,0.918 0.816,0.612 1.224,1.122 1.224,1.53 z m 137.7,-6.528 c -1.361,0.816 -2.11,1.769 -2.244,2.856 0,0.545 0.134,1.09 0.408,1.632 -0.682,0.274 -1.565,0.886 -2.652,1.836 0,-0.134 -0.07,-0.338 -0.204,-0.612 -2.722,1.632 -4.08,3.946 -4.08,6.936 1.087,-0.95 2.652,-2.515 4.692,-4.692 l -0.204,1.02 1.224,0.204 c 0.408,-0.134 0.679,-0.204 0.816,-0.204 -1.498,0 -2.926,1.565 -4.284,4.692 0,0.274 0.067,0.612 0.204,1.02 -2.856,4.896 -4.284,7.889 -4.284,8.976 0.408,0.137 0.816,0 1.224,-0.408 0.408,-1.087 2.244,-3.535 5.508,-7.344 -1.498,2.448 -3.06,5.17 -4.692,8.16 -3.13,6.12 -4.762,9.929 -4.896,11.424 0,0.274 -0.239,0.851 -0.714,1.734 -0.479,0.886 -0.784,1.6 -0.918,2.142 0,0.545 0.134,1.294 0.408,2.244 l -0.612,-0.408 c 0.271,0.274 0.408,0.612 0.408,1.02 0,0.274 -0.204,0.612 -0.612,1.02 l 0,0.408 c -0.137,0.137 -0.07,0.274 0.204,0.408 l 0.816,-1.428 c 0.679,1.09 0.95,1.836 0.816,2.244 0,0.816 -1.361,3.468 -4.08,7.956 -0.137,0 -0.204,0.408 -0.204,1.224 l -0.816,-0.612 0,0.204 c 0,0.137 0.067,0.274 0.204,0.408 0.134,0.137 0.204,0.408 0.204,0.816 -0.137,0.408 -1.02,2.652 -2.652,6.732 -0.682,-0.134 -1.224,-0.134 -1.632,0 -0.137,0.545 0,0.816 0.408,0.816 0.271,0.137 0.612,0 1.02,-0.408 -0.274,0.545 -0.816,1.361 -1.632,2.448 0.542,0.545 1.087,1.294 1.632,2.244 l -11.628,26.112 c -5.986,13.738 -11.832,23.256 -17.544,28.561 0,0.679 -0.749,1.969 -2.244,3.875 -0.682,0.271 -1.632,0.883 -2.856,1.836 -0.274,0 -0.647,-0.238 -1.122,-0.714 -0.478,-0.478 -0.851,-0.714 -1.122,-0.714 -0.274,0 -0.545,0.134 -0.816,0.408 -0.274,0.271 -0.545,0.408 -0.816,0.408 -0.816,0 -1.836,-1.157 -3.06,-3.469 -0.682,0.271 -1.02,0.746 -1.02,1.429 0.134,0.679 0.134,1.224 0,1.632 -0.137,-0.408 -1.09,-0.545 -2.856,-0.408 0.271,0.816 0.883,2.107 1.836,3.876 -6.936,-2.993 -10.2,-4.488 -9.792,-4.488 -0.274,0 -0.408,0.135 -0.408,0.408 0,0.271 -0.204,0.408 -0.612,0.408 0.134,0 0.067,-0.204 -0.204,-0.612 -3.946,-1.224 -6.802,-1.836 -8.568,-1.836 -1.224,-0.545 -2.11,-1.766 -2.652,-3.672 -0.137,-0.271 -0.545,-0.541 -1.224,-0.816 -2.448,-4.621 -4.217,-7.002 -5.304,-7.14 0,-0.134 0.134,-0.338 0.408,-0.612 l 0.408,-0.612 c 0.271,-1.632 -0.204,-2.515 -1.428,-2.652 -0.953,-0.134 -2.04,1.09 -3.264,3.672 0.134,0.274 0.204,0.682 0.204,1.224 -0.274,0 -2.177,2.04 -5.712,6.12 -3.538,4.08 -5.849,6.051 -6.936,5.917 0.408,0.134 -0.478,-0.408 -2.652,-1.633 -0.545,0 -1.294,-0.137 -2.244,-0.407 -0.953,-0.274 -1.702,-0.408 -2.244,-0.408 -0.816,0.815 -1.361,1.97 -1.632,3.468 -0.408,0.679 -1.361,0.883 -2.856,0.612 -3.809,-0.274 -6.257,-2.381 -7.344,-6.324 l -3.672,-4.08 C 16.862,139.47 15.3,136.818 13.668,134.233 11.899,130.698 10.742,127.842 10.2,125.665 7.615,115.194 5.779,104.178 4.692,92.617 l 0.204,-2.448 c 0,-0.95 -0.479,-1.699 -1.428,-2.244 -0.408,8.705 0.338,16.661 2.244,23.868 -1.09,-0.134 -1.702,-0.542 -1.836,-1.224 -0.545,-1.766 -1.02,-3.943 -1.428,-6.528 C 0.95,95.609 0.746,86.362 1.836,76.296 c 0.271,-2.99 1.291,-5.642 3.06,-7.956 -0.137,0.274 -0.137,-0.067 0,-1.02 0.271,0.408 0.542,0.612 0.816,0.612 l 0.816,-0.408 c -0.408,-0.271 -0.816,-0.95 -1.224,-2.04 0.542,0 0.95,-0.134 1.224,-0.408 0.271,0.816 0.679,1.906 1.224,3.264 l 0.816,0.204 C 8.839,68.818 9.043,68.273 9.18,66.912 7.956,65.688 7.411,64.601 7.548,63.648 c 0.134,0 0.306,-0.134 0.51,-0.408 0.204,-0.271 0.44,-0.338 0.714,-0.204 0.542,0 1.224,0.953 2.04,2.856 0.134,-0.134 0.204,-0.408 0.204,-0.816 0.271,-2.04 -0.274,-3.943 -1.632,-5.712 -0.137,0 -0.306,0.035 -0.51,0.102 -0.204,0.07 -0.443,0.102 -0.714,0.102 -0.408,0 -1.02,-0.848 -1.836,-2.55 -0.816,-1.699 -1.157,-2.821 -1.02,-3.366 0,-0.271 0.102,-0.51 0.306,-0.714 0.204,-0.204 0.306,-0.373 0.306,-0.51 l 1.224,0 c 0.95,0.545 1.632,1.498 2.04,2.856 0.134,0.682 0,1.702 -0.408,3.06 0.134,0.408 0.475,0.816 1.02,1.224 0.271,-0.679 0.746,-0.95 1.428,-0.816 0.408,0.137 1.087,0.749 2.04,1.836 0.134,-0.679 0.475,-1.699 1.02,-3.06 1.087,1.09 1.836,1.973 2.244,2.652 0.679,0.137 1.154,0.137 1.428,0 -2.722,-4.759 -4.013,-7.819 -3.876,-9.18 0.134,-0.95 0.883,-2.244 2.244,-3.876 1.358,-1.632 2.515,-2.378 3.468,-2.244 0.679,0 1.562,0.612 2.652,1.836 1.087,1.224 1.562,2.177 1.428,2.856 0,0.545 -0.306,1.428 -0.918,2.652 -0.612,1.224 -0.918,2.11 -0.918,2.652 0.134,0.274 0.542,1.157 1.224,2.652 3.264,-0.679 4.896,-1.428 4.896,-2.244 0,1.09 -0.274,-0.067 -0.816,-3.468 0.134,0 0.373,-0.067 0.714,-0.204 0.338,-0.134 0.644,-0.134 0.918,0 1.358,0.137 2.244,2.789 2.652,7.956 -0.545,13.056 0.542,27.406 3.264,43.044 0.271,0.408 0.679,1.157 1.224,2.244 0.271,0 0.475,-0.134 0.612,-0.408 0,-0.134 -0.137,-0.338 -0.408,-0.612 1.224,-1.495 1.699,-2.515 1.428,-3.06 l 0.816,1.02 c 0.542,-0.679 0.883,-1.224 1.02,-1.632 -0.137,-0.271 -0.274,-0.408 -0.408,-0.408 0.408,-0.408 0.612,-0.883 0.612,-1.428 0.542,-0.816 1.632,-2.652 3.264,-5.508 -0.137,0.274 -0.545,-0.067 -1.224,-1.02 0.542,0.137 0.883,0.274 1.02,0.408 0.271,-0.271 0.679,-0.746 1.224,-1.428 0,-0.134 -0.07,-0.338 -0.204,-0.612 0.816,-1.087 1.358,-2.311 1.632,-3.672 1.358,-1.495 2.174,-2.786 2.448,-3.876 0,0.137 0.134,0.274 0.408,0.408 0.816,-0.542 1.358,-1.495 1.632,-2.856 0,-0.542 0.067,-1.428 0.204,-2.652 0.816,-0.271 1.326,-1.052 1.53,-2.346 0.204,-1.291 0.985,-2.346 2.346,-3.162 1.358,-0.816 2.244,-1.428 2.652,-1.836 0.134,-4.351 1.02,-8.906 2.652,-13.668 0.408,-1.224 1.428,-2.582 3.06,-4.08 1.632,-1.495 2.99,-2.174 4.08,-2.04 1.224,0.137 2.378,1.294 3.468,3.468 0.408,-0.271 1.087,-0.338 2.04,-0.204 -0.274,-0.134 0.067,-0.408 1.02,-0.816 l 2.04,-2.856 3.06,1.428 c 0.408,0 1.087,-0.134 2.04,-0.408 1.224,2.722 1.766,6.461 1.632,11.22 L 81.6,73.44 c -0.137,-0.408 -0.274,0 -0.408,1.224 0.134,0.274 0.271,0.408 0.408,0.408 0.408,-0.408 0.679,-0.95 0.816,-1.632 0,-0.408 -0.137,-1.087 -0.408,-2.04 0.271,-0.271 0.679,-0.338 1.224,-0.204 0,-0.679 0.134,-1.632 0.408,-2.856 0.271,-1.224 0.475,-2.174 0.612,-2.856 0,0.545 0.204,1.294 0.612,2.244 0.134,-0.408 0.612,-1.632 1.428,-3.672 0,0.137 0.067,0.204 0.204,0.204 0.271,0.137 0.542,0.137 0.816,0 l -2.856,25.296 c 0,-0.816 -0.137,-2.107 -0.408,-3.876 -0.408,0.545 -0.682,1.361 -0.816,2.448 -0.137,1.361 0,2.993 0.408,4.896 0.679,-1.632 1.02,-2.652 1.02,-3.06 l -0.612,16.932 c -0.137,2.177 -0.274,5.441 -0.408,9.792 4.896,-5.712 9.859,-14.347 14.892,-25.908 7.07,-16.046 11.22,-25.226 12.444,-27.54 0.679,-1.358 1.02,-2.515 1.02,-3.468 0.679,-0.134 1.087,-0.408 1.224,-0.816 0,-0.134 -0.07,-0.408 -0.204,-0.816 1.632,-2.448 3.672,-6.12 6.12,-11.016 0,0.408 0.338,0.953 1.02,1.632 0.271,0 0.475,0 0.612,0 0.816,-1.224 1.97,-2.856 3.468,-4.896 -0.953,3.264 -2.652,6.732 -5.1,10.404 l 0.408,1.02 c -1.09,0.274 -1.973,1.224 -2.652,2.856 -0.274,0.682 -0.408,1.294 -0.408,1.836 -0.137,0.545 0,1.02 0.408,1.428 -0.137,0 -0.408,-0.271 -0.816,-0.816 -0.137,0.545 -0.682,1.294 -1.632,2.244 l 0,1.632 c 1.632,-0.679 2.378,-1.087 2.244,-1.224 -0.545,-0.408 -0.816,-0.746 -0.816,-1.02 l 0.816,0.204 c -0.274,0 0.271,-0.204 1.632,-0.612 -0.408,-0.542 -0.478,-0.816 -0.204,-0.816 l 0.204,-0.204 0.204,-0.816 c 0.134,-0.271 1.699,-2.856 4.692,-7.752 0.408,-0.95 0.338,-1.495 -0.204,-1.632 0.408,-0.134 0.883,-0.612 1.428,-1.428 0.408,-1.495 1.291,-3.672 2.652,-6.528 1.632,-1.495 3.194,-3.264 4.692,-5.304 0.408,-0.408 1.766,-2.107 4.08,-5.1 l 2.04,-2.448 c -0.137,0.682 -0.137,1.09 0,1.224 0.542,-0.542 1.428,-1.358 2.652,-2.448 l 1.224,-2.448 c -0.137,0.137 -0.07,0.341 0.204,0.612 0.408,-0.542 0.816,-1.154 1.224,-1.836 0,1.632 -0.545,3.197 -1.632,4.692 0.134,0.137 0.338,0.204 0.612,0.204 0.408,-0.408 1.495,-1.495 3.264,-3.264 -5.849,7.752 -11.086,15.233 -15.708,22.44 -0.408,0.816 -0.545,1.632 -0.408,2.448 l 13.056,-17.544 c 0.542,-0.816 1.154,-1.699 1.836,-2.652 -0.274,0 -0.204,0.274 0.204,0.816 1.766,-2.582 2.582,-4.284 2.448,-5.1 0.134,0 0.408,0.274 0.816,0.816 0.408,-0.271 0.95,-0.612 1.632,-1.02 0.134,-0.542 0.542,-1.154 1.224,-1.836 l 0,1.224 z M 29.376,18.768 c -0.137,1.906 -3.197,4.354 -9.18,7.344 -1.498,-1.358 -2.856,-2.107 -4.08,-2.244 l -0.612,0 c 0,0.137 -0.137,0.204 -0.408,0.204 -3.809,-0.408 -5.374,-3.806 -4.692,-10.2 0.408,-3.535 1.766,-5.167 4.08,-4.896 0.816,0.137 1.428,0.341 1.836,0.612 2.99,-4.351 5.234,-6.458 6.732,-6.324 1.903,0.274 3.331,1.498 4.284,3.672 l 1.836,5.916 -0.204,3.264 c 0,0.137 0.067,0.545 0.204,1.224 0.134,0.682 0.204,1.157 0.204,1.428 z M 17.544,39.984 c -0.137,1.224 -1.157,1.769 -3.06,1.632 -1.09,-0.134 -2.04,-1.087 -2.856,-2.856 0.679,-0.816 1.495,-1.154 2.448,-1.02 2.448,0.137 3.602,0.886 3.468,2.244 z m -4.284,27.336 -0.612,0 -0.612,0.816 0.612,0.408 0.612,-1.224 z m 0.204,17.952 c 0,-1.766 0.067,-4.147 0.204,-7.14 -0.274,-0.408 -0.682,-1.02 -1.224,-1.836 l -0.204,1.836 c 0,0.953 0.271,1.973 0.816,3.06 -0.682,1.769 -0.545,3.13 0.408,4.08 z m 0.204,-22.644 -0.612,0 -0.408,1.02 0.612,0.204 0.408,-1.224 z m -0.204,2.448 0,-0.816 -0.408,0 -0.204,0.816 0.612,0 z m 4.896,15.708 -0.408,-0.204 -0.408,0.816 0.408,0.408 0.408,-1.02 z m 6.12,65.28 -1.02,-0.204 0,-0.611 1.02,0.203 0,0.612 z m 3.264,-72.012 0.204,-2.856 c -0.274,-0.134 -0.545,-0.338 -0.816,-0.612 0,0.408 -0.137,1.565 -0.408,3.468 l -0.408,0.204 c 0,0.274 0,0.612 0,1.02 0.134,-0.271 0.612,-0.679 1.428,-1.224 z m 4.284,-34.884 c -2.993,1.361 -4.217,2.04 -3.672,2.04 -1.499,-0.134 -2.11,-1.428 -1.836,-3.876 0.134,-1.766 0.816,-2.582 2.04,-2.448 0.95,0.137 2.174,0.816 3.672,2.04 l -0.204,2.244 z m -3.264,19.992 0,-0.816 -0.612,-0.204 0,0.816 0.612,0.204 z M 51.408,22.032 c -0.545,0.545 -0.886,0.816 -1.02,0.816 0.408,0 -0.749,-0.612 -3.468,-1.836 0,-0.542 0.134,-1.632 0.408,-3.264 1.087,0.408 2.515,1.02 4.284,1.836 l -0.204,2.448 z m 3.672,50.388 -0.408,-0.204 -0.408,1.02 0.408,0.204 0.408,-1.02 z M 66.096,56.712 c 0.271,-2.174 0.271,-3.398 0,-3.672 -1.09,0.953 -1.702,1.769 -1.836,2.448 0,0.408 0.067,0.75 0.204,1.02 l 0,0.408 c 0.134,0 0.408,-0.032 0.816,-0.102 0.408,-0.067 0.678,-0.102 0.816,-0.102 z m 12.648,64.872 1.632,-26.52 c 0,0.408 -0.102,1.122 -0.306,2.142 -0.204,1.02 -0.376,1.734 -0.51,2.142 l -0.816,22.236 z m 2.244,-28.356 -0.612,0 -0.408,1.02 0.612,0.204 0.408,-1.224 z m 0.204,-1.224 -0.612,0 -0.408,1.02 0.408,0.204 0.612,-1.224 z m 0.408,-4.08 c -0.274,-1.358 -0.341,-2.311 -0.204,-2.856 -0.408,3.13 -0.545,4.966 -0.408,5.508 0,-0.408 0.204,-1.291 0.612,-2.652 z m 0.408,-5.712 0.408,-4.08 c -0.816,1.361 -1.224,2.244 -1.224,2.652 0.134,0.274 0.408,0.749 0.816,1.428 z m 0.816,-5.508 -0.612,-0.204 -0.408,0.612 0.612,0.408 0.408,-0.816 z m 0.204,34.476 0.408,-3.06 -0.612,0 -0.408,3.06 0.612,0 z m 0.204,2.244 0.204,-1.224 -0.612,0 -0.204,1.224 0.612,0 z m 0.204,3.672 -0.408,1.428 -0.408,-0.204 0.408,-1.224 0.408,0 z m 0,-10.608 0.204,-2.856 -0.612,0 -0.204,2.856 0.612,0 z m 0.204,-6.324 0.204,-1.224 -0.612,0 -0.204,1.224 0.612,0 z m 0.612,-15.504 0.204,-2.652 -0.612,0 -0.204,2.448 0.612,0.204 z m 19.584,6.528 c -0.408,0 -0.682,-0.204 -0.816,-0.612 0.679,-1.632 1.087,-3.264 1.224,-4.896 -0.816,1.361 -1.836,3.264 -3.06,5.712 0.271,0.816 0.338,1.428 0.204,1.836 0,0.545 -0.341,1.09 -1.02,1.632 l -0.204,2.244 c 0.816,-0.408 1.597,-1.46 2.346,-3.162 0.746,-1.699 1.189,-2.617 1.326,-2.754 z m -0.816,56.305 c -0.408,0.545 -1.02,0.745 -1.836,0.611 0.134,0.134 0.204,0.408 0.204,0.816 1.087,-0.274 1.632,-0.749 1.632,-1.427 z m 1.428,-1.225 -1.02,1.02 -0.204,-0.408 0.816,-1.02 0.408,0.408 z m 6.324,-69.156 c 0,-0.271 -0.07,-0.542 -0.204,-0.816 -0.137,-0.271 -0.204,-0.475 -0.204,-0.612 -0.274,0 -0.478,0.137 -0.612,0.408 0.134,0.816 -0.274,1.428 -1.224,1.836 -0.408,1.906 -1.361,4.15 -2.856,6.732 0,-1.087 -0.07,-1.903 -0.204,-2.448 0,0.408 -0.172,0.918 -0.51,1.53 -0.341,0.612 -0.51,1.122 -0.51,1.53 l 1.02,-0.408 c 0.271,0.274 0.408,0.612 0.408,1.02 3.127,-5.438 4.759,-8.364 4.896,-8.772 z m -4.08,4.08 0.204,-1.02 -0.408,0.204 c -0.274,0.137 -0.408,0.274 -0.408,0.408 0,0.274 0.204,0.408 0.612,0.408 z m 5.508,-11.832 -0.408,-0.204 -0.612,1.836 0.612,0 0.408,-1.632 z m 2.04,0.816 c 0,-0.134 -0.035,-0.373 -0.102,-0.714 -0.07,-0.338 -0.102,-0.577 -0.102,-0.714 -0.274,0.408 -0.682,0.953 -1.224,1.632 0.408,-0.271 0.883,-0.338 1.428,-0.204 z m 0.612,-4.284 -0.612,0 -0.612,1.632 0.612,0.204 0.612,-1.836 z m 11.832,-8.772 -0.408,0 -0.408,1.02 0.204,0.408 0.612,-1.428 z m 2.244,-14.688 -0.204,-0.612 -1.428,1.224 0.408,0.204 1.224,-0.816 z m -0.612,47.124 -0.408,-0.408 -0.408,0.204 0.408,0.612 0.408,-0.408 z m 2.244,-5.916 c -0.682,0.953 -1.157,1.632 -1.428,2.04 l 0.612,0 c 0.408,-0.95 0.679,-1.632 0.816,-2.04 z m 3.264,-14.688 -0.612,-0.204 -0.612,2.244 0.408,0 0.816,-2.04 z m 0.204,-47.532 -0.816,0.816 -0.408,-0.204 0.612,-1.02 0.612,0.408 z m 1.02,46.716 0,-1.428 -0.612,0 0,1.428 0.612,0 z m 2.652,5.508 -1.02,1.428 -0.408,-0.204 1.02,-1.224 0.408,0 z m -0.204,-7.956 -1.02,0.204 0,-0.408 0.816,-0.408 0.204,0.612 z m 3.06,-47.124 c -0.682,1.498 -1.294,2.652 -1.836,3.468 -0.137,-0.271 -0.204,-0.612 -0.204,-1.02 0,-0.408 0.679,-1.224 2.04,-2.448 z m 0.816,4.692 -0.612,0 0,-1.02 0.612,0 0,1.02 z m 2.04,-7.14 -1.836,2.04 -0.408,-0.408 1.836,-2.04 0.408,0.408 z m -1.02,8.16 -1.224,1.02 c 0,-0.542 0.338,-1.291 1.02,-2.244 0,0.545 0.067,0.953 0.204,1.224 z"
       id="path5"
       inkscape:connector-curvature="0"
       style="fill:#6e7171" /><path
       d="m 233.783,85.884 c 0,2.448 -1.021,6.053 -3.06,10.812 -0.816,2.314 -1.973,5.986 -3.468,11.016 -1.632,1.769 -3.946,4.762 -6.936,8.976 l 1.02,-2.04 c 0.816,-1.495 1.087,-2.378 0.816,-2.652 -1.09,1.498 -2.585,3.946 -4.488,7.344 -0.816,0.682 -2.04,1.973 -3.672,3.876 -0.816,1.499 -1.973,3.672 -3.468,6.528 -3.539,5.033 -7.481,9.113 -11.832,12.24 -7.481,5.578 -12.444,8.364 -14.892,8.364 -0.408,0 -1.02,-0.137 -1.836,-0.408 -0.816,-0.274 -1.361,-0.408 -1.632,-0.408 -1.09,0 -2.62,0.236 -4.59,0.714 -1.973,0.476 -3.503,0.715 -4.59,0.715 -4.08,0 -8.434,-2.178 -13.056,-6.528 l -4.08,-0.816 c -0.137,0.408 -0.204,0.953 -0.204,1.633 0,0.682 0.067,1.498 0.204,2.447 -1.361,-1.766 -3.197,-4.08 -5.508,-6.936 -0.137,-0.679 -0.478,-1.903 -1.02,-3.672 -0.408,-0.271 -0.816,-0.542 -1.224,-0.816 -0.274,-1.766 -0.682,-4.488 -1.224,-8.16 0.679,-0.816 1.02,-1.428 1.02,-1.836 -1.361,-3.127 -2.244,-5.779 -2.652,-7.956 0.408,-0.408 0.408,-4.08 0,-11.016 1.224,-9.926 3.739,-19.718 7.548,-29.376 1.495,-4.214 4.418,-8.635 8.772,-13.26 4.622,-5.438 8.772,-8.568 12.444,-9.384 0.542,0 3.127,-1.087 7.752,-3.264 -9.384,3.809 -16.865,9.725 -22.44,17.748 -0.137,0.137 0,0.408 0.408,0.816 l 1.02,-0.816 c -1.769,1.906 -3.197,4.217 -4.284,6.936 l 0.816,0.408 c 4.214,-5.846 11.083,-12.036 20.604,-18.564 -0.408,0 -1.565,0.341 -3.468,1.02 8.702,-5.167 15.434,-7.682 20.196,-7.548 -0.137,0 -0.408,0.204 -0.816,0.612 0.408,0.274 0.883,0.408 1.428,0.408 0.679,0 1.699,-0.134 3.06,-0.408 1.358,-0.271 2.378,-0.408 3.06,-0.408 0.408,0 1.326,0.478 2.754,1.428 1.428,0.953 2.276,1.428 2.55,1.428 0.542,0 0.781,-0.102 0.714,-0.306 -0.07,-0.204 0.032,-0.306 0.306,-0.306 0.408,0.137 0.985,0.581 1.734,1.326 0.746,0.749 2.754,2.958 6.018,6.63 0.542,1.224 1.903,2.856 4.08,4.896 l 0.816,-0.816 c -0.953,-0.408 -1.326,-0.95 -1.122,-1.632 0.204,-0.679 0.032,-1.224 -0.51,-1.632 2.174,0 3.806,0.478 4.896,1.428 0.816,-0.95 1.224,-1.562 1.224,-1.836 0.542,1.498 1.632,3.06 3.264,4.692 0.95,1.09 2.378,4.558 4.284,10.404 0,0.545 0.067,1.428 0.204,2.652 0.271,0.545 0.883,1.09 1.836,1.632 0.816,1.223 1.224,2.447 1.224,3.671 z m -69.36,-21.624 -2.652,2.856 -0.204,-0.612 2.448,-2.448 0.408,0.204 z m 3.264,-2.04 -2.652,2.04 -0.204,-0.816 2.448,-1.836 0.408,0.612 z m 32.436,19.584 c -1.361,-2.04 -2.177,-3.602 -2.448,-4.692 -1.769,1.224 -4.625,3.538 -8.568,6.936 0.134,-0.816 0.679,-1.836 1.632,-3.06 -6.257,7.752 -10.812,16.39 -13.668,25.908 -0.545,-0.816 -0.886,-1.224 -1.02,-1.224 -0.953,0 -1.871,1.632 -2.754,4.896 -0.886,3.264 -1.326,5.578 -1.326,6.936 0,2.722 0.612,6.257 1.836,10.608 5.438,-1.495 10.675,-5.508 15.708,-12.036 5.03,-6.528 7.478,-12.444 7.344,-17.748 0.542,0.274 0.95,-0.134 1.224,-1.224 l 0.612,-1.428 c -1.09,-0.408 -2.244,-0.883 -3.468,-1.428 0.134,-0.679 0.204,-1.224 0.204,-1.632 0,-1.358 -2.177,-2.582 -6.528,-3.672 l 5.1,-0.204 c 0.679,0.274 1.632,0.886 2.856,1.836 0.134,-0.408 0.338,-0.883 0.612,-1.428 -0.816,0 -1.294,-0.067 -1.428,-0.204 0.679,-0.679 0.95,-1.224 0.816,-1.632 -0.545,-0.408 -1.294,-0.95 -2.244,-1.632 2.04,-0.679 3.398,-1.562 4.08,-2.652 -0.408,-0.542 -0.953,-1.154 -1.632,-1.836 0.408,0 0.95,0.102 1.632,0.306 0.679,0.204 1.154,0.306 1.428,0.306 z m -18.156,-29.784 -1.224,0 0,-0.816 1.224,0 0,0.816 z m 8.772,0.204 c -1.498,0.408 -4.558,1.428 -9.18,3.06 l 1.836,0 c 0.816,0.137 3.264,-0.883 7.344,-3.06 z m -6.12,-1.224 -1.224,0 0,-0.816 1.224,0 0,0.816 z m 8.976,43.86 -1.02,0 0,-0.816 1.02,0 0,0.816 z m 36.312,-33.456 -0.816,0 0,-1.836 0.816,0 0,1.836 z"
       id="path7"
       inkscape:connector-curvature="0"
       style="fill:#6e7171" /><path
       d="m 230.109,38.76 c 1.903,-0.816 3.398,-1.428 4.488,-1.836 0.134,1.632 0.204,2.722 0.204,3.264 -2.722,1.09 -3.876,1.632 -3.468,1.632 -0.137,0 -0.478,-0.204 -1.02,-0.612 l -0.204,-2.448 z m 5.304,49.776 0.204,-0.816 -0.204,-2.04 c 1.495,-3.535 2.856,-5.371 4.08,-5.508 0.95,0 1.836,0.612 2.652,1.836 0.271,0.816 0.678,1.565 1.223,2.244 0.271,-0.134 0.68,-0.204 1.225,-0.204 1.357,0 2.107,1.02 2.244,3.06 0.135,3.946 -0.953,5.916 -3.264,5.916 -0.137,0 -0.205,-0.067 -0.205,-0.204 l -0.406,0.204 c -0.683,0 -1.566,0.408 -2.653,1.224 -3.538,-2.582 -5.304,-4.147 -5.304,-4.692 0.001,-0.271 0.135,-0.612 0.408,-1.02 z m 4.284,43.86 -2.244,7.548 0.408,0.204 2.448,-7.752 -0.612,0 z m 77.928,-65.892 c -0.406,-1.632 -0.406,-2.582 0,-2.856 -1.09,-3.943 -1.904,-6.936 -2.447,-8.976 -1.906,-1.495 -3.131,-2.311 -3.672,-2.448 -0.408,0.953 -0.611,1.702 -0.611,2.244 l -0.408,0 c -1.09,-1.766 -1.973,-2.582 -2.652,-2.448 l -2.447,1.428 c -0.275,-0.408 -0.479,-0.679 -0.613,-0.816 -2.721,-1.632 -4.488,-2.378 -5.303,-2.244 -0.816,0 -3.266,1.973 -7.346,5.916 -0.682,0 -1.223,-0.271 -1.631,-0.816 0,0.682 -0.137,1.157 -0.408,1.428 l -1.225,0.204 c -0.273,0 -0.375,-0.102 -0.305,-0.306 0.066,-0.204 -0.035,-0.306 -0.307,-0.306 -0.682,0 -1.361,0.749 -2.039,2.244 l 0,1.836 c 0,0.682 -0.139,1.224 -0.408,1.632 1.223,-1.766 2.105,-3.06 2.65,-3.876 l 0.205,0.408 c -5.033,8.842 -9.113,15.574 -12.24,20.196 -0.137,-1.766 -0.137,-4.214 0,-7.344 -0.137,-0.134 -0.203,-0.271 -0.203,-0.408 0.406,-3.672 0.406,-6.732 0,-9.18 -0.139,0 -0.24,0.07 -0.307,0.204 -0.07,0.137 -0.24,0.204 -0.51,0.204 -0.545,0 -0.75,-0.816 -0.613,-2.448 l 0.408,-2.448 c -2.992,-3.264 -5.236,-4.488 -6.73,-3.672 2.719,1.361 4.01,2.448 3.875,3.264 1.088,0.274 1.699,1.157 1.836,2.652 0,0.545 -0.07,0.953 -0.203,1.224 -1.361,-2.719 -2.789,-4.284 -4.285,-4.692 0,0.137 0.066,0.341 0.205,0.612 0.133,0.274 0.203,0.478 0.203,0.612 l 0.611,-0.204 c 0.68,0 1.43,0.682 2.244,2.04 l -1.631,0.816 c -2.855,-3.127 -4.559,-4.759 -5.1,-4.896 0.27,-0.408 0.406,-0.883 0.406,-1.428 -2.313,1.498 -4.486,2.448 -6.527,2.856 -1.498,0.682 -2.584,1.157 -3.264,1.428 -0.137,0.545 -0.203,1.02 -0.203,1.428 -0.547,1.09 -1.295,1.906 -2.244,2.448 -1.225,-0.408 -2.178,-0.679 -2.857,-0.816 0,-0.134 -0.203,-0.067 -0.611,0.204 0.271,0 0.408,0.137 0.408,0.408 -0.682,1.906 -1.09,2.993 -1.225,3.264 0.135,-0.134 0.439,-0.271 0.918,-0.408 0.475,-0.134 0.781,-0.271 0.918,-0.408 0.135,0.137 0.135,0.274 0,0.408 -1.498,1.906 -2.244,3.06 -2.244,3.468 -1.09,0.545 -1.906,1.09 -2.447,1.632 l 0.816,-0.612 c 0.408,0.408 0.678,0.75 0.816,1.02 -0.139,0.274 -0.139,0.612 0,1.02 0.541,-1.495 0.949,-2.377 1.223,-2.652 0.271,0.545 0.205,1.02 -0.203,1.428 0.678,-0.134 0.949,0.478 0.816,1.836 0.949,4.217 1.494,6.598 1.631,7.14 0.135,0.816 -0.137,2.722 -0.816,5.712 0.135,-0.134 0.408,0.137 0.816,0.816 -1.09,5.986 -1.836,9.996 -2.244,12.036 -1.77,9.521 -3.061,15.504 -3.875,17.952 -1.498,4.217 -2.244,7.548 -2.244,9.996 0,0.137 -0.102,0.478 -0.307,1.02 -0.203,0.545 -0.307,0.953 -0.307,1.224 0,0.545 0.135,0.816 0.408,0.816 l 5.713,-17.748 -5.508,21.216 c 0.949,-3.264 1.699,-5.575 2.244,-6.936 0,0.274 -0.75,3.197 -2.244,8.772 0,-0.271 0.27,-0.475 0.816,-0.612 l -2.449,6.12 c -0.137,-0.816 0.032,-1.903 0.509,-3.264 0.475,-1.358 0.645,-2.174 0.51,-2.448 -0.953,3.401 -1.498,5.374 -1.631,5.916 0,-0.134 0.067,-0.271 0.204,-0.408 0.134,0.816 -0.682,4.15 -2.448,9.996 l -0.407,-0.611 c 0.134,2.174 -0.07,3.602 -0.612,4.284 0.679,-1.091 1.224,-1.906 1.632,-2.448 0.134,0.408 0.204,0.679 0.204,0.815 -0.137,-1.09 0.271,-2.518 1.224,-4.284 l 0.408,0.613 c 0,-0.135 0.067,-0.338 0.204,-0.613 0.134,0.816 0.032,1.767 -0.306,2.856 -0.342,1.087 -0.511,1.836 -0.511,2.244 0.542,-1.498 0.95,-2.519 1.225,-3.06 0.408,0.407 0.611,0.679 0.611,0.815 -0.682,1.766 -1.02,3.061 -1.02,3.876 1.631,-3.264 2.514,-5.033 2.653,-5.304 8.293,-21.895 12.443,-32.911 12.443,-33.048 2.582,-8.293 4.758,-16.045 6.527,-23.256 0.951,0.953 1.428,1.294 1.428,1.02 -4.762,17.952 -7.209,27.132 -7.344,27.54 -3.264,12.24 -6.801,22.032 -10.607,29.376 0.408,-0.274 0.611,-0.204 0.611,0.204 l 0,1.224 c 0.543,-1.769 1.291,-3.264 2.244,-4.488 0.271,0.138 0.338,0.275 0.205,0.408 -0.953,2.856 -1.77,4.622 -2.449,5.305 -1.906,3.806 -3.129,6.799 -3.672,8.976 0.816,-1.632 1.428,-2.789 1.836,-3.468 0.135,0 0.135,0.134 0,0.408 0,0.134 0.135,0.204 0.408,0.204 0.271,-0.138 1.496,-2.586 3.672,-7.345 3.398,-7.344 5.168,-11.149 5.305,-11.424 0.133,0.137 0.203,0.408 0.203,0.816 0.135,0.954 -1.428,4.966 -4.691,12.037 0.816,-1.091 1.563,-2.04 2.244,-2.856 0.133,-0.408 0.271,-0.545 0.408,-0.408 0.408,-0.273 0.746,-0.273 1.02,0 -1.225,3.127 -2.039,5.575 -2.447,7.345 1.494,-2.586 3.127,-6.054 4.895,-10.404 l -0.611,0.612 c 0,-0.408 0.408,-1.496 1.225,-3.265 0.271,0.274 0.408,0.479 0.408,0.612 0.27,-2.174 0.611,-3.739 1.02,-4.692 0.408,0.408 0.475,0.749 0.203,1.02 3.127,-5.983 4.693,-10.471 4.693,-13.464 1.357,-2.174 2.039,-3.806 2.039,-4.896 0,-0.408 -0.203,-0.746 -0.611,-1.02 0.541,-0.408 0.883,-0.679 1.02,-0.816 0.135,-1.224 0.408,-1.97 0.816,-2.244 l -0.205,-1.428 c -0.273,-0.542 -0.203,-1.154 0.205,-1.836 l 0.611,0.408 c 0.543,-1.495 0.951,-2.582 1.225,-3.264 -0.545,0.682 -1.02,1.09 -1.428,1.224 0,-1.632 0.408,-2.652 1.223,-3.06 0.271,0.408 0.408,0.816 0.408,1.224 2.582,-9.384 4.555,-14.551 5.916,-15.504 l 0.613,0.612 c 0.27,-0.271 0.746,-0.408 1.428,-0.408 0.133,-1.087 0.475,-2.174 1.02,-3.264 0.271,0.137 0.338,0.274 0.203,0.408 -0.273,1.632 -0.682,3.06 -1.223,4.284 -0.275,-0.271 -0.342,-0.408 -0.205,-0.408 0.408,0.408 0.613,0.816 0.613,1.224 0,0.408 -0.24,1.192 -0.715,2.346 -0.479,1.157 -0.58,2.008 -0.307,2.55 1.359,-2.719 2.174,-4.214 2.449,-4.488 l 0.408,0.408 c -0.137,1.632 -0.205,2.856 -0.205,3.672 1.225,-2.582 2.174,-4.214 2.857,-4.896 l 0.406,0.408 c -0.273,0.816 -0.34,1.769 -0.203,2.856 0.949,-1.224 1.633,-2.244 2.039,-3.06 0.68,0.953 1.359,1.428 2.041,1.428 0.541,-0.95 0.883,-1.699 1.02,-2.244 0.271,0.274 0.338,1.157 0.205,2.652 2.039,-3.943 3.264,-6.254 3.672,-6.936 0.133,0.137 0.27,0.478 0.408,1.02 1.766,-3.127 2.785,-4.963 3.059,-5.508 0.135,0.274 0.205,1.02 0.205,2.244 l 0.611,-0.612 c 0.271,0.274 0.543,0.408 0.816,0.408 0.271,0 1.563,-1.903 3.875,-5.712 2.313,-3.806 3.604,-5.712 3.877,-5.712 l 0.816,0 0.408,0 0.408,-1.632 c 0,-1.087 0.338,-1.632 1.02,-1.632 0.408,0 1.223,0.239 2.447,0.714 1.225,0.478 2.041,0.714 2.449,0.714 0.27,0 0.611,-0.271 1.02,-0.816 -0.137,-0.816 -0.07,-1.291 0.203,-1.428 0.816,1.09 1.225,1.973 1.225,2.652 0.133,-1.632 0.338,-2.856 0.611,-3.672 0.408,0.953 0.68,1.702 0.816,2.244 l -0.611,0.816 1.631,0 c -0.137,-2.856 -0.07,-4.622 0.205,-5.304 0.814,-1.495 1.291,-2.378 1.428,-2.652 -0.406,-1.632 -0.611,-2.582 -0.611,-2.856 z m -78.539,88.944 -0.408,1.225 0.408,0.204 0.407,-1.429 -0.407,0 z m 2.039,-3.264 -0.407,1.02 0.407,0 0.408,-0.815 -0.408,-0.205 z m 2.244,-3.672 -0.406,-0.204 2.242,-7.548 0.408,0 -2.244,7.752 z m 0.816,14.688 -0.816,1.632 0.613,0.204 0.611,-1.632 -0.408,-0.204 z m 0.408,-106.08 c 1.496,-1.224 2.719,-1.836 3.672,-1.836 1.225,-0.134 1.902,0.682 2.041,2.448 0.133,2.448 -0.545,3.742 -2.041,3.876 0.543,0 -0.682,-0.746 -3.672,-2.244 l 0,-2.244 z m 1.428,104.652 -1.428,3.264 0.816,0 1.225,-3.264 -0.613,0 z m -0.203,-21.828 0,-0.816 0.611,0 0,0.816 -0.611,0 z m 1.019,-14.892 -0.611,0 0.408,-2.04 0.611,0 -0.408,2.04 z m 0.612,-2.04 -0.408,0 0.816,-5.1 0.613,0 -1.021,5.1 z m 0.816,34.272 -0.816,0.816 0.408,0.408 0.816,-0.816 -0.408,-0.408 z m 0.205,-91.188 -0.613,0 0,1.02 0.613,0 0,-1.02 z m 1.223,-4.896 c -0.545,0.545 -1.02,1.361 -1.428,2.448 0.271,-0.95 0.746,-1.562 1.428,-1.836 l 0.816,0.408 c -0.408,-0.542 -0.681,-0.883 -0.816,-1.02 z m 0.816,12.444 -0.816,1.224 0.613,0.408 0.611,-1.428 -0.408,-0.204 z m 0.205,16.116 -0.613,0 0,1.02 0.613,0 0,-1.02 z m -0.205,-20.808 0,-1.02 0.611,0 0,1.02 -0.611,0 z m 1.02,16.932 -0.611,0 0.203,1.02 0.613,0 -0.205,-1.02 z m 0.816,-19.584 -0.408,-0.204 0.408,-0.816 0.408,0.204 -0.408,0.816 z m -0.203,-2.04 c 0.408,-1.224 0.949,-1.97 1.631,-2.244 l 0.205,1.836 c -0.408,-0.271 -1.021,-0.134 -1.836,0.408 z m 0.408,4.08 -0.408,-0.204 0.408,-0.816 0.203,0 -0.203,1.02 z m 0.407,49.368 -0.406,-0.204 0.406,-1.02 0.613,0.204 -0.613,1.02 z m 3.673,9.996 -0.408,-0.204 0.408,-2.04 0.611,0 -0.611,2.244 z m 2.448,-66.708 c -0.137,-1.358 1.02,-2.107 3.469,-2.244 0.949,0 1.766,0.478 2.447,1.428 l -5.916,0.816 z m 0.611,77.316 0,-0.816 0.613,-0.204 0,0.816 -0.613,0.204 z m 1.021,-1.428 -0.408,-0.204 1.02,-3.06 0.408,0 -1.02,3.264 z m 1.631,-6.12 0,-0.816 0.611,0 0,0.816 -0.611,0 z m 0.409,-1.02 -0.203,-0.816 0.611,0 0.203,0.816 -0.611,0 z m 0.408,-1.632 0,-1.224 0.611,-0.204 0,1.224 -0.611,0.204 z m 0.611,-1.836 -0.203,-1.224 0.611,0 0.205,1.224 -0.613,0 z m 0.408,-72.42 c 0,-0.408 0.439,-0.883 1.326,-1.428 0.883,-0.542 1.529,-0.816 1.938,-0.816 0.271,0 0.51,0.102 0.715,0.306 0.203,0.204 0.373,0.306 0.51,0.306 0.541,-0.95 1.563,-1.428 3.061,-1.428 3.264,-0.134 4.963,1.09 5.1,3.672 0.133,0.545 0,1.906 -0.408,4.08 l -12.242,-4.692 z m 0.612,36.108 -0.611,0 0.205,-2.652 0.611,0 -0.205,2.652 z m -0.407,34.068 0,-1.02 0.406,0 0,1.02 -0.406,0 z m 1.02,-33.864 -0.613,0 0.408,-2.856 0.613,0 -0.408,2.856 z m 3.672,19.992 -0.408,-0.204 0.203,-0.816 0.613,0.204 -0.408,0.816 z m 0.408,-1.428 -0.408,0 0.408,-1.836 0.611,0 -0.611,1.836 z m 0.611,-3.672 -0.408,-0.204 0.613,-1.428 0.611,0 -0.816,1.632 z m 1.02,-1.836 -0.408,0.204 0,-1.836 0.613,-0.204 -0.205,1.836 z m 0.408,-28.968 -0.611,-0.204 0.408,-1.02 0.611,0 -0.408,1.224 z m 0,3.264 0,-1.224 0.613,0 0,1.224 -0.613,0 z m 0.816,-2.04 -0.408,0 0,-2.244 0.611,0 -0.203,2.244 z m 2.245,21.828 -0.408,1.836 0.408,0.204 0.611,-1.836 -0.611,-0.204 z m 3.06,-27.132 -0.613,0 0.205,0.816 0.611,0 -0.203,-0.816 z m 7.344,-7.14 -0.408,1.02 0.408,0.204 0.408,-1.224 -0.408,0 z m 10.607,27.948 -1.225,1.02 0.408,0.408 1.225,-1.224 -0.408,-0.204 z m 3.061,-4.08 -0.408,-0.204 0.408,-0.816 0.408,0 -0.408,1.02 z m 1.631,-39.168 c -0.406,0.545 -0.885,0.816 -1.428,0.816 1.766,-0.134 2.652,0.341 2.652,1.428 0,-1.224 -0.408,-1.97 -1.224,-2.244 z m 11.017,32.232 c 0,-0.408 -0.139,-0.679 -0.408,-0.816 0,1.09 -0.137,1.702 -0.408,1.836 l 0.611,0 c 0.135,-0.408 0.205,-0.746 0.205,-1.02 z m 1.223,-10.404 -0.408,-2.04 0.613,0 0.408,1.836 -0.613,0.204 z m 2.041,1.02 c 0.541,2.04 0.883,3.197 1.02,3.468 -1.225,-2.04 -1.906,-3.194 -2.039,-3.468 0,-0.271 0.066,-0.612 0.203,-1.02 0.135,-0.408 0.203,-0.679 0.203,-0.816 0.543,0.408 0.951,0.612 1.225,0.612 -10e-4,0.137 -0.204,0.545 -0.612,1.224 z m 3.467,4.692 -0.408,0 0,1.224 0.408,0 0,-1.224 z"
       id="path9"
       inkscape:connector-curvature="0"
       style="fill:#6e7171" /><path
       d="m 455.324,100.368 c -2.041,-0.271 -3.809,0.204 -5.305,1.428 -0.273,0.545 -0.748,1.157 -1.428,1.836 -1.225,1.09 -2.518,2.11 -3.877,3.06 -1.631,1.498 -2.381,2.856 -2.242,4.08 -1.77,1.769 -5.713,5.17 -11.832,10.2 -0.139,0.137 -0.07,0.341 0.203,0.612 1.902,-0.816 3.33,-1.699 4.283,-2.652 l 1.43,1.428 c 0,0.545 -0.07,0.749 -0.205,0.612 l 0.816,0.204 c 1.494,0 3.602,-1.224 6.324,-3.672 l -3.672,3.06 c 0.133,0.137 0.611,0.274 1.428,0.408 1.225,0 3.467,-0.883 6.732,-2.652 l -0.205,1.428 c -0.682,0.953 -1.701,2.11 -3.061,3.468 -1.498,0.408 -3.264,1.632 -5.303,3.672 0.541,0.274 1.428,0.137 2.652,-0.408 -0.408,0.408 -1.057,0.918 -1.939,1.53 -0.885,0.612 -1.529,1.122 -1.938,1.53 l 1.02,1.224 c -1.906,-0.271 -2.855,0.204 -2.855,1.428 l 0,1.428 c -0.273,0 -1.225,0.408 -2.855,1.224 0,0.408 0.475,0.612 1.428,0.612 -2.992,1.906 -6.189,3.876 -9.588,5.916 l -1.225,1.225 c 0,0.273 0.135,0.816 0.408,1.632 0.135,0.545 0.066,1.091 -0.203,1.632 l -5.713,4.08 c -2.447,1.903 -4.42,2.856 -5.916,2.856 -3.4,-0.138 -5.1,0.541 -5.1,2.04 l -5.508,-0.204 c -0.408,0.134 -0.682,0.031 -0.816,-0.307 -0.137,-0.341 -0.342,-0.58 -0.611,-0.714 -0.545,0 -3.131,0.679 -7.752,2.04 -2.857,0.816 -5.916,1.154 -9.18,1.021 -7.891,-0.408 -15.371,-2.856 -22.441,-7.345 -0.137,-0.273 -0.408,-0.682 -0.816,-1.224 -2.584,-1.357 -3.672,-2.04 -3.264,-2.04 -0.545,0 -0.885,0.07 -1.02,0.204 l 0.408,-0.408 0,-0.204 -0.611,0 -1.021,-1.02 c -0.682,-0.816 -1.361,-1.154 -2.039,-1.021 0.271,0.545 0.816,1.428 1.631,2.652 -1.09,-1.087 -2.518,-2.786 -4.283,-5.1 0,-0.679 -0.137,-1.632 -0.408,-2.856 -1.09,-2.311 -2.518,-5.983 -4.283,-11.016 -0.684,0.137 -1.021,0.478 -1.021,1.02 0,0.816 0.068,1.157 0.205,1.02 0,-0.542 -0.273,-1.087 -0.816,-1.632 l -0.611,0.612 c -0.816,4.762 -2.855,12.24 -6.121,22.44 0.271,0.407 -0.34,0.611 -1.836,0.611 -0.273,0 -0.748,-0.273 -1.428,-0.815 -0.682,-0.545 -1.293,-0.816 -1.836,-0.816 0,-0.408 0.271,-0.886 0.816,-1.428 -0.137,-0.271 -0.887,-0.746 -2.244,-1.429 -1.361,1.767 -3.605,4.692 -6.732,8.772 l -1.428,-1.632 c 0.949,-1.224 1.428,-1.973 1.428,-2.244 0,-0.545 -0.479,-1.428 -1.428,-2.652 -0.545,0.271 -1.701,1.699 -3.469,4.284 -0.814,-1.224 -1.768,-2.722 -2.855,-4.487 -0.137,0.134 -1.631,1.224 -4.488,3.264 -1.223,-2.448 -1.836,-4.146 -1.836,-5.1 0.135,-0.95 0.613,-1.766 1.428,-2.448 -0.137,-0.271 -0.406,-0.612 -0.814,-1.021 l -1.021,0 c -0.406,0 -0.611,0.204 -0.611,0.612 l 0,-1.429 c 0.816,-0.541 1.633,-1.494 2.447,-2.855 1.225,-3.535 2.244,-9.247 3.061,-17.136 0.271,-0.408 0.543,-1.224 0.816,-2.448 0.135,-0.271 0.203,-1.562 0.203,-3.876 0,-2.174 -0.137,-3.739 -0.406,-4.692 l 1.836,-1.428 5.303,-46.716 c 2.311,-20.263 4.623,-35.7 6.936,-46.308 0.543,-2.174 2.174,-7.07 4.896,-14.688 0.271,-3.127 0.338,-0.883 0.205,6.732 l -0.613,12.648 c 0.543,0 1.021,-0.338 1.428,-1.02 0.816,-5.03 2.652,-12.036 5.51,-21.012 0.949,0.408 2.105,1.361 3.467,2.856 0.543,-0.408 1.633,-0.542 3.264,-0.408 0.135,0 0.408,0.07 0.816,0.204 0.408,0.137 0.746,0.204 1.02,0.204 0.408,0 0.613,-0.134 0.613,-0.408 0,-0.271 0.203,-0.338 0.611,-0.204 0.271,0 0.541,0.137 0.816,0.408 0.271,0.274 0.611,0.408 1.02,0.408 1.357,0.137 2.174,-0.612 2.447,-2.244 l 2.244,4.896 c -0.137,3.401 -0.07,5.304 0.205,5.712 0.133,1.361 0,3.672 -0.408,6.936 0.271,0.953 0.541,2.11 0.816,3.468 l -8.16,64.668 c -0.275,2.585 0.816,5.17 3.264,7.752 0.271,0.682 1.291,2.314 3.061,4.896 9.518,-7.615 19.176,-20.059 28.967,-37.332 0.543,0.545 1.496,1.294 2.857,2.244 -0.545,2.04 -1.158,3.672 -1.836,4.896 l -0.205,1.428 c 0.816,0.137 1.633,-0.338 2.447,-1.428 l 1.633,-2.652 c 0.271,0.274 0.541,0.408 0.816,0.408 -0.137,2.177 -0.275,3.468 -0.408,3.876 1.086,-0.816 1.902,-1.766 2.447,-2.856 l -7.547,15.096 c -2.586,5.304 -5.646,9.929 -9.18,13.872 -0.408,0.408 -1.734,1.804 -3.979,4.182 -2.244,2.381 -3.367,3.707 -3.367,3.978 0,-0.408 0.613,0.682 1.836,3.264 -0.545,-0.542 -1.293,-1.358 -2.242,-2.448 -0.684,0.274 -1.43,1.224 -2.244,2.856 l 0.814,0.408 c 0.408,0.137 -0.273,0.204 -2.039,0.204 -0.682,0.274 -0.887,0.545 -0.611,0.816 -0.816,0.274 -1.906,1.294 -3.266,3.06 1.768,1.906 4.488,3.334 8.16,4.284 8.16,2.177 11.967,3.264 11.424,3.264 0.68,0 2.721,0 6.121,0 l 5.916,-0.204 0.611,0.816 c 4.488,0.274 14.893,-4.759 31.213,-15.096 -2.178,1.632 -6.461,4.488 -12.852,8.568 0,0.953 0.475,1.428 1.428,1.428 l 14.482,-7.956 c 9.385,-5.304 15.027,-7.886 16.934,-7.752 0.27,0 0.408,0.07 0.408,0.204 0,0.137 0.203,0.204 0.611,0.204 0.541,0.137 1.664,-0.102 3.365,-0.714 1.699,-0.612 2.889,-0.918 3.57,-0.918 0.27,0.139 1.427,0.547 3.468,1.226 z m -121.381,-89.76 -0.816,0 -1.02,5.712 0.613,0 1.223,-5.712 z m 11.629,120.36 -0.816,0 0,-1.02 0.816,0 0,1.02 z m 2.039,0.204 -0.408,-2.04 -0.814,-0.204 0.406,2.04 0.816,0.204 z m 5.099,-43.248 -2.039,1.632 -0.408,-0.408 2.041,-1.632 0.406,0.408 z m 8.569,20.604 -0.408,-0.408 -2.855,2.448 0.408,0.612 2.855,-2.652 z m -2.244,-97.512 -0.814,0 0,-1.02 0.814,0 0,1.02 z m 0.613,80.784 -0.613,-0.204 -0.408,-1.428 0.613,-0.204 0.408,1.836 z m 6.527,11.424 -0.408,-0.204 -4.08,4.08 0.408,0.408 4.08,-4.284 z m -2.244,42.636 -2.039,-1.02 -0.205,0.611 2.041,1.021 0.203,-0.612 z m 4.283,-36.108 -1.223,0 0,-0.816 1.223,0 0,0.816 z m 3.877,-46.512 -3.264,4.692 -0.613,-0.408 3.266,-4.896 0.611,0.612 z m -1.633,46.716 -0.203,0.612 -1.428,-0.612 0,-0.612 1.631,0.612 z m 16.934,43.452 c -4.896,-0.682 -8.027,-1.157 -9.385,-1.428 -3.539,-0.816 -6.324,-1.973 -8.363,-3.468 l 1.428,0 c 1.766,0.134 4.283,0.815 7.547,2.04 3.264,1.224 5.779,1.902 7.549,2.04 0.816,0 1.224,0.271 1.224,0.816 z m -14.892,-42.432 -0.205,0.612 -1.428,-0.612 0,-0.612 1.633,0.612 z m 4.691,-46.308 -1.225,1.632 -0.406,-0.612 1.02,-1.428 0.611,0.408 z m 1.019,-3.468 -0.814,1.632 -0.613,-0.204 0.816,-1.428 0.611,0 z m 0,28.356 -0.406,-0.408 -1.021,1.428 0.408,0.408 1.019,-1.428 z m 17.545,-20.808 c -1.633,3.13 -4.217,7.752 -7.752,13.872 -2.314,2.856 -5.645,7.14 -9.996,12.852 l 17.748,-26.724 z m -9.588,9.18 -0.611,0 -1.836,3.876 0.406,0.408 2.041,-4.284 z m 53.04,31.008 -0.203,-0.612 -2.652,1.224 0,0.612 2.855,-1.224 z m 17.748,-8.568 -1.223,-0.204 0,-0.612 1.223,0.204 0,0.612 z"
       id="path11"
       inkscape:connector-curvature="0"
       style="fill:#6e7171" /><path
       d="m 472.666,48.96 c -1.498,0.682 -3.061,1.769 -4.693,3.264 -0.137,-0.271 -0.408,-0.408 -0.814,-0.408 -1.633,0 -2.789,1.565 -3.469,4.692 2.855,-1.495 4.826,-2.856 5.916,-4.08 -0.682,0.545 -1.02,1.09 -1.02,1.632 0,0.408 0.27,0.816 0.814,1.224 -0.406,0.137 -2.789,1.294 -7.139,3.468 l 0.203,0.408 -1.02,-0.204 -0.611,0.612 c 1.494,0.408 2.719,0.612 3.672,0.612 -0.275,0.137 -0.887,0.612 -1.836,1.428 -0.684,-0.271 -1.703,0.035 -3.061,0.918 -1.361,0.886 -1.973,1.667 -1.836,2.346 -0.137,0.137 -1.156,0.953 -3.061,2.448 -0.137,0.274 -0.07,0.408 0.205,0.408 -0.137,0 -0.408,0.07 -0.816,0.204 -0.408,0.137 -0.682,0.204 -0.816,0.204 0.135,0 0.408,-0.134 0.816,-0.408 -1.361,-0.271 -2.652,0 -3.877,0.816 l -1.836,1.224 -1.223,0 c -0.139,0.137 -0.205,0.274 -0.205,0.408 0,0.274 0.135,0.545 0.408,0.816 -0.137,-0.134 -0.342,-0.067 -0.611,0.204 -0.275,0.274 -0.545,0.408 -0.816,0.408 -0.273,0 -0.273,-0.134 0,-0.408 0.135,-0.271 0,-0.408 -0.408,-0.408 -0.816,0 -2.855,0.816 -6.119,2.448 l -4.896,2.448 -3.264,1.02 c -1.361,0.682 -2.178,1.02 -2.449,1.02 l -0.814,0.612 c -2.314,0.545 -3.469,1.361 -3.469,2.448 0,1.09 0.816,2.448 2.447,4.08 0.135,0.953 0.543,2.381 1.225,4.284 2.174,0.274 3.398,0.408 3.672,0.408 0.271,0 0.408,-0.067 0.408,-0.204 0,-0.134 0.133,-0.204 0.408,-0.204 0.271,0 0.576,0.172 0.918,0.51 0.338,0.341 0.645,0.51 0.918,0.51 1.086,0 2.617,0.204 4.59,0.612 1.971,0.408 3.434,0.612 4.387,0.612 1.902,0.137 3.533,0.478 4.895,1.02 l 0.816,-0.816 c 2.174,0.545 5.576,2.244 10.201,5.1 l -0.408,0.204 c 0.27,0.816 1.02,1.906 2.244,3.264 l 1.02,0 c 0.408,0 0.541,-0.067 0.408,-0.204 l 2.447,2.652 c -0.137,0.137 -0.238,0.376 -0.307,0.714 -0.068,0.341 -0.172,0.58 -0.305,0.714 4.488,2.993 6.732,4.829 6.732,5.508 0,0.545 -0.104,1.396 -0.307,2.55 -0.205,1.157 -0.307,2.008 -0.307,2.55 0,0.816 0.066,1.769 0.205,2.856 -0.408,-0.271 -0.75,-0.408 -1.021,-0.408 0.271,-0.679 0.408,-1.428 0.408,-2.244 0,-0.816 -0.137,-1.766 -0.408,-2.856 -0.953,5.578 -1.768,9.658 -2.447,12.24 -1.361,4.896 -3.334,8.976 -5.916,12.24 -0.137,0.274 -0.479,0.816 -1.02,1.632 l 0.408,-0.612 -0.613,-0.612 c -0.408,0.545 -1.02,1.224 -1.836,2.04 0.135,0.137 0.338,0.274 0.613,0.408 l 1.02,-0.612 c -0.137,0.682 -0.545,1.498 -1.225,2.448 -1.09,0.545 -2.652,1.499 -4.691,2.856 -0.545,-1.225 -1.158,-1.836 -1.836,-1.836 -0.137,0.137 -1.158,0.479 -3.061,1.02 -0.273,0.408 -0.137,0.612 0.408,0.612 -0.682,1.361 -1.564,2.04 -2.652,2.04 -0.273,0 -0.408,-0.066 -0.408,-0.204 0,-0.134 -0.137,-0.204 -0.408,-0.204 -0.273,0 -0.646,0.172 -1.121,0.51 -0.479,0.342 -0.852,0.511 -1.123,0.511 -0.137,-0.271 -0.406,-0.612 -0.814,-1.021 -0.137,0.137 -0.342,0.307 -0.613,0.51 -0.273,0.205 -0.477,0.377 -0.611,0.511 0.68,0 1.154,0.137 1.428,0.407 -0.408,0 -1.055,-0.066 -1.938,-0.203 -0.887,-0.135 -1.529,-0.204 -1.938,-0.204 0.408,0 0.746,-0.134 1.02,-0.408 -0.408,-0.408 -0.682,-0.612 -0.816,-0.612 -0.545,0 -1.02,0.204 -1.428,0.612 l 1.02,1.224 c -0.273,-0.271 -0.545,-0.408 -0.816,-0.408 l -0.408,0.613 c 0.408,0.407 0.746,0.611 1.021,0.611 -4.08,1.357 -5.646,2.04 -4.693,2.04 l -1.223,-0.408 c -0.275,0 -0.918,0.373 -1.939,1.122 -1.02,0.746 -1.666,1.122 -1.938,1.122 -0.682,0 -1.701,0.067 -3.059,0.204 -1.361,0.134 -2.383,0.204 -3.061,0.204 -0.275,0 -0.816,-0.408 -1.633,-1.225 -0.137,0.271 -0.07,0.612 0.205,1.021 -1.225,0.408 -2.928,0.883 -5.102,1.428 -9.791,1.225 -16.727,1.836 -20.807,1.836 l -2.041,0 c -0.816,0 -2.447,-0.478 -4.895,-1.428 -0.139,0 -0.342,-0.07 -0.613,-0.204 l -1.02,0 c -0.408,0 -0.545,0.103 -0.408,0.306 0.135,0.204 0.066,0.307 -0.203,0.307 -0.275,0 -0.613,-0.138 -1.021,-0.408 -0.408,-0.137 -0.885,-0.137 -1.428,0 0.68,0.679 1.291,1.02 1.836,1.02 l -0.816,0 c -0.682,0.135 -1.156,0.204 -1.428,0.204 -0.273,0 -0.646,-0.238 -1.121,-0.714 -0.479,-0.478 -0.918,-0.714 -1.326,-0.714 -0.682,0 -1.02,0.338 -1.02,1.021 l -1.428,-0.612 c -0.953,-0.408 -1.43,-0.749 -1.43,-1.021 0,-0.137 0.068,-0.273 0.205,-0.407 -0.137,-0.274 -0.545,-0.408 -1.225,-0.408 l -0.816,0 c -0.133,0.134 -0.338,0.204 -0.611,0.204 0.408,0 -2.039,-0.749 -7.344,-2.244 -1.633,-0.545 -8.568,-1.77 -20.809,-3.672 0.408,0 0.613,-0.271 0.613,-0.816 3.809,1.361 6.664,2.04 8.566,2.04 0.684,0 1.158,-0.134 1.43,-0.407 -2.582,-1.088 -4.352,-1.633 -5.305,-1.633 -0.271,0 -0.439,0.07 -0.51,0.204 -0.068,0.138 -0.236,0.204 -0.51,0.204 -0.135,-0.271 -0.613,-0.612 -1.428,-1.02 -2.041,-1.088 -3.943,-1.633 -5.713,-1.633 0,-0.271 0.07,-0.541 0.203,-0.816 -1.357,-1.086 -3.193,-2.718 -5.508,-4.896 -0.133,-0.408 0,-1.428 0.408,-3.06 -0.271,-0.134 -0.611,-0.612 -1.02,-1.428 l 1.225,0 c -0.135,0 0,0.204 0.408,0.612 l 0.611,-0.612 c -0.408,-0.134 -1.563,-0.816 -3.469,-2.04 -0.133,-0.408 -0.541,-1.02 -1.223,-1.836 0.406,-0.95 1.156,-1.699 2.244,-2.244 0,-0.408 -0.477,-0.612 -1.43,-0.612 0.408,-0.816 1.361,-1.358 2.857,-1.632 -0.135,-1.358 0,-2.174 0.408,-2.448 1.631,0.408 4.217,0.886 7.752,1.428 l 0.611,0.612 c 0.408,0 1.09,0.274 2.039,0.816 0.275,-0.271 0.408,-0.679 0.408,-1.224 2.314,1.224 4.014,1.836 5.102,1.836 0.682,0 1.02,-0.475 1.02,-1.428 0.137,0.274 0.408,0.408 0.816,0.408 0.545,0 0.814,-0.271 0.814,-0.816 0.684,0.408 1.566,0.886 2.652,1.428 4.08,0.816 7.006,1.224 8.771,1.224 0.275,0 0.479,-0.134 0.613,-0.408 0.137,-0.271 0.34,-0.408 0.611,-0.408 0.273,0 0.51,0.239 0.715,0.714 0.203,0.478 0.443,0.714 0.713,0.714 0.816,0 2.008,0.172 3.57,0.51 1.563,0.341 2.754,0.51 3.57,0.51 5.438,0 11.15,-0.204 17.137,-0.612 -0.139,-0.134 -0.479,-0.204 -1.021,-0.204 2.582,-0.271 6.051,-0.746 10.404,-1.428 8.977,-0.271 18.902,-1.766 29.785,-4.488 0.541,-0.408 0.814,-0.679 0.814,-0.816 1.359,-0.134 2.787,-0.746 4.285,-1.836 0,-0.816 -0.275,-1.224 -0.816,-1.224 l -0.816,0 1.225,-0.612 c -0.273,-0.271 -0.75,-0.408 -1.428,-0.408 0.816,-0.134 2.855,-1.154 6.119,-3.06 l -7.955,-1.836 c 1.631,0.545 2.922,0.816 3.875,0.816 l 5.1,0 0,-1.428 c -4.486,-0.542 -9.588,-1.495 -15.299,-2.856 l -1.225,0.204 c 0.68,0.682 1.02,1.09 1.02,1.224 -1.359,-0.542 -2.518,-0.816 -3.467,-0.816 0.133,0 0.338,-0.134 0.611,-0.408 -0.273,-0.408 -0.816,-0.612 -1.631,-0.612 -0.684,0 -1.225,0.137 -1.633,0.408 -0.273,0.137 -0.137,0.682 0.408,1.632 -0.682,-0.134 -2.789,-1.428 -6.324,-3.876 -0.408,0.408 -0.479,0.749 -0.205,1.02 -0.682,-0.408 -1.359,-0.612 -2.039,-0.612 -1.361,0 -2.244,1.294 -2.652,3.876 -0.816,-0.408 -1.631,-0.612 -2.447,-0.612 -0.275,0 -0.715,0.07 -1.326,0.204 -0.611,0.137 -1.055,0.204 -1.326,0.204 -0.273,0.274 -0.203,0.816 0.203,1.632 -1.631,-0.134 -2.926,0.137 -3.875,0.816 0.271,-0.816 0.066,-1.766 -0.611,-2.856 -0.816,0.137 -1.703,1.428 -2.652,3.876 0.133,-0.95 0.066,-1.632 -0.205,-2.04 l -1.02,0 c -0.137,0.408 -0.203,0.816 -0.203,1.224 0,0.408 0.066,0.816 0.203,1.224 -0.545,-0.134 -1.156,0 -1.836,0.408 -0.137,-0.679 -0.408,-1.562 -0.816,-2.652 -0.545,0.682 -1.428,1.294 -2.652,1.836 0.271,-0.542 0.816,-1.087 1.633,-1.632 0.135,-1.087 0.408,-2.244 0.816,-3.468 l -0.205,-1.632 c -0.273,0.274 -0.408,0.545 -0.408,0.816 0,0.137 0.068,0.274 0.205,0.408 -0.273,0.137 -0.611,0.408 -1.02,0.816 -0.684,-0.542 -0.953,-1.224 -0.816,-2.04 0.133,-1.087 0.133,-1.97 0,-2.652 -1.906,0.816 -2.723,2.652 -2.449,5.508 0,-0.134 -0.102,-0.271 -0.305,-0.408 -0.205,-0.134 -0.307,-0.338 -0.307,-0.612 0,-0.816 0.949,-2.856 2.855,-6.12 l -0.203,-1.632 c -0.408,0 -0.816,0.545 -1.225,1.632 -0.137,-0.271 -0.545,-0.746 -1.223,-1.428 -0.953,0.408 -1.43,1.09 -1.43,2.04 -0.406,-0.408 -0.748,-0.612 -1.02,-0.612 l -0.611,0 c -0.137,0.137 -0.273,0.204 -0.408,0.204 1.766,-2.174 2.652,-3.672 2.652,-4.488 0,-0.408 -0.102,-0.679 -0.307,-0.816 -0.203,-0.134 -0.307,-0.338 -0.307,-0.612 l -0.814,0 c -1.09,0 -1.975,0.682 -2.652,2.04 -0.137,0 -0.443,-0.134 -0.918,-0.408 -0.479,-0.271 -0.852,-0.408 -1.123,-0.408 0.408,-3.806 4.215,-12.444 11.424,-25.908 2.721,-2.856 5.916,-7.003 9.59,-12.444 l 0,1.428 c 1.494,-1.495 3.672,-3.468 6.527,-5.916 2.174,-1.357 3.602,-2.311 4.283,-2.856 1.904,-1.495 2.924,-2.719 3.061,-3.672 2.039,0 5.846,-1.562 11.424,-4.692 l 7.957,-4.488 c 3.941,-1.357 6.186,-2.719 6.73,-4.08 0.135,0.137 0.408,0.204 0.816,0.204 0.68,0 2.174,-0.746 4.488,-2.244 -0.408,-0.408 -0.75,-0.612 -1.02,-0.612 l 0.816,-1.02 c 0.133,0 0.234,0.239 0.305,0.714 0.066,0.478 0.307,0.714 0.715,0.714 0.408,0 0.816,-0.204 1.223,-0.612 -0.273,0 0.068,0.478 1.021,1.428 0.678,-0.271 1.699,-0.746 3.059,-1.428 l 0,2.448 c -0.545,-0.134 -0.953,-0.134 -1.223,0 l 0,0.612 -0.603,-0.206 c -0.408,-0.134 -0.682,-0.204 -0.814,-0.204 l -0.205,2.04 c 2.041,0 3.264,-0.816 3.672,-2.448 3.398,-1.632 5.508,-2.244 6.324,-1.836 0,0.274 -0.203,0.682 -0.611,1.224 0.133,0.137 0.408,0.204 0.816,0.204 0.27,-0.679 0.406,-1.562 0.406,-2.652 l 1.836,1.224 c 0.271,1.361 0.408,2.244 0.408,2.652 0,0.137 -0.238,0.51 -0.713,1.122 -0.479,0.612 -0.715,1.122 -0.715,1.53 0,0.274 0.205,0.886 0.613,1.836 0.133,-0.271 0.203,-0.746 0.203,-1.428 0.135,0 0.338,-0.134 0.611,-0.408 0.271,-0.271 0.613,-0.408 1.021,-0.408 0.27,0 0.338,0.137 0.203,0.408 -0.137,0.274 -0.07,0.408 0.203,0.408 0.408,0 0.781,-0.134 1.123,-0.408 0.338,-0.271 0.576,-0.408 0.715,-0.408 0,0.274 -0.07,0.749 -0.205,1.428 l 0,1.224 c 0.816,0.953 1.225,1.769 1.225,2.448 -0.137,0.408 -0.682,2.448 -1.633,6.12 0,-0.816 0.135,-1.291 0.408,-1.428 l 0,-1.224 c -0.137,-0.271 -0.342,-0.408 -0.611,-0.408 l -1.021,3.06 c 0.135,0.137 0.477,0.204 1.021,0.204 0.541,0 1.02,-0.338 1.428,-1.02 0.409,0.274 0.679,0.408 0.818,0.408 z m -134.641,85.884 -1.02,0 0,-0.612 1.02,0 0,0.612 z m 6.527,10.812 -1.836,-0.407 0,-0.612 1.836,0.407 0,0.612 z m 13.873,1.02 0,-0.612 -1.225,0 0,0.612 1.225,0 z m 0.408,-3.263 0,-0.613 -1.021,0 0,0.613 1.021,0 z m 1.02,1.427 0,-0.612 -0.816,0 0,0.612 0.816,0 z m 1.428,0.409 0,-0.612 -1.225,0 0,0.612 1.225,0 z m -0.203,2.244 0,-0.613 -1.021,0 0,0.613 1.021,0 z m 0.203,-3.265 0,-0.612 -0.816,0 0,0.612 0.816,0 z m 1.836,0.408 0,-0.612 -1.225,0 0,0.612 1.225,0 z m 1.836,1.428 0,-0.612 -2.447,-0.408 0,0.612 2.447,0.408 z m -0.409,-7.344 0,-0.612 -0.816,0 0,0.612 0.816,0 z m 0.817,6.12 0,-0.612 -1.633,0 0,0.612 1.633,0 z m 0.203,3.672 0,-0.612 -1.836,-0.407 0,0.611 1.836,0.408 z m 1.836,-1.836 0,-0.612 -2.242,-0.408 0,0.612 2.242,0.408 z m 1.225,-7.14 0,-0.612 -1.02,0 0,0.612 1.02,0 z m 1.019,7.14 0,-0.612 -1.428,0 0,0.612 1.428,0 z m 1.43,-6.732 0,-0.612 -2.041,0 0,0.612 2.041,0 z m 0.406,7.14 0,-0.612 -1.02,0 0,0.612 1.02,0 z m 0,2.04 0,-0.611 -1.02,0 0,0.611 1.02,0 z m 1.43,0 0,-0.611 -1.021,0 0,0.611 1.021,0 z m 5.711,-2.448 0,-0.612 -5.916,-0.408 0,0.612 5.916,0.408 z m -0.409,1.02 0,-0.611 -5.508,-0.205 0,0.613 5.508,0.203 z m -3.263,1.836 0,-0.611 -2.039,0 0,0.611 2.039,0 z m 4.691,0.816 0,-0.612 -3.875,-0.815 0,0.611 3.875,0.816 z m 1.022,-0.408 0,-0.612 -0.816,0 0,0.612 0.816,0 z m 1.222,3.06 -1.631,-0.816 -0.205,0.612 1.633,0.815 0.203,-0.611 z m 1.836,-5.916 0,-0.612 -1.836,0 0,0.612 1.836,0 z m 2.449,-4.08 0,-0.612 -3.061,0 0,0.612 3.061,0 z m 0,7.344 0,-0.612 -2.449,0 0,0.612 2.449,0 z m 38.963,0.612 c -0.545,0 -1.396,-0.07 -2.549,-0.204 -1.158,-0.138 -2.008,-0.204 -2.551,-0.204 -0.273,0 -0.545,0.169 -0.816,0.51 -0.273,0.338 -0.545,0.51 -0.816,0.51 -0.273,0 -0.545,-0.102 -0.814,-0.306 -0.275,-0.204 -0.479,-0.306 -0.613,-0.306 -1.631,0 -3.197,0.338 -4.691,1.02 l -0.816,-0.816 c -1.09,0.135 -2.721,0.542 -4.895,1.225 0.27,-0.274 0.406,-0.545 0.406,-0.816 l -2.447,0 c 0,0.271 -0.07,0.542 -0.203,0.816 -0.408,-0.408 -0.816,-0.612 -1.225,-0.612 0.408,0.408 0.541,0.679 0.408,0.816 -1.09,-0.274 -2.041,-0.408 -2.855,-0.408 0.678,0 0.814,0.134 0.406,0.408 l -1.02,0 c -0.408,-0.408 -1.225,-0.612 -2.447,-0.612 l -5.1,0 c -0.408,0.134 -1.836,0.204 -4.285,0.204 l -2.855,0 c 0.541,0 1.393,0.306 2.551,0.918 1.152,0.612 1.867,0.918 2.141,0.918 0.271,0 0.68,-0.102 1.225,-0.306 0.541,-0.204 0.949,-0.307 1.225,-0.307 0.27,0 0.27,0.134 0,0.408 -0.139,0.134 -0.07,0.204 0.203,0.204 0.541,0 1.291,-0.102 2.244,-0.306 0.949,-0.204 1.633,-0.307 2.039,-0.307 0.543,0.408 0.885,0.612 1.021,0.612 3.396,0 5.779,-0.137 7.139,-0.408 0,-0.682 0.068,-1.09 0.205,-1.224 0.133,0 0.203,0.169 0.203,0.51 0,0.338 0.205,0.51 0.613,0.51 0.541,0 0.744,-0.137 0.611,-0.407 l 0.611,0.815 c 2.857,0 5.576,-0.408 8.16,-1.224 -0.273,0.271 -0.07,0.408 0.613,0.408 1.223,0 2.58,-0.408 4.08,-1.225 0,0.271 0.475,-0.07 1.428,-1.02 l 0.203,0.611 c 0.135,0.408 0.408,0.612 0.816,0.612 0.271,0 0.713,-0.172 1.326,-0.51 0.612,-0.338 0.985,-0.507 1.121,-0.507 z m -37.535,-3.876 0,-0.612 -2.041,0 0,0.612 2.041,0 z m 0.817,3.06 -1.43,-0.408 0,0.408 1.225,0.408 0.205,-0.408 z m 2.447,-23.256 -1.02,0 0,-0.612 1.02,0 0,0.612 z m 0.203,-46.716 -0.611,1.428 -0.408,-0.204 0.408,-1.224 0.611,0 z m 1.021,-2.856 -0.816,2.448 -0.611,-0.204 0.814,-2.244 0.613,0 z m 0,20.808 0,-1.02 -0.613,0 0,1.02 0.613,0 z m 2.04,52.224 0,-0.612 -2.039,0 0,0.612 2.039,0 z m 0,-50.388 -0.203,-0.612 -0.816,0.408 0,0.612 1.019,-0.408 z m 5.916,47.533 0,-0.613 -5.1,0 0,0.613 5.1,0 z m -3.875,2.855 0,-0.612 -1.021,0 0,0.612 1.021,0 z m 1.427,0 0,-0.612 -1.02,0 0,0.612 1.02,0 z m 1.836,-22.032 0,-0.612 -2.449,0 0,0.612 2.449,0 z m 0,22.032 0,-0.612 -1.02,0 0,0.612 1.02,0 z m 3.875,-22.032 0,-0.612 -3.467,-0.204 0,0.612 3.467,0.204 z m -1.428,22.032 0,-0.612 -2.039,0 0,0.612 2.039,0 z m -1.019,1.02 0,-0.611 -1.02,0 0,0.611 1.02,0 z m 0.816,5.916 -0.205,0.612 -1.02,-0.612 0.205,-0.407 1.02,0.407 z m 2.448,-0.816 -2.039,0 0,-0.816 2.039,0 0,0.816 z m -0.817,-6.12 0,-0.612 -0.814,0 0,0.612 0.814,0 z m 1.633,-90.78 -1.225,1.224 -0.408,-0.408 1.225,-1.224 0.408,0.408 z m 1.02,91.8 0,-0.611 -2.447,0 0,0.611 2.447,0 z m -0.409,-1.02 0,-0.612 -1.631,0 0,0.612 1.631,0 z m 3.469,-3.264 0,-0.612 -1.225,0 0,0.612 1.225,0 z m 1.225,9.384 c -0.816,0 -1.361,0.134 -1.633,0.408 l 0.816,-1.021 c 0.133,0.135 0.408,0.339 0.817,0.613 z m -0.614,-10.608 -0.611,-0.408 -0.205,0.408 0.408,0.408 0.408,-0.408 z m 8.772,9.18 c -1.904,0.408 -3.672,0.612 -5.303,0.612 2.582,-0.815 3.672,-1.224 3.264,-1.224 0.68,0 1.357,0.204 2.039,0.612 z m -2.447,-4.488 0,-0.612 -1.428,0 0,0.612 1.428,0 z m 0.408,-1.02 0,-0.611 -1.428,0 0,0.611 1.428,0 z m 1.019,-3.876 0,-0.612 -1.428,0 0,0.612 1.428,0 z m 5.1,8.568 -1.836,0 0,-0.612 1.836,0 0,0.612 z m 1.43,-0.612 -1.43,0 0,-0.612 1.43,0 0,0.612 z m 2.855,-3.264 -2.652,0 c 0.949,0 1.699,0.271 2.244,0.815 0,-0.136 0.135,-0.407 0.408,-0.815 z m 3.467,1.02 0,-0.611 -0.814,0 0,0.611 0.814,0 z m 2.244,-2.448 0,-0.612 -1.02,0 0,0.612 1.02,0 z m 0.613,-1.224 0,-0.611 -1.225,0 0,0.611 1.225,0 z m 0.203,1.836 -0.203,-0.611 -1.225,0.407 0,0.612 1.428,-0.408 z m 1.225,-2.039 0,-0.613 -1.225,0 0,0.613 1.225,0 z m 0.816,-35.905 -1.021,0 0,-0.612 1.021,0 0,0.612 z m 3.264,5.508 -1.02,0.408 0,-0.408 0.814,-0.408 0.206,0.408 z m 1.428,32.64 -1.225,0.816 -0.203,-0.408 1.225,-0.816 0.203,0.408 z m 2.039,-3.672 0,-0.612 -1.223,0 0,0.612 1.223,0 z m 2.857,1.429 -0.816,0 0,-0.613 0.816,0 0,0.613 z m 3.672,-9.385 0,-0.612 -1.02,0 0,0.612 1.02,0 z m 0,5.916 -0.205,-0.408 -0.814,0.408 0,0.408 1.019,-0.408 z m 2.653,-7.14 -0.205,-0.408 -2.244,0.612 0,0.612 2.449,-0.816 z m -1.022,13.26 -1.223,0.408 0,-0.408 1.02,-0.408 0.203,0.408 z m 7.346,-53.448 c -0.547,-1.087 -3.197,-2.311 -7.957,-3.672 -0.137,0.137 -0.203,0.749 -0.203,1.836 2.988,0.274 5.711,0.886 8.16,1.836 z m -7.141,42.432 0,-0.612 -1.02,0 0,0.612 1.02,0 z m 7.955,0.408 c -1.631,0.137 -2.926,1.157 -3.875,3.06 -0.137,-0.271 -0.408,-0.408 -0.816,-0.408 0,0.273 0.135,0.682 0.408,1.225 2.039,-0.952 3.469,-2.245 4.283,-3.877 z m 1.836,-74.052 -4.283,1.836 0,-0.408 4.08,-2.04 0.203,0.612 z m -1.836,32.232 -2.039,-0.816 0,0.612 1.836,0.612 0.203,-0.408 z m 0.817,2.856 -1.225,-1.836 -0.406,0.408 1.223,1.632 0.408,-0.204 z m -0.612,46.512 -0.816,0 0,-0.612 0.816,0 0,0.612 z m 3.264,-46.512 c -1.225,0.682 -1.77,1.224 -1.633,1.632 0.543,0.545 0.951,0.816 1.225,0.816 0,-0.271 0.066,-0.679 0.203,-1.224 0.135,-0.542 0.205,-0.95 0.205,-1.224 z m -0.611,-35.292 -1.021,0 0,-0.612 1.021,0 0,0.612 z m 1.427,72.216 -1.633,1.632 -0.203,-0.408 1.631,-1.632 0.205,0.408 z m 0,-95.064 -0.205,-0.408 -1.223,0.816 0.203,0.408 1.225,-0.816 z m 0,20.196 -1.021,0.816 -0.406,-0.612 1.223,-0.816 0.204,0.612 z m 1.428,-5.712 -1.428,0 -0.613,0.816 c 0.817,0 1.496,-0.271 2.041,-0.816 z m 0.408,46.104 c -0.545,-0.408 -1.225,-1.087 -2.041,-2.04 0.135,0.274 0.205,0.545 0.205,0.816 0,0.408 -0.137,0.749 -0.408,1.02 1.086,1.09 1.631,1.565 1.631,1.428 0,-0.542 0.205,-0.95 0.613,-1.224 z m 2.039,-63.648 c -0.682,-0.134 -1.428,-0.542 -2.244,-1.224 -0.273,-0.271 -0.479,-0.408 -0.611,-0.408 l 0,1.224 c -0.137,0.545 -0.205,0.886 -0.205,1.02 0.135,-0.134 0.271,-0.338 0.408,-0.612 0.135,-0.271 0.271,-0.475 0.408,-0.612 0.271,0.816 0.135,1.565 -0.408,2.244 l -0.814,1.02 c 1.902,-0.271 3.058,-1.154 3.466,-2.652 z m -1.836,19.992 -1.225,0 0,-0.612 1.225,0 0,0.612 z m 1.633,-0.816 -1.02,0.612 0,-0.612 0.814,-0.408 0.206,0.408 z m 0.409,76.092 -0.613,0 -0.408,-0.816 0.613,-0.204 0.408,1.02 z m 1.019,-92.208 -0.408,-0.408 -0.816,0.816 0.408,0.408 0.816,-0.816 z m 0.408,7.14 0,-1.224 -0.613,0 0,1.224 0.613,0 z m 2.039,-5.508 0,-4.08 c -0.273,-0.271 -0.748,-0.408 -1.428,-0.408 0,0.274 -0.137,0.612 -0.408,1.02 -0.273,0.408 -0.408,0.816 -0.408,1.224 l 0.613,0.612 0,2.856 c 0.409,-0.271 0.95,-0.679 1.631,-1.224 z m -0.611,2.04 -0.205,-0.612 -1.223,0.408 0,0.612 1.428,-0.408 z m 0.408,72.42 -0.613,0 0,-1.02 0.613,0 0,1.02 z m 2.244,-96.288 -0.816,0.816 -1.836,0 0,-2.448 1.428,-1.428 c 0.271,0.137 0.679,1.157 1.224,3.06 z m -1.224,97.308 -0.611,0 -0.408,-0.816 0.611,-0.204 0.408,1.02 z m 16.728,-86.088 c 0,0.953 -0.682,2.177 -2.041,3.672 l -2.447,2.04 c -0.273,-0.271 -0.887,-1.087 -1.836,-2.448 -0.408,0.274 -1.428,0.07 -3.061,-0.612 0.816,-0.542 1.291,-1.087 1.428,-1.632 -2.447,-0.679 -4.15,-2.786 -5.1,-6.324 l -1.428,1.428 -2.447,-2.448 c 1.086,-1.766 1.902,-2.652 2.447,-2.652 l 0.611,0.816 c 0.135,-0.816 0.477,-1.903 1.021,-3.264 1.631,-2.448 3.672,-3.672 6.119,-3.672 0.271,0 0.949,0.204 2.041,0.612 1.086,0.408 1.902,0.612 2.447,0.612 0.133,0.545 0.066,1.157 -0.205,1.836 1.633,1.632 2.449,2.926 2.449,3.876 0,0.545 -0.816,2.244 -2.449,5.1 1.635,0.953 2.451,1.973 2.451,3.06 z m -14.281,90.984 -0.406,1.428 -0.408,-0.204 0.408,-1.224 0.406,0 z m 30.193,-81.192 c -1.906,1.361 -4.83,3.264 -8.773,5.712 -1.09,0.953 -2.584,2.244 -4.486,3.876 -0.139,0 -0.408,-0.134 -0.816,-0.408 2.038,-3.127 6.732,-6.187 14.075,-9.18 z m 1.428,-5.304 c 0,0.274 -0.07,0.612 -0.205,1.02 -0.137,0.408 -0.203,0.749 -0.203,1.02 -0.682,-0.134 -1.361,0 -2.039,0.408 -0.547,-0.679 -0.816,-1.087 -0.816,-1.224 0,-0.271 0.133,-0.781 0.408,-1.53 0.27,-0.746 0.408,-1.256 0.408,-1.53 0.541,-0.134 1.357,-0.134 2.447,0 l 0,1.836 z"
       id="path13"
       inkscape:connector-curvature="0"
       style="fill:#6e7171" /></g></svg>