<?xml version="1.0" encoding="utf-8"?><svg xmlns="http://www.w3.org/2000/svg" xmlns:xlink="http://www.w3.org/1999/xlink"><symbol viewBox="0 0 25.18 16.164" id="arrow_down"><path d="M13.293 15.871a.99.99 0 0 1-1.406 0L.293 4.293a1.009 1.009 0 0 1 0-1.422L2.887.293a.99.99 0 0 1 1.406 0L12.59 8.59 20.887.293a.99.99 0 0 1 1.406 0l2.594 2.578a1.009 1.009 0 0 1 0 1.422L13.293 15.871z"/></symbol><symbol viewBox="0 0 18.164 13.922" id="check"><path d="M17.836 3.516L9.352 12l-1.594 1.594a1.136 1.136 0 0 1-1.594 0L4.57 12 .328 7.758a1.136 1.136 0 0 1 0-1.594L1.922 4.57a1.136 1.136 0 0 1 1.594 0l3.445 3.457L14.649.328a1.132 1.132 0 0 1 1.593 0l1.594 1.594a1.136 1.136 0 0 1 0 1.594z"/></symbol><symbol viewBox="0 0 26 22" id="github"><path d="M25.047 17.422C22.984 21.594 17.313 22 13.25 22 9.125 22 3.109 21.641.969 17.422.172 15.844 0 13.984 0 12.25c0-2.281.625-4.438 2.125-6.188a8.585 8.585 0 0 1-.422-2.656c0-1.172.266-2.343.797-3.406 2.469 0 4.047 1.078 5.922 2.547A20.895 20.895 0 0 1 13.25 2c1.469 0 2.953.156 4.375.5C19.484 1.047 21.063 0 23.5 0a7.629 7.629 0 0 1 .797 3.406c0 .891-.141 1.781-.422 2.625C25.375 7.797 26 9.969 26 12.25c0 1.734-.172 3.578-.953 5.172zM18.5 10.5c-1.031 0-2.016.188-3.047.328-.812.125-1.625.172-2.453.172s-1.641-.047-2.453-.172c-1.016-.14-2.016-.328-3.047-.328-2.547 0-4 2.109-4 4.5 0 4.781 4.375 5.516 8.188 5.516h2.625c3.813 0 8.188-.734 8.188-5.516-.001-2.391-1.454-4.5-4.001-4.5zM8 18c-1.406 0-2-1.859-2-3s.594-3 2-3 2 1.859 2 3-.594 3-2 3zm10 0c-1.406 0-2-1.859-2-3s.594-3 2-3 2 1.859 2 3-.594 3-2 3z"/></symbol><symbol viewBox="0 0 40 35" id="hamburger"><path d="M40 2.5A2.5 2.5 0 0 1 37.5 5h-35a2.5 2.5 0 1 1 0-5h35A2.5 2.5 0 0 1 40 2.5zm0 15a2.5 2.5 0 0 1-2.5 2.5h-35a2.5 2.5 0 1 1 0-5h35a2.5 2.5 0 0 1 2.5 2.5zm0 15a2.5 2.5 0 0 1-2.5 2.5h-35a2.5 2.5 0 1 1 0-5h35a2.5 2.5 0 0 1 2.5 2.5z"/></symbol><symbol viewBox="0 0 24 22.938" id="in"><path d="M2.875 5.344h-.031C1.109 5.344 0 4.156 0 2.672 0 1.156 1.156 0 2.906 0c1.766 0 2.859 1.156 2.875 2.672.016 1.484-1.109 2.672-2.906 2.672zm2.578 17.594H.297V7.453h5.156v15.485zm18.547 0h-5.141v-8.281c0-2.078-.75-3.5-2.609-3.5-1.422 0-2.266.953-2.641 1.875-.125.344-.172.797-.172 1.266v8.641h-5.14c.063-14.031 0-15.484 0-15.484h5.141v2.25h-.031c.672-1.063 1.891-2.609 4.672-2.609 3.391 0 5.922 2.219 5.922 6.969v8.873z"/></symbol><symbol viewBox="0 0 19.125 19.125" id="link"><path d="M18.129 16.441l-1.723 1.711a3.35 3.35 0 0 1-2.379.973 3.335 3.335 0 0 1-2.391-.996l-2.414-2.426a3.353 3.353 0 0 1-.972-2.379 3.43 3.43 0 0 1 1.031-2.449L8.25 9.844a3.407 3.407 0 0 1-2.438 1.031 3.392 3.392 0 0 1-2.391-.984L.984 7.453A3.34 3.34 0 0 1 0 5.063c0-.891.363-1.758.996-2.379L2.719.973A3.35 3.35 0 0 1 5.098 0C6 0 6.855.352 7.488.996l2.414 2.426a3.35 3.35 0 0 1 .973 2.379A3.43 3.43 0 0 1 9.844 8.25l1.031 1.031a3.407 3.407 0 0 1 2.438-1.031c.891 0 1.758.352 2.391.984l2.438 2.438c.645.645.984 1.488.984 2.391a3.356 3.356 0 0 1-.997 2.378zM8.309 5.004L5.895 2.578c-.211-.211-.504-.328-.797-.328s-.586.117-.797.316L2.578 4.277a1.116 1.116 0 0 0 0 1.583l2.438 2.438c.211.21.504.315.797.315.34 0 .609-.117.844-.363-.387-.387-.844-.715-.844-1.312 0-.621.504-1.125 1.125-1.125.598 0 .926.457 1.313.844.246-.234.387-.504.387-.855a1.142 1.142 0 0 0-.329-.798zm8.238 8.262l-2.438-2.438a1.136 1.136 0 0 0-1.641.047c.387.387.844.715.844 1.313 0 .621-.504 1.125-1.125 1.125-.598 0-.926-.457-1.313-.844-.246.234-.387.504-.387.855 0 .293.117.586.328.797l2.414 2.426c.211.211.504.316.797.316s.586-.105.797-.305l1.723-1.711c.211-.211.328-.492.328-.785a1.11 1.11 0 0 0-.327-.796z"/></symbol><symbol viewBox="0 0 14.137 15.422" id="login"><path d="M11.456 15.422H2.681C1.084 15.422 0 14.448 0 12.821c0-2.269.532-5.753 3.474-5.753.312 0 1.627 1.396 3.595 1.396s3.283-1.396 3.595-1.396c2.941 0 3.474 3.484 3.474 5.753-.001 1.627-1.085 2.601-2.682 2.601zM7.068 7.711A3.856 3.856 0 1 1 7.069 0a3.856 3.856 0 0 1-.001 7.711z"/></symbol><symbol viewBox="0 0 23 16.391" id="mail"><path d="M22.632 14.851l-6.476-7.022 6.48-6.493a.213.213 0 0 1 .364.149v13.22c0 .195-.238.288-.368.146zm-9.892-3.603a1.976 1.976 0 0 1-1.402.582h-.016c-.535 0-1.05-.212-1.429-.591L7.975 9.323l-6.587 6.705a.213.213 0 0 0 .151.362h20a.213.213 0 0 0 .158-.357l-6.596-7.149-2.361 2.364zm-1.42-.906a.536.536 0 0 0 .377-.156L21.502.364a.213.213 0 0 0-.15-.364H1.258a.212.212 0 0 0-.15.363l9.838 9.821a.52.52 0 0 0 .374.158zM0 1.876v12.918c0 .19.231.285.365.148L6.92 8.271.363 1.726a.213.213 0 0 0-.363.15z"/></symbol><symbol viewBox="0 0 15.151 21.654" id="map_marker"><path d="M11.004 7.835a3.425 3.425 0 0 0-3.43-3.414c-1.889 0-3.431 1.531-3.431 3.414a3.432 3.432 0 0 0 6.861 0z"/><path d="M7.574 21.654l1.388-1.817c1.455-1.925 6.189-8.469 6.189-12.049C15.151 3.132 12.106 0 7.574 0 3.045 0 0 3.132 0 7.788c0 3.854 5.56 11.223 6.192 12.049l1.382 1.817zM2.792 7.835c0-2.628 2.146-4.77 4.782-4.77 2.64 0 4.785 2.142 4.785 4.77 0 2.63-2.146 4.771-4.785 4.771-2.636-.001-4.782-2.141-4.782-4.771z"/></symbol><symbol viewBox="0 0 16.897 15.984" id="password"><path d="M15.743 12.078c-.261 0-1.074-.943-1.285-1.154l-.964.964 2.209 2.209a.973.973 0 0 1 .281.683c0 .563-.643 1.205-1.205 1.205a.978.978 0 0 1-.683-.281L7.359 8.966c-1.054.783-2.339 1.315-3.664 1.315C1.506 10.281 0 8.765 0 6.586 0 3.293 3.293 0 6.586 0c2.18 0 3.695 1.506 3.695 3.695 0 1.325-.532 2.61-1.315 3.665l3.564 3.564.964-.964c-.211-.211-1.154-1.024-1.154-1.285 0-.231.924-1.155 1.154-1.155.08 0 .171.041.23.101.372.372 3.173 3.012 3.173 3.303 0 .23-.923 1.154-1.154 1.154zM6.426 1.928a1.928 1.928 0 0 0-1.928 1.928c0 .291.07.572.19.833a1.973 1.973 0 0 0-.833-.191 1.928 1.928 0 1 0 1.928 1.928c0-.291-.07-.572-.19-.833.261.121.542.191.833.191a1.928 1.928 0 0 0 0-3.856z"/></symbol><symbol viewBox="0 0 16.492 20.947" id="phone"><path d="M7.858 17.102c-1.523-1.127-3.018-2.677-4.328-4.481C1.832 10.278.647 7.777.196 5.579c-.198-.973-.248-1.863-.141-2.58.113-.76.398-1.327.832-1.643.115-.083.234-.173.359-.27C1.952.544 2.834-.131 3.807.023c.717.114 1.344.65 1.905 1.635.722 1.27.949 2.161.724 2.894-.21.691-.779 1.093-1.38 1.523l-.209.15c-.209.152-.144.666.172 1.374.315.712.881 1.629 1.676 2.727 1.841 2.538 2.724 3.013 3.086 3.069.125.021.188-.012.231-.042.072-.049.142-.102.21-.149.663-.489 1.289-.949 2.133-.814.678.107 1.398.605 2.27 1.563.736.813 1.051 1.548.97 2.244-.116 1.017-1.058 1.662-1.813 2.182-.131.092-.258.178-.372.261-.421.307-1.034.406-1.771.289-1.096-.174-2.441-.822-3.781-1.827z"/><path d="M15.712 20.623c-.261-1.595-1.768-2.657-1.781-2.667a.396.396 0 0 1-.098-.546.392.392 0 0 1 .546-.103c.07.053 1.792 1.26 2.108 3.188a.388.388 0 0 1-.446.446.4.4 0 0 1-.329-.318z"/></symbol><symbol viewBox="0 0 42.736 27.435" id="portf_arrow_down"><path d="M22.563 26.938a1.68 1.68 0 0 1-2.387 0L.498 7.286a1.712 1.712 0 0 1 0-2.413L4.9.497a1.68 1.68 0 0 1 2.387 0l14.082 14.082L35.45.497a1.682 1.682 0 0 1 2.388 0l4.401 4.376c.663.663.663 1.75 0 2.413L22.563 26.938z"/></symbol><symbol viewBox="0 0 42.736 27.435" id="portf_arrow_up"><path d="M42.239 20.149c.663.662.663 1.75 0 2.413l-4.401 4.376a1.684 1.684 0 0 1-2.388 0L21.369 12.856 7.287 26.938a1.683 1.683 0 0 1-2.387 0L.498 22.562a1.712 1.712 0 0 1 0-2.413L20.175.498a1.68 1.68 0 0 1 2.387 0l19.677 19.651z"/></symbol><symbol viewBox="0 0 24 24" id="skype"><path d="M18 24a5.976 5.976 0 0 1-3.656-1.25c-.75.156-1.547.25-2.344.25-6.078 0-11-4.922-11-11 0-.797.094-1.594.25-2.344A5.976 5.976 0 0 1 0 6c0-3.313 2.688-6 6-6 1.375 0 2.641.469 3.656 1.25C10.406 1.094 11.203 1 12 1c6.078 0 11 4.922 11 11 0 .797-.094 1.594-.25 2.344A5.976 5.976 0 0 1 24 18a6 6 0 0 1-6 6zm-4.531-13.547l-1.625-.375c-1.188-.281-2.078-.484-2.078-1.391 0-.828.875-1.203 2.25-1.203 2.453 0 2.5 1.797 4.016 1.797 1.016 0 1.625-.797 1.625-1.703 0-1.797-2.984-2.969-5.938-2.969-2.703 0-5.844 1.172-5.844 4.344 0 2.625 1.75 3.563 4.031 4.109l2.281.563c1.391.344 2.25.5 2.25 1.5 0 .797-.891 1.406-2.266 1.406-2.891 0-3.047-2.406-4.719-2.406-1.094 0-1.578.781-1.578 1.641 0 1.922 2.938 3.484 6.453 3.484 2.938 0 6-1.469 6-4.641.001-2.718-2.639-3.656-4.858-4.156z"/></symbol><symbol viewBox="0 0 30.011 17.123" id="vk"><path d="M27.625 5.832c-3.031 4.031-3.359 3.656-.859 5.984 2.406 2.234 2.906 3.313 2.984 3.453 0 0 1 1.75-1.109 1.766l-4 .063c-.859.172-2-.609-2-.609-1.5-1.031-2.906-3.703-4-3.359 0 0-1.125.359-1.094 2.766.016.516-.234.797-.234.797s-.281.297-.828.344h-1.797c-3.953.25-7.438-3.391-7.438-3.391S3.437 9.707.093 1.848c-.219-.516.016-.766.016-.766S.343.785 1 .785L5.281.754c.406.063.688.281.688.281s.25.172.375.5c.703 1.75 1.609 3.344 1.609 3.344 1.563 3.219 2.625 3.766 3.234 3.438 0 0 .797-.484.625-4.375-.063-1.406-.453-2.047-.453-2.047-.359-.485-1.031-.625-1.328-.672-.234-.031.156-.594.672-.844.766-.375 2.125-.391 3.734-.375 1.266.016 1.625.094 2.109.203 1.484.359.984 1.734.984 5.047 0 1.063-.203 2.547.563 3.031.328.219 1.141.031 3.141-3.375 0 0 .938-1.625 1.672-3.516.125-.344.391-.484.391-.484s.25-.141.594-.094l4.5-.031c1.359-.172 1.578.453 1.578.453.234.641-.501 2.141-2.344 4.594z"/></symbol></svg>